STARTFONT 2.1
COMMENT
COMMENT Converted from OpenType font "UbuntuMono-Regular.ttf" by "otf2bdf 3.0".
COMMENT
FONT -FreeType-Ubuntu Mono-Medium-R-Normal--39-280-100-100-P-163-ISO10646-1
SIZE 28 100 100
FONTBOUNDINGBOX 38 39 -12 -7
STARTPROPERTIES 19
FOUNDRY "FreeType"
FAMILY_NAME "Ubuntu Mono"
WEIGHT_NAME "Medium"
SLANT "R"
SETWIDTH_NAME "Normal"
ADD_STYLE_NAME ""
PIXEL_SIZE 39
POINT_SIZE 280
RESOLUTION_X 100
RESOLUTION_Y 100
SPACING "P"
AVERAGE_WIDTH 163
CHARSET_REGISTRY "ISO10646"
CHARSET_ENCODING "1"
FONT_ASCENT 32
FONT_DESCENT 6
COPYRIGHT "Copyright 2011 Canonical Ltd.  Licensed under the Ubuntu Font Licence 1.0"
_OTF_FONTFILE "UbuntuMono-Regular.ttf"
_OTF_PSNAME "UbuntuMono-Regular"
ENDPROPERTIES
CHARS 1224
STARTCHAR 0000
ENCODING 0
SWIDTH 488 0
DWIDTH 19 0
BBX 0 0 0 0
BITMAP
ENDCHAR
STARTCHAR 0008
ENCODING 8
SWIDTH 488 0
DWIDTH 19 0
BBX 0 0 0 0
BITMAP
ENDCHAR
STARTCHAR 0009
ENCODING 9
SWIDTH 488 0
DWIDTH 19 0
BBX 0 0 0 0
BITMAP
ENDCHAR
STARTCHAR 000D
ENCODING 13
SWIDTH 488 0
DWIDTH 19 0
BBX 0 0 0 0
BITMAP
ENDCHAR
STARTCHAR 001D
ENCODING 29
SWIDTH 488 0
DWIDTH 19 0
BBX 0 0 0 0
BITMAP
ENDCHAR
STARTCHAR 0020
ENCODING 32
SWIDTH 488 0
DWIDTH 19 0
BBX 0 0 0 0
BITMAP
ENDCHAR
STARTCHAR 0021
ENCODING 33
SWIDTH 488 0
DWIDTH 19 0
BBX 5 24 7 0
BITMAP
70
70
70
70
70
70
70
70
70
70
70
70
70
70
70
30
00
00
00
70
F8
F8
F8
78
ENDCHAR
STARTCHAR 0022
ENCODING 34
SWIDTH 488 0
DWIDTH 19 0
BBX 9 9 5 17
BITMAP
E380
E380
E380
E380
E180
E180
E180
E180
4180
ENDCHAR
STARTCHAR 0023
ENCODING 35
SWIDTH 488 0
DWIDTH 19 0
BBX 17 24 1 0
BITMAP
038700
038700
070700
070E00
070E00
070E00
FFFF80
FFFF80
FFFF80
0E1C00
0E1C00
0E1C00
0C1C00
1C1C00
1C3800
FFFF80
FFFF80
FFFF80
383800
387000
387000
387000
387000
707000
ENDCHAR
STARTCHAR 0024
ENCODING 36
SWIDTH 488 0
DWIDTH 19 0
BBX 15 31 2 -4
BITMAP
0380
0380
0380
0380
07F8
1FFC
3FFC
7804
7000
7000
7000
7800
7C00
3F00
1FE0
07F8
01FC
003E
001E
000E
000E
000E
001E
7C7E
FFFC
7FF0
0380
0380
0380
0380
0380
ENDCHAR
STARTCHAR 0025
ENCODING 37
SWIDTH 488 0
DWIDTH 19 0
BBX 18 25 1 0
BITMAP
7E0380
FE0300
E70700
C30600
C30E00
C31C00
C31800
C33800
E77000
7E7000
7EE000
00C000
01C400
039F00
03BB80
073180
0671C0
0E71C0
1C71C0
1871C0
3871C0
703180
703F80
E01F00
000400
ENDCHAR
STARTCHAR 0026
ENCODING 38
SWIDTH 488 0
DWIDTH 19 0
BBX 17 25 1 0
BITMAP
018000
0FE000
1FF000
3C7800
383800
383800
383800
383800
387000
1CF000
1FE000
0FC000
0F0700
3F8700
3BC700
71E700
70F600
F07E00
E03E00
E03C00
F01E00
703E00
7CF700
3FF780
1FC380
ENDCHAR
STARTCHAR 0027
ENCODING 39
SWIDTH 488 0
DWIDTH 19 0
BBX 3 10 8 16
BITMAP
E0
E0
E0
E0
E0
E0
E0
E0
E0
60
ENDCHAR
STARTCHAR 0028
ENCODING 40
SWIDTH 488 0
DWIDTH 19 0
BBX 11 33 4 -7
BITMAP
00C0
01E0
03C0
0780
0F00
0E00
1E00
1C00
3800
3800
7800
7000
7000
7000
F000
F000
F000
F000
F000
7000
7000
7000
7800
3800
3800
3C00
1E00
0E00
0F00
0780
03C0
01E0
00C0
ENDCHAR
STARTCHAR 0029
ENCODING 41
SWIDTH 488 0
DWIDTH 19 0
BBX 11 33 4 -7
BITMAP
2000
7000
7800
3C00
1E00
0F00
0700
0780
0380
03C0
01C0
01C0
01E0
00E0
00E0
00E0
00E0
00E0
00E0
00E0
01E0
01C0
01C0
01C0
0380
0380
0700
0F00
1E00
3C00
7C00
F800
6000
ENDCHAR
STARTCHAR 002A
ENCODING 42
SWIDTH 488 0
DWIDTH 19 0
BBX 15 14 2 10
BITMAP
0380
0380
0380
0380
718E
7DBE
FFFE
0FE0
03C0
0EE0
1E70
1C78
3C38
0830
ENDCHAR
STARTCHAR 002B
ENCODING 43
SWIDTH 488 0
DWIDTH 19 0
BBX 16 17 2 2
BITMAP
0380
0380
0380
0380
0380
0380
0380
FFFF
FFFF
FFFF
0380
0380
0380
0380
0380
0380
0380
ENDCHAR
STARTCHAR 002C
ENCODING 44
SWIDTH 488 0
DWIDTH 19 0
BBX 8 11 6 -6
BITMAP
1E
3E
3F
3F
3E
0E
0E
3C
F8
F0
80
ENDCHAR
STARTCHAR 002D
ENCODING 45
SWIDTH 488 0
DWIDTH 19 0
BBX 9 3 5 8
BITMAP
FF80
FF80
FF80
ENDCHAR
STARTCHAR 002E
ENCODING 46
SWIDTH 488 0
DWIDTH 19 0
BBX 6 5 7 0
BITMAP
78
F8
FC
F8
78
ENDCHAR
STARTCHAR 002F
ENCODING 47
SWIDTH 488 0
DWIDTH 19 0
BBX 14 33 3 -6
BITMAP
003C
0038
0038
0078
0070
0070
00F0
00E0
00E0
01E0
01C0
01C0
03C0
0380
0380
0780
0700
0700
0F00
0E00
0E00
0E00
1E00
1C00
1C00
3C00
3800
3800
7800
7000
7000
F000
E000
ENDCHAR
STARTCHAR 0030
ENCODING 48
SWIDTH 488 0
DWIDTH 19 0
BBX 16 26 2 -1
BITMAP
0180
0FF0
1FF8
3C7C
783C
701E
701E
F00E
E00E
E00E
E38F
E3CF
E3CF
E3CF
E38F
E00F
E00E
E00E
F00E
701E
701C
783C
3E78
1FF8
0FE0
0100
ENDCHAR
STARTCHAR 0031
ENCODING 49
SWIDTH 488 0
DWIDTH 19 0
BBX 14 24 3 0
BITMAP
0180
0380
0F80
1F80
7F80
FB80
6380
0380
0380
0380
0380
0380
0380
0380
0380
0380
0380
0380
0380
0380
0380
7FFC
7FFC
7FFC
ENDCHAR
STARTCHAR 0032
ENCODING 50
SWIDTH 488 0
DWIDTH 19 0
BBX 15 25 2 0
BITMAP
0300
1FF0
7FF8
F87C
603C
001C
001C
001C
001C
003C
0038
0078
00F0
01E0
03C0
0780
0F00
1E00
1C00
3C00
7800
7000
7FFE
7FFE
7FFE
ENDCHAR
STARTCHAR 0033
ENCODING 51
SWIDTH 488 0
DWIDTH 19 0
BBX 15 26 2 -1
BITMAP
0700
3FF0
7FF8
78F8
003C
001C
001C
001C
001C
0038
00F8
07E0
07F0
07F8
003C
001E
000E
000E
000E
000E
001E
001C
78FC
FFF8
7FE0
0200
ENDCHAR
STARTCHAR 0034
ENCODING 52
SWIDTH 488 0
DWIDTH 19 0
BBX 17 24 1 0
BITMAP
001C00
003C00
007C00
00FC00
01DC00
03DC00
039C00
071C00
0E1C00
0E1C00
1C1C00
181C00
381C00
701C00
701C00
FFFF80
FFFF80
FFFF80
001C00
001C00
001C00
001C00
001C00
001C00
ENDCHAR
STARTCHAR 0035
ENCODING 53
SWIDTH 488 0
DWIDTH 19 0
BBX 14 25 3 -1
BITMAP
3FFC
3FFC
3FFC
3800
3800
3800
3000
7000
7000
7E00
7FC0
7FF0
01F8
0078
003C
001C
001C
001C
001C
003C
003C
F1F8
FFF0
FFE0
0400
ENDCHAR
STARTCHAR 0036
ENCODING 54
SWIDTH 488 0
DWIDTH 19 0
BBX 15 25 2 -1
BITMAP
007C
01FC
07FC
0F80
1E00
3C00
3800
7800
7000
73C0
FFF8
FFFC
F03C
E01E
E00E
E00E
E00E
F00E
700E
700E
781E
3C7C
1FF8
0FF0
0180
ENDCHAR
STARTCHAR 0037
ENCODING 55
SWIDTH 488 0
DWIDTH 19 0
BBX 16 24 2 0
BITMAP
FFFF
FFFF
FFFF
000E
001C
003C
0038
0070
0070
00E0
00E0
01E0
01C0
03C0
0380
0380
0780
0700
0700
0700
0F00
0F00
0E00
0E00
ENDCHAR
STARTCHAR 0038
ENCODING 56
SWIDTH 488 0
DWIDTH 19 0
BBX 15 26 2 -1
BITMAP
0380
0FF0
3FF8
7C3C
701E
700E
F00E
F00E
700E
781C
7C3C
3F78
1FF0
1FF8
387C
701E
F00E
E00E
E00E
E00E
E00E
F01E
7C3C
3FFC
1FF0
0100
ENDCHAR
STARTCHAR 0039
ENCODING 57
SWIDTH 488 0
DWIDTH 19 0
BBX 15 25 2 0
BITMAP
0380
1FF0
3FF8
7C7C
701C
F01E
E00E
E00E
E00E
E00E
F00E
700E
781E
3FFE
1FFE
030E
001E
001C
003C
0038
00F8
01F0
7FE0
7F80
7C00
ENDCHAR
STARTCHAR 003A
ENCODING 58
SWIDTH 488 0
DWIDTH 19 0
BBX 6 18 7 0
BITMAP
70
F8
FC
FC
F8
70
00
00
00
00
00
00
00
78
F8
FC
F8
78
ENDCHAR
STARTCHAR 003B
ENCODING 59
SWIDTH 488 0
DWIDTH 19 0
BBX 8 24 5 -6
BITMAP
1C
3E
3F
3F
3E
1C
00
00
00
00
00
00
00
1E
3E
3F
3F
1F
0E
0E
3C
F8
F0
80
ENDCHAR
STARTCHAR 003C
ENCODING 60
SWIDTH 488 0
DWIDTH 19 0
BBX 16 15 2 3
BITMAP
000E
003F
01FE
07F0
1FC0
FE00
F800
F800
FE00
3F80
07F0
01FC
007F
000E
0002
ENDCHAR
STARTCHAR 003D
ENCODING 61
SWIDTH 488 0
DWIDTH 19 0
BBX 16 10 2 5
BITMAP
FFFF
FFFF
0000
0000
0000
0000
0000
FFFF
FFFF
FFFF
ENDCHAR
STARTCHAR 003E
ENCODING 62
SWIDTH 488 0
DWIDTH 19 0
BBX 16 15 2 3
BITMAP
F000
FC00
7F00
1FE0
03F8
00FE
001F
001F
007F
03F8
0FE0
3F80
FC00
F000
4000
ENDCHAR
STARTCHAR 003F
ENCODING 63
SWIDTH 488 0
DWIDTH 19 0
BBX 12 25 4 0
BITMAP
0E00
FFC0
FFE0
C1E0
00F0
0070
0070
00F0
00E0
01E0
03C0
0780
0F00
0E00
1E00
1C00
1C00
0000
0000
0000
0C00
1E00
3E00
3E00
1E00
ENDCHAR
STARTCHAR 0040
ENCODING 64
SWIDTH 488 0
DWIDTH 19 0
BBX 16 30 2 -5
BITMAP
00C0
07F8
1FFC
1E1E
380E
7807
7007
7007
E01F
E0FF
E1FF
E3C7
E387
E787
E707
E707
E707
E707
E787
E387
E3C7
F1FF
70FF
7000
3800
3C00
1E00
0FCC
07FC
01FC
ENDCHAR
STARTCHAR 0041
ENCODING 65
SWIDTH 488 0
DWIDTH 19 0
BBX 19 24 0 0
BITMAP
00F000
01F000
01F800
03B800
03B800
039C00
071C00
071C00
070E00
0E0E00
0E0E00
0E0700
0C0700
1C0700
1C0780
1FFF80
3FFF80
3FFF80
3803C0
3801C0
7001C0
7001C0
7001E0
F000E0
ENDCHAR
STARTCHAR 0042
ENCODING 66
SWIDTH 488 0
DWIDTH 19 0
BBX 16 24 2 0
BITMAP
FFE0
FFF8
F1F8
E03C
E01C
E01C
E01C
E01C
E03C
E078
FFF0
FFF0
FFFC
E03C
E00E
E00E
E00F
E00F
E00E
E00E
E01E
FFFC
FFF8
FFE0
ENDCHAR
STARTCHAR 0043
ENCODING 67
SWIDTH 488 0
DWIDTH 19 0
BBX 16 26 2 -1
BITMAP
0060
07FE
0FFF
1F0E
3C02
7800
7800
7000
F000
E000
E000
E000
E000
E000
E000
E000
E000
F000
7000
7000
7800
3C00
1F9E
0FFF
07FE
0040
ENDCHAR
STARTCHAR 0044
ENCODING 68
SWIDTH 488 0
DWIDTH 19 0
BBX 16 24 2 0
BITMAP
FFC0
FFF0
F3F8
E07C
E03C
E01E
E00E
E00E
E00F
E00F
E007
E007
E007
E007
E00F
E00F
E00E
E00E
E01E
E03C
E07C
FFF8
FFE0
FF80
ENDCHAR
STARTCHAR 0045
ENCODING 69
SWIDTH 488 0
DWIDTH 19 0
BBX 14 24 4 0
BITMAP
FFF8
FFF8
FFF8
E000
E000
E000
E000
E000
E000
E000
FFF0
FFF0
FFF0
E000
E000
E000
E000
E000
E000
E000
E000
FFFC
FFFC
FFFC
ENDCHAR
STARTCHAR 0046
ENCODING 70
SWIDTH 488 0
DWIDTH 19 0
BBX 13 24 4 0
BITMAP
FFF8
FFF8
FFF8
E000
E000
E000
E000
E000
E000
E000
FFF0
FFF0
FFF0
E000
E000
E000
E000
E000
E000
E000
E000
E000
E000
E000
ENDCHAR
STARTCHAR 0047
ENCODING 71
SWIDTH 488 0
DWIDTH 19 0
BBX 16 26 2 -1
BITMAP
0070
07FE
0FFE
1F0E
3C02
7800
7800
7000
F000
E000
E000
E000
E000
E00F
E00F
E00F
E00F
F00F
700F
700F
780F
3C0F
1F0F
0FFF
07FE
0040
ENDCHAR
STARTCHAR 0048
ENCODING 72
SWIDTH 488 0
DWIDTH 19 0
BBX 16 24 2 0
BITMAP
E00F
E00F
E00F
E00F
E00F
E00F
E00F
E00F
E00F
E00F
FFFF
FFFF
FFFF
E00F
E00F
E00F
E00F
E00F
E00F
E00F
E00F
E00F
E00F
E00F
ENDCHAR
STARTCHAR 0049
ENCODING 73
SWIDTH 488 0
DWIDTH 19 0
BBX 13 24 3 0
BITMAP
FFF8
FFF8
FFF8
0700
0700
0700
0700
0700
0700
0700
0700
0700
0700
0700
0700
0700
0700
0700
0700
0700
0700
FFF8
FFF8
FFF8
ENDCHAR
STARTCHAR 004A
ENCODING 74
SWIDTH 488 0
DWIDTH 19 0
BBX 14 25 2 -1
BITMAP
1FFC
1FFC
1FFC
001C
001C
001C
001C
001C
001C
001C
001C
001C
001C
001C
001C
001C
001C
001C
001C
003C
403C
70F8
FFF0
3FE0
0200
ENDCHAR
STARTCHAR 004B
ENCODING 75
SWIDTH 488 0
DWIDTH 19 0
BBX 17 24 2 0
BITMAP
F00F00
F01E00
F01C00
F03C00
F07800
F0F000
F1E000
F1E000
F3C000
F78000
FF0000
FF0000
FF8000
F7C000
F3E000
F1F000
F0F000
F07800
F03C00
F01E00
F01E00
F00F00
F00700
F00780
ENDCHAR
STARTCHAR 004C
ENCODING 76
SWIDTH 488 0
DWIDTH 19 0
BBX 14 24 4 0
BITMAP
E000
E000
E000
E000
E000
E000
E000
E000
E000
E000
E000
E000
E000
E000
E000
E000
E000
E000
E000
E000
E000
FFFC
FFFC
FFFC
ENDCHAR
STARTCHAR 004D
ENCODING 77
SWIDTH 488 0
DWIDTH 19 0
BBX 17 24 1 0
BITMAP
380F00
380F00
3C0F00
3C1F00
7C1B00
7E1B00
763B00
763B00
773300
737300
737380
73E380
71E380
71E380
71C380
700380
700380
600380
E00380
E00380
E00380
E00380
E00380
E00380
ENDCHAR
STARTCHAR 004E
ENCODING 78
SWIDTH 488 0
DWIDTH 19 0
BBX 15 24 2 0
BITMAP
F00E
F00E
F80E
F80E
FC0E
FC0E
EE0E
EE0E
E70E
E70E
E38E
E38E
E1CE
E1CE
E0EE
E0EE
E07E
E07E
E03E
E03E
E01E
E01E
E01E
E00E
ENDCHAR
STARTCHAR 004F
ENCODING 79
SWIDTH 488 0
DWIDTH 19 0
BBX 17 26 1 -1
BITMAP
00C000
07F800
1FFC00
3E3E00
3C0F00
780700
700700
700780
F00380
F00380
E00380
E00380
E00380
E00380
E00380
E00380
F00380
700380
700780
700700
780700
3C0F00
1E3E00
1FFC00
07F800
008000
ENDCHAR
STARTCHAR 0050
ENCODING 80
SWIDTH 488 0
DWIDTH 19 0
BBX 15 24 3 0
BITMAP
FFE0
FFF0
F1F8
E03C
E01C
E01E
E01E
E01E
E01E
E01C
E01C
E07C
FFF8
FFF0
FFC0
E000
E000
E000
E000
E000
E000
E000
E000
E000
ENDCHAR
STARTCHAR 0051
ENCODING 81
SWIDTH 488 0
DWIDTH 19 0
BBX 17 31 1 -6
BITMAP
008000
07F800
1FFC00
3E3E00
3C0F00
780700
700700
700780
F00380
F00380
E00380
E00380
E00380
E00380
E00380
E00380
F00380
F00380
700780
700700
780700
3C0F00
3E3E00
1FFC00
07F800
01C000
01E000
00F000
007E00
003F00
000F00
ENDCHAR
STARTCHAR 0052
ENCODING 82
SWIDTH 488 0
DWIDTH 19 0
BBX 16 24 2 0
BITMAP
FFE0
FFF0
F1F8
E03C
E01C
E01E
E01E
E01E
E01E
E01C
E03C
E078
FFF0
FFE0
FFE0
E0E0
E070
E078
E038
E03C
E01C
E01E
E00E
E00F
ENDCHAR
STARTCHAR 0053
ENCODING 83
SWIDTH 488 0
DWIDTH 19 0
BBX 15 26 2 -1
BITMAP
01C0
0FFC
3FFC
3C1C
7800
7000
7000
7000
7000
7800
3E00
1F80
0FE0
03F8
00FC
003C
001E
000E
000E
000E
000E
401E
787C
FFFC
3FF0
0300
ENDCHAR
STARTCHAR 0054
ENCODING 84
SWIDTH 488 0
DWIDTH 19 0
BBX 16 24 2 0
BITMAP
FFFF
FFFF
FFFF
0380
0380
0380
0380
0380
0380
0380
0380
0380
0380
0380
0380
0380
0380
0380
0380
0380
0380
0380
0380
0380
ENDCHAR
STARTCHAR 0055
ENCODING 85
SWIDTH 488 0
DWIDTH 19 0
BBX 16 25 2 -1
BITMAP
E00F
E00F
E00F
E00F
E00F
E00F
E00F
E00F
E00F
E00F
E00F
E00F
E00F
E00F
E00F
E00F
E00F
E00E
E00E
F00E
701E
7C7C
3FF8
1FF0
0100
ENDCHAR
STARTCHAR 0056
ENCODING 86
SWIDTH 488 0
DWIDTH 19 0
BBX 18 24 1 0
BITMAP
E001C0
E003C0
F00380
F00380
700380
700780
700700
780700
380700
380E00
3C0E00
1C0E00
1C1E00
1C1C00
0E1C00
0E1C00
0E3800
073800
073800
077000
03F000
03F000
03E000
01E000
ENDCHAR
STARTCHAR 0057
ENCODING 87
SWIDTH 488 0
DWIDTH 19 0
BBX 17 24 1 0
BITMAP
E00380
E00380
E00380
E00380
E00380
E00380
700380
700380
700380
71C380
71E380
73E380
73E380
737300
737300
773300
763B00
763B00
7E1B00
7C1B00
7C1F00
3C0F00
380F00
380E00
ENDCHAR
STARTCHAR 0058
ENCODING 88
SWIDTH 488 0
DWIDTH 19 0
BBX 17 24 1 0
BITMAP
700780
780700
380F00
3C0E00
1C1E00
1E1C00
0E3800
077800
077000
03F000
03E000
03E000
03F000
07F000
077800
0F3800
0E3C00
1C1C00
1C1E00
380E00
380F00
780700
700780
F00380
ENDCHAR
STARTCHAR 0059
ENCODING 89
SWIDTH 488 0
DWIDTH 19 0
BBX 18 24 1 0
BITMAP
E003C0
F00380
F00780
700700
780700
380F00
3C0E00
1C1E00
1E1C00
0E3800
0F3800
077000
03F000
03E000
01E000
01C000
01C000
01C000
01C000
01C000
01C000
01C000
01C000
01C000
ENDCHAR
STARTCHAR 005A
ENCODING 90
SWIDTH 488 0
DWIDTH 19 0
BBX 16 24 2 0
BITMAP
7FFE
7FFE
7FFE
001E
003C
0038
0078
00F0
00E0
01E0
01C0
0380
0780
0700
0F00
0E00
1C00
3C00
3800
7800
7000
FFFF
FFFF
FFFF
ENDCHAR
STARTCHAR 005B
ENCODING 91
SWIDTH 488 0
DWIDTH 19 0
BBX 9 33 6 -6
BITMAP
FF80
FF80
E000
E000
E000
E000
E000
E000
E000
E000
E000
E000
E000
E000
E000
E000
E000
E000
E000
E000
E000
E000
E000
E000
E000
E000
E000
E000
E000
E000
E000
FF80
FF80
ENDCHAR
STARTCHAR 005C
ENCODING 92
SWIDTH 488 0
DWIDTH 19 0
BBX 13 33 3 -6
BITMAP
E000
E000
7000
7000
7000
3800
3800
3800
3C00
1C00
1C00
1E00
0E00
0E00
0F00
0700
0700
0780
0380
0380
03C0
01C0
01C0
01E0
00E0
00E0
00F0
0070
0070
0070
0038
0038
0038
ENDCHAR
STARTCHAR 005D
ENCODING 93
SWIDTH 488 0
DWIDTH 19 0
BBX 9 33 5 -6
BITMAP
FF80
FF80
0380
0380
0380
0380
0380
0380
0380
0380
0380
0380
0380
0380
0380
0380
0380
0380
0380
0380
0380
0380
0380
0380
0380
0380
0380
0380
0380
0380
0380
FF80
FF80
ENDCHAR
STARTCHAR 005E
ENCODING 94
SWIDTH 488 0
DWIDTH 19 0
BBX 16 13 2 11
BITMAP
0380
07C0
07E0
0FE0
0EF0
1C70
1C38
3838
781C
701E
F00E
E00F
4004
ENDCHAR
STARTCHAR 005F
ENCODING 95
SWIDTH 488 0
DWIDTH 19 0
BBX 19 2 0 -6
BITMAP
FFFFE0
FFFFE0
ENDCHAR
STARTCHAR 0060
ENCODING 96
SWIDTH 488 0
DWIDTH 19 0
BBX 6 7 7 20
BITMAP
40
E0
E0
70
38
1C
08
ENDCHAR
STARTCHAR 0061
ENCODING 97
SWIDTH 488 0
DWIDTH 19 0
BBX 15 18 2 0
BITMAP
3FF0
3FF8
307C
001C
001E
000E
000E
0FFE
3FFE
7FFE
780E
F00E
F00E
F00E
F00E
7C1E
3FFE
1FFE
ENDCHAR
STARTCHAR 0062
ENCODING 98
SWIDTH 488 0
DWIDTH 19 0
BBX 15 27 3 0
BITMAP
E000
E000
E000
E000
E000
E000
E000
E000
E000
FFE0
FFF0
FCF8
E03C
E01C
E01C
E01E
E01E
E00E
E00E
E01E
E01E
E01C
E03C
E07C
FBF8
FFF0
FFC0
ENDCHAR
STARTCHAR 0063
ENCODING 99
SWIDTH 488 0
DWIDTH 19 0
BBX 16 18 2 0
BITMAP
07FE
1FFE
3F8E
7C00
7800
F000
F000
E000
E000
E000
E000
F000
F000
7800
7C00
3FDE
1FFE
07FF
ENDCHAR
STARTCHAR 0064
ENCODING 100
SWIDTH 488 0
DWIDTH 19 0
BBX 15 27 2 0
BITMAP
000E
001E
001E
001E
001E
001E
001E
001E
001E
0FFE
3FFE
7EFE
781E
F01E
E01E
E01E
E01E
E01E
E01E
E01E
E01E
E01E
F01E
781E
3F7E
1FFE
0FFE
ENDCHAR
STARTCHAR 0065
ENCODING 101
SWIDTH 488 0
DWIDTH 19 0
BBX 16 18 2 0
BITMAP
0FF0
1FF8
3E7C
781E
F00E
E00E
E00F
FFFF
FFFF
FFFF
E000
E000
E000
F000
7800
3FBC
1FFC
0FFC
ENDCHAR
STARTCHAR 0066
ENCODING 102
SWIDTH 488 0
DWIDTH 19 0
BBX 17 27 2 0
BITMAP
00FE00
03FF80
03FF00
078100
070000
0F0000
0E0000
0E0000
0E0000
FFFE00
FFFE00
FFFE00
0E0000
0E0000
0E0000
0E0000
0E0000
0E0000
0E0000
0E0000
0E0000
0E0000
0E0000
0E0000
0E0000
0E0000
0E0000
ENDCHAR
STARTCHAR 0067
ENCODING 103
SWIDTH 488 0
DWIDTH 19 0
BBX 15 24 2 -7
BITMAP
0FFE
3FFE
7E3E
781E
F01E
E01E
E01E
E01E
E01E
E01E
E01E
E01E
F01E
781E
7FFE
3FFE
1FFE
001E
001E
001C
003C
70FC
7FF8
FFE0
ENDCHAR
STARTCHAR 0068
ENCODING 104
SWIDTH 488 0
DWIDTH 19 0
BBX 14 27 3 0
BITMAP
E000
E000
E000
E000
E000
E000
E000
E000
E000
FFE0
FFF0
FDF8
E078
E038
E03C
E03C
E01C
E01C
E01C
E01C
E01C
E01C
E01C
E01C
E01C
E01C
E01C
ENDCHAR
STARTCHAR 0069
ENCODING 105
SWIDTH 488 0
DWIDTH 19 0
BBX 15 26 2 0
BITMAP
0700
0F00
0F80
0F00
0F00
0000
0000
0000
FF80
FF80
FF80
0780
0780
0780
0780
0780
0780
0780
0780
0780
0780
0780
0380
03EE
03FE
01FE
ENDCHAR
STARTCHAR 006A
ENCODING 106
SWIDTH 488 0
DWIDTH 19 0
BBX 12 33 3 -7
BITMAP
01E0
01E0
03E0
01E0
01E0
0000
0000
0000
7FF0
7FF0
7FF0
0070
0070
0070
0070
0070
0070
0070
0070
0070
0070
0070
0070
0070
0070
0070
0070
0070
00F0
F1E0
FFE0
FFC0
0400
ENDCHAR
STARTCHAR 006B
ENCODING 107
SWIDTH 488 0
DWIDTH 19 0
BBX 15 27 3 0
BITMAP
E000
E000
E000
E000
E000
E000
E000
E000
E000
E01C
E038
E070
E0E0
E3C0
E780
EF00
FE00
FE00
FF00
E780
E3C0
E1E0
E0F0
E078
E03C
E01E
E01E
ENDCHAR
STARTCHAR 006C
ENCODING 108
SWIDTH 488 0
DWIDTH 19 0
BBX 15 27 2 0
BITMAP
FF80
FF80
FF80
0780
0780
0780
0780
0780
0780
0780
0780
0780
0780
0780
0780
0780
0780
0780
0780
0780
0780
0780
0780
0380
03EE
03FE
01FE
ENDCHAR
STARTCHAR 006D
ENCODING 109
SWIDTH 488 0
DWIDTH 19 0
BBX 16 18 2 0
BITMAP
FEFC
FFFE
E7CF
E387
E387
E387
E387
E387
E387
E387
E387
E007
E007
E007
E007
E007
E007
E007
ENDCHAR
STARTCHAR 006E
ENCODING 110
SWIDTH 488 0
DWIDTH 19 0
BBX 14 18 3 0
BITMAP
FFE0
FFF0
F9F8
E078
E038
E03C
E01C
E01C
E01C
E01C
E01C
E01C
E01C
E01C
E01C
E01C
E01C
E01C
ENDCHAR
STARTCHAR 006F
ENCODING 111
SWIDTH 488 0
DWIDTH 19 0
BBX 16 18 2 0
BITMAP
0FF0
3FF8
3EFC
781E
F01E
E00E
E00F
E00F
E007
E007
E00F
E00F
E00E
F01E
781E
3EFC
3FF8
0FF0
ENDCHAR
STARTCHAR 0070
ENCODING 112
SWIDTH 488 0
DWIDTH 19 0
BBX 15 24 3 -6
BITMAP
FFC0
FFF0
F9F8
E07C
E03C
E01C
E01E
E01E
E00E
E00E
E01E
E01E
E01C
E01C
E03C
FFF8
FFF0
FFE0
E000
E000
E000
E000
E000
E000
ENDCHAR
STARTCHAR 0071
ENCODING 113
SWIDTH 488 0
DWIDTH 19 0
BBX 15 24 2 -6
BITMAP
0FFE
1FFE
3F3E
781E
F01E
F01E
E01E
E01E
E01E
E01E
E01E
E01E
E01E
F01E
781E
7EFE
3FFE
0FFE
001E
001E
001E
001E
001E
001E
ENDCHAR
STARTCHAR 0072
ENCODING 114
SWIDTH 488 0
DWIDTH 19 0
BBX 13 18 4 0
BITMAP
3FF8
FFF8
FC38
E000
E000
E000
E000
E000
E000
E000
E000
E000
E000
E000
E000
E000
E000
E000
ENDCHAR
STARTCHAR 0073
ENCODING 115
SWIDTH 488 0
DWIDTH 19 0
BBX 14 18 3 0
BITMAP
3FF8
7FF8
F838
E000
E000
E000
F800
7E00
3FC0
0FF0
01F8
007C
003C
001C
803C
F8F8
FFF8
FFE0
ENDCHAR
STARTCHAR 0074
ENCODING 116
SWIDTH 488 0
DWIDTH 19 0
BBX 15 23 2 1
BITMAP
0E00
0E00
0E00
0E00
0E00
FFFE
FFFE
FFFE
0E00
0E00
0E00
0E00
0E00
0E00
0E00
0E00
0E00
0F00
0F00
0700
07EE
07FE
01FE
ENDCHAR
STARTCHAR 0075
ENCODING 117
SWIDTH 488 0
DWIDTH 19 0
BBX 14 18 3 0
BITMAP
E03C
E03C
E03C
E03C
E03C
E03C
E03C
E03C
E03C
E03C
E03C
E03C
E03C
E03C
F03C
7EFC
3FFC
1FFC
ENDCHAR
STARTCHAR 0076
ENCODING 118
SWIDTH 488 0
DWIDTH 19 0
BBX 17 18 1 0
BITMAP
F00380
700780
700780
780700
380F00
380E00
3C0E00
1C1E00
1C1C00
1E1C00
0E3800
0E3800
077800
077000
07F000
03E000
03E000
01C000
ENDCHAR
STARTCHAR 0077
ENCODING 119
SWIDTH 488 0
DWIDTH 19 0
BBX 18 18 1 0
BITMAP
E001C0
E001C0
E00180
E00380
E1C380
E1C380
E1E380
71E380
73E380
737300
737300
773700
763F00
3E1F00
3C1E00
3C1E00
3C0E00
380E00
ENDCHAR
STARTCHAR 0078
ENCODING 120
SWIDTH 488 0
DWIDTH 19 0
BBX 17 18 1 0
BITMAP
700700
380F00
3C0E00
1E1C00
0F3C00
077800
07F000
03E000
01E000
03F000
07F000
073800
0E3C00
1E1E00
3C0E00
380F00
700780
F00380
ENDCHAR
STARTCHAR 0079
ENCODING 121
SWIDTH 488 0
DWIDTH 19 0
BBX 16 25 2 -7
BITMAP
E00F
F00F
700E
700E
781E
381C
381C
3C1C
1C3C
1C38
1E38
0E78
0F70
0770
07E0
03E0
03E0
01C0
01C0
0380
0380
0F00
FE00
FC00
4000
ENDCHAR
STARTCHAR 007A
ENCODING 122
SWIDTH 488 0
DWIDTH 19 0
BBX 14 18 3 0
BITMAP
FFF8
FFF8
FFF8
00F0
00F0
01E0
03C0
0780
0700
0F00
1E00
1C00
3800
7800
7000
FFFC
FFFC
FFFC
ENDCHAR
STARTCHAR 007B
ENCODING 123
SWIDTH 488 0
DWIDTH 19 0
BBX 14 33 3 -6
BITMAP
01FC
07FC
0780
0700
0E00
0E00
0E00
0E00
0E00
0E00
0E00
0E00
0E00
0E00
1E00
FC00
F800
FC00
1E00
0E00
0E00
0E00
0E00
0E00
0E00
0E00
0E00
0E00
0E00
0F00
0700
07FC
03FC
ENDCHAR
STARTCHAR 007C
ENCODING 124
SWIDTH 488 0
DWIDTH 19 0
BBX 3 33 8 -6
BITMAP
E0
E0
E0
E0
E0
E0
E0
E0
E0
E0
E0
E0
E0
E0
E0
E0
E0
E0
E0
E0
E0
E0
E0
E0
E0
E0
E0
E0
E0
E0
E0
E0
E0
ENDCHAR
STARTCHAR 007D
ENCODING 125
SWIDTH 488 0
DWIDTH 19 0
BBX 13 33 3 -6
BITMAP
FE00
FF00
0F80
0380
0380
0380
0380
0380
0380
0380
0380
0380
0380
0380
01C0
01F8
00F8
01F8
01C0
03C0
0380
0380
0380
0380
0380
0380
0380
0380
0380
0380
0780
FF00
FE00
ENDCHAR
STARTCHAR 007E
ENCODING 126
SWIDTH 488 0
DWIDTH 19 0
BBX 17 6 1 7
BITMAP
1F0100
3F8380
7FE780
61FF00
E07E00
000800
ENDCHAR
STARTCHAR 00A0
ENCODING 160
SWIDTH 488 0
DWIDTH 19 0
BBX 0 0 0 0
BITMAP
ENDCHAR
STARTCHAR 00A1
ENCODING 161
SWIDTH 488 0
DWIDTH 19 0
BBX 5 24 7 -6
BITMAP
70
F8
F8
F8
78
00
00
00
00
70
70
70
70
70
70
70
70
70
70
70
70
70
70
70
ENDCHAR
STARTCHAR 00A2
ENCODING 162
SWIDTH 488 0
DWIDTH 19 0
BBX 15 28 2 -4
BITMAP
00E0
00E0
00E0
00E0
00E0
07FE
1FFE
3FFE
7C00
7800
F000
F000
E000
E000
E000
E000
F000
F000
7800
3E00
3FFE
0FFE
03FC
00E0
00E0
00E0
00E0
00E0
ENDCHAR
STARTCHAR 00A3
ENCODING 163
SWIDTH 488 0
DWIDTH 19 0
BBX 16 25 2 0
BITMAP
0020
03FE
07FE
0F8C
0E00
1E00
1C00
1C00
1C00
1C00
1C00
1C00
FFF8
FFF8
FFF8
1C00
1C00
1C00
1C00
1C00
1C00
3C00
3FFF
3FFF
3FFF
ENDCHAR
STARTCHAR 00A4
ENCODING 164
SWIDTH 488 0
DWIDTH 19 0
BBX 16 16 2 4
BITMAP
4006
E38F
FFFE
7FFC
383C
701C
700C
700C
700C
700C
701C
383C
7FFC
FFFE
E18F
4006
ENDCHAR
STARTCHAR 00A5
ENCODING 165
SWIDTH 488 0
DWIDTH 19 0
BBX 18 24 1 0
BITMAP
E003C0
F00380
700780
780700
380F00
1C0E00
1C1C00
0E1C00
0F3800
077800
07F000
03E000
3FFF00
3FFF00
01C000
01C000
01C000
01C000
3FFF00
3FFF00
01C000
01C000
01C000
01C000
ENDCHAR
STARTCHAR 00A6
ENCODING 166
SWIDTH 488 0
DWIDTH 19 0
BBX 3 33 8 -6
BITMAP
E0
E0
E0
E0
E0
E0
E0
E0
E0
E0
E0
E0
E0
00
00
00
00
00
00
00
E0
E0
E0
E0
E0
E0
E0
E0
E0
E0
E0
E0
E0
ENDCHAR
STARTCHAR 00A7
ENCODING 167
SWIDTH 488 0
DWIDTH 19 0
BBX 14 29 3 -4
BITMAP
0300
1FF8
3FF8
7810
7000
7000
7000
7800
3F00
3FC0
7FF0
F1F8
E078
E03C
E01C
E01C
F038
7C38
3FF0
0FE0
03F0
00F8
0038
0038
0038
C078
FFF0
FFE0
3F00
ENDCHAR
STARTCHAR 00A8
ENCODING 168
SWIDTH 488 0
DWIDTH 19 0
BBX 11 4 4 21
BITMAP
71E0
F1E0
71E0
20C0
ENDCHAR
STARTCHAR 00A9
ENCODING 169
SWIDTH 488 0
DWIDTH 19 0
BBX 17 18 1 0
BITMAP
07F800
1FFC00
3C0E00
380700
71E300
63E380
67A180
E60180
E60180
E60180
E60180
67A180
63E380
71E300
380700
3C0E00
1FFC00
07F000
ENDCHAR
STARTCHAR 00AA
ENCODING 170
SWIDTH 488 0
DWIDTH 19 0
BBX 10 13 5 12
BITMAP
7F00
7F80
01C0
01C0
00C0
7FC0
FFC0
C0C0
C0C0
C0C0
FFC0
7FC0
0C00
ENDCHAR
STARTCHAR 00AB
ENCODING 171
SWIDTH 488 0
DWIDTH 19 0
BBX 13 14 3 3
BITMAP
0810
1C38
1830
3870
70E0
71E0
E1C0
E1C0
F1E0
70E0
3870
3870
1C38
0810
ENDCHAR
STARTCHAR 00AC
ENCODING 172
SWIDTH 488 0
DWIDTH 19 0
BBX 16 12 2 2
BITMAP
FFFF
FFFF
FFFF
0007
0007
0007
0007
0007
0007
0007
0007
0007
ENDCHAR
STARTCHAR 00AD
ENCODING 173
SWIDTH 488 0
DWIDTH 19 0
BBX 9 3 5 8
BITMAP
FF80
FF80
FF80
ENDCHAR
STARTCHAR 00AE
ENCODING 174
SWIDTH 488 0
DWIDTH 19 0
BBX 17 18 1 0
BITMAP
07F800
1FFC00
3C0E00
380700
77E300
67F380
673180
E73180
E73180
E7F180
E7E180
677180
673380
773B00
380700
3C0E00
1FFC00
07F000
ENDCHAR
STARTCHAR 00AF
ENCODING 175
SWIDTH 488 0
DWIDTH 19 0
BBX 10 3 5 22
BITMAP
FFC0
FFC0
FFC0
ENDCHAR
STARTCHAR 00B0
ENCODING 176
SWIDTH 488 0
DWIDTH 19 0
BBX 10 10 5 17
BITMAP
1E00
7F00
F380
E180
C1C0
C1C0
E180
7F80
7F00
0C00
ENDCHAR
STARTCHAR 00B1
ENCODING 177
SWIDTH 488 0
DWIDTH 19 0
BBX 16 22 2 0
BITMAP
0380
0380
0380
0380
0380
0380
0380
FFFF
FFFF
FFFF
0380
0380
0380
0380
0380
0380
0380
0000
0000
FFFF
FFFF
FFFF
ENDCHAR
STARTCHAR 00B2
ENCODING 178
SWIDTH 488 0
DWIDTH 19 0
BBX 10 14 5 11
BITMAP
1800
7F00
FF80
4380
0380
0380
0700
0E00
1C00
3800
7000
6000
FFC0
FFC0
ENDCHAR
STARTCHAR 00B3
ENCODING 179
SWIDTH 488 0
DWIDTH 19 0
BBX 10 14 5 11
BITMAP
1800
FF00
7F80
0380
0380
0700
1E00
1F00
0380
0180
01C0
8380
FF80
FF00
ENDCHAR
STARTCHAR 00B4
ENCODING 180
SWIDTH 488 0
DWIDTH 19 0
BBX 6 7 7 20
BITMAP
08
1C
3C
78
F0
E0
40
ENDCHAR
STARTCHAR 00B5
ENCODING 181
SWIDTH 488 0
DWIDTH 19 0
BBX 14 24 3 -6
BITMAP
E03C
E03C
E03C
E03C
E03C
E03C
E03C
E03C
E03C
E03C
E03C
E03C
E03C
F03C
F03C
FEFC
FFFC
FFFC
E000
E000
E000
E000
E000
E000
ENDCHAR
STARTCHAR 00B6
ENCODING 182
SWIDTH 488 0
DWIDTH 19 0
BBX 16 30 1 -6
BITMAP
07FF
1FFF
3FC7
7FC3
7FC3
FFC3
FFC3
FFC3
FFC3
FFC3
7FC3
7FC3
3FC3
1FC3
07C3
00C3
00C3
00C3
00C3
00C3
00C3
00C3
00C3
00C3
00C3
00C3
00C3
00C3
00C3
00C3
ENDCHAR
STARTCHAR 00B7
ENCODING 183
SWIDTH 488 0
DWIDTH 19 0
BBX 6 6 7 7
BITMAP
78
F8
FC
FC
F8
70
ENDCHAR
STARTCHAR 00B8
ENCODING 184
SWIDTH 488 0
DWIDTH 19 0
BBX 6 8 6 -7
BITMAP
1C
18
38
3C
0C
FC
FC
20
ENDCHAR
STARTCHAR 00B9
ENCODING 185
SWIDTH 488 0
DWIDTH 19 0
BBX 10 13 5 11
BITMAP
0C00
3C00
FC00
EC00
0C00
0C00
0C00
0C00
0C00
0C00
0C00
FFC0
FFC0
ENDCHAR
STARTCHAR 00BA
ENCODING 186
SWIDTH 488 0
DWIDTH 19 0
BBX 13 14 3 11
BITMAP
0200
1FC0
3FE0
7070
7038
6038
E038
E038
6038
7038
7070
3FE0
1FC0
0200
ENDCHAR
STARTCHAR 00BB
ENCODING 187
SWIDTH 488 0
DWIDTH 19 0
BBX 14 14 3 3
BITMAP
2040
E1C0
70E0
3870
3870
1C38
1E3C
1E3C
1C38
3870
3870
70E0
60C0
2040
ENDCHAR
STARTCHAR 00BC
ENCODING 188
SWIDTH 488 0
DWIDTH 19 0
BBX 18 24 1 0
BITMAP
180380
780380
F80700
D80600
180E00
181C00
181C00
183800
183000
007000
00E000
00C000
01C000
038000
038700
070F00
061B00
0E1B00
1C3300
1C7300
387FC0
307FC0
700300
E00300
ENDCHAR
STARTCHAR 00BD
ENCODING 189
SWIDTH 488 0
DWIDTH 19 0
BBX 18 24 1 0
BITMAP
1C0380
7C0700
FC0700
DC0E00
1C0C00
1C1C00
1C3800
1C3000
1C7000
006000
00E000
01C000
018000
038000
071F00
073F80
0E1180
0C0180
1C0180
380700
380E00
701C00
603FC0
E03FC0
ENDCHAR
STARTCHAR 00BE
ENCODING 190
SWIDTH 488 0
DWIDTH 19 0
BBX 18 25 1 0
BITMAP
380000
FC0180
CE0380
060700
3C0600
3C0E00
0E1C00
061C00
8E3800
FE3000
787000
00E000
00E000
01C000
018000
038700
070F00
061B00
0E1B00
0C3300
1C7300
387FC0
307FC0
700300
E00300
ENDCHAR
STARTCHAR 00BF
ENCODING 191
SWIDTH 488 0
DWIDTH 19 0
BBX 12 25 4 -7
BITMAP
0700
0F80
0F80
0F80
0700
0000
0000
0000
0000
0700
0700
0700
0E00
1C00
3800
7000
F000
E000
E000
E000
E000
F860
7FF0
3FE0
0600
ENDCHAR
STARTCHAR 00C0
ENCODING 192
SWIDTH 488 0
DWIDTH 19 0
BBX 19 32 0 0
BITMAP
008000
01C000
01E000
00F000
007800
003800
000000
000000
00F000
01F000
01F800
03B800
03B800
039C00
071C00
071C00
070E00
0E0E00
0E0E00
0E0700
0C0700
1C0700
1C0780
1FFF80
3FFF80
3FFF80
3803C0
3801C0
7001C0
7001C0
7001E0
F000E0
ENDCHAR
STARTCHAR 00C1
ENCODING 193
SWIDTH 488 0
DWIDTH 19 0
BBX 19 32 0 0
BITMAP
003000
007800
007000
00E000
01C000
018000
000000
000000
00F000
01F000
01F800
03B800
03B800
039C00
071C00
071C00
070E00
0E0E00
0E0E00
0E0700
0C0700
1C0700
1C0780
1FFF80
3FFF80
3FFF80
3803C0
3801C0
7001C0
7001C0
7001E0
F000E0
ENDCHAR
STARTCHAR 00C2
ENCODING 194
SWIDTH 488 0
DWIDTH 19 0
BBX 19 32 0 0
BITMAP
004000
00E000
01F000
03F800
071C00
020C00
000000
000000
00F000
01F000
01F800
03B800
03B800
039C00
071C00
071C00
070E00
0E0E00
0E0E00
0E0700
0C0700
1C0700
1C0780
1FFF80
3FFF80
3FFF80
3803C0
3801C0
7001C0
7001C0
7001E0
F000E0
ENDCHAR
STARTCHAR 00C3
ENCODING 195
SWIDTH 488 0
DWIDTH 19 0
BBX 19 31 0 0
BITMAP
018400
07EE00
07FC00
063800
000000
000000
000000
00F000
01F000
01F800
03B800
03B800
039C00
071C00
071C00
070E00
0E0E00
0E0E00
0E0700
0C0700
1C0700
1C0780
1FFF80
3FFF80
3FFF80
3803C0
3801C0
7001C0
7001C0
7001E0
F000E0
ENDCHAR
STARTCHAR 00C4
ENCODING 196
SWIDTH 488 0
DWIDTH 19 0
BBX 19 31 0 0
BITMAP
070C00
0F1E00
0F1E00
071E00
000000
000000
000000
00F000
01F000
01F800
03B800
03B800
039C00
071C00
071C00
070E00
0E0E00
0E0E00
0E0700
0C0700
1C0700
1C0780
1FFF80
3FFF80
3FFF80
3803C0
3801C0
7001C0
7001C0
7001E0
F000E0
ENDCHAR
STARTCHAR 00C5
ENCODING 197
SWIDTH 488 0
DWIDTH 19 0
BBX 19 29 0 0
BITMAP
00F000
01F800
031800
030800
031800
01F800
01F000
01F800
01B800
03B800
039C00
071C00
071C00
070E00
0E0E00
0E0E00
0E0700
0C0700
1C0700
1C0780
1FFF80
3FFF80
3FFF80
3803C0
3801C0
7001C0
7001C0
7001E0
F000E0
ENDCHAR
STARTCHAR 00C6
ENCODING 198
SWIDTH 488 0
DWIDTH 19 0
BBX 18 24 1 0
BITMAP
01FF80
01FF80
01FF80
03F000
037000
077000
077000
077000
0E7000
0E7000
0E7F00
0C7F00
1C7F00
1C7000
1C7000
3FF000
3FF000
3FF000
707000
707000
707000
707FC0
F07FC0
E07FC0
ENDCHAR
STARTCHAR 00C7
ENCODING 199
SWIDTH 488 0
DWIDTH 19 0
BBX 16 32 2 -7
BITMAP
0060
07FE
0FFF
1F0E
3C02
7800
7800
7000
F000
E000
E000
E000
E000
E000
E000
E000
E000
F000
7000
7000
7800
3C00
1F9E
0FFF
07FE
00E0
00E0
00F0
0070
03F0
03F0
0080
ENDCHAR
STARTCHAR 00C8
ENCODING 200
SWIDTH 488 0
DWIDTH 19 0
BBX 14 32 4 0
BITMAP
0C00
1C00
0E00
0700
0380
0180
0000
0000
FFF8
FFF8
FFF8
E000
E000
E000
E000
E000
E000
E000
FFF0
FFF0
FFF0
E000
E000
E000
E000
E000
E000
E000
E000
FFFC
FFFC
FFFC
ENDCHAR
STARTCHAR 00C9
ENCODING 201
SWIDTH 488 0
DWIDTH 19 0
BBX 14 32 4 0
BITMAP
0180
01C0
0380
0700
0E00
0C00
0000
0000
FFF8
FFF8
FFF8
E000
E000
E000
E000
E000
E000
E000
FFF0
FFF0
FFF0
E000
E000
E000
E000
E000
E000
E000
E000
FFFC
FFFC
FFFC
ENDCHAR
STARTCHAR 00CA
ENCODING 202
SWIDTH 488 0
DWIDTH 19 0
BBX 14 32 4 0
BITMAP
0200
0700
0F80
1DC0
38E0
3060
0000
0000
FFF8
FFF8
FFF8
E000
E000
E000
E000
E000
E000
E000
FFF0
FFF0
FFF0
E000
E000
E000
E000
E000
E000
E000
E000
FFFC
FFFC
FFFC
ENDCHAR
STARTCHAR 00CB
ENCODING 203
SWIDTH 488 0
DWIDTH 19 0
BBX 14 31 4 0
BITMAP
3060
78F0
78F0
38E0
0000
0000
0000
FFF8
FFF8
FFF8
E000
E000
E000
E000
E000
E000
E000
FFF0
FFF0
FFF0
E000
E000
E000
E000
E000
E000
E000
E000
FFFC
FFFC
FFFC
ENDCHAR
STARTCHAR 00CC
ENCODING 204
SWIDTH 488 0
DWIDTH 19 0
BBX 13 32 3 0
BITMAP
0400
0E00
0F00
0780
03C0
01C0
0000
0000
FFF8
FFF8
FFF8
0700
0700
0700
0700
0700
0700
0700
0700
0700
0700
0700
0700
0700
0700
0700
0700
0700
0700
FFF8
FFF8
FFF8
ENDCHAR
STARTCHAR 00CD
ENCODING 205
SWIDTH 488 0
DWIDTH 19 0
BBX 13 32 3 0
BITMAP
0080
01C0
03C0
0780
0F00
0E00
0000
0000
FFF8
FFF8
FFF8
0700
0700
0700
0700
0700
0700
0700
0700
0700
0700
0700
0700
0700
0700
0700
0700
0700
0700
FFF8
FFF8
FFF8
ENDCHAR
STARTCHAR 00CE
ENCODING 206
SWIDTH 488 0
DWIDTH 19 0
BBX 13 32 3 0
BITMAP
0200
0700
0F80
1FC0
38E0
1060
0000
0000
FFF8
FFF8
FFF8
0700
0700
0700
0700
0700
0700
0700
0700
0700
0700
0700
0700
0700
0700
0700
0700
0700
0700
FFF8
FFF8
FFF8
ENDCHAR
STARTCHAR 00CF
ENCODING 207
SWIDTH 488 0
DWIDTH 19 0
BBX 13 31 3 0
BITMAP
3860
78F0
78F0
38F0
0000
0000
0000
FFF8
FFF8
FFF8
0700
0700
0700
0700
0700
0700
0700
0700
0700
0700
0700
0700
0700
0700
0700
0700
0700
0700
FFF8
FFF8
FFF8
ENDCHAR
STARTCHAR 00D0
ENCODING 208
SWIDTH 488 0
DWIDTH 19 0
BBX 17 24 1 0
BITMAP
3FE000
3FF800
3DFC00
383E00
380E00
380F00
380700
380700
380780
380780
FF8380
FF8380
FF8380
380380
380780
380780
380700
380700
380F00
380E00
383E00
3FFC00
3FF800
3FE000
ENDCHAR
STARTCHAR 00D1
ENCODING 209
SWIDTH 488 0
DWIDTH 19 0
BBX 15 31 2 0
BITMAP
0610
1FB8
1FF0
18E0
0000
0000
0000
F00E
F00E
F80E
F80E
FC0E
FC0E
EE0E
EE0E
E70E
E70E
E38E
E38E
E1CE
E1CE
E0EE
E0EE
E07E
E07E
E03E
E03E
E01E
E01E
E01E
E00E
ENDCHAR
STARTCHAR 00D2
ENCODING 210
SWIDTH 488 0
DWIDTH 19 0
BBX 17 33 1 -1
BITMAP
010000
038000
03C000
01E000
00F000
007000
000000
00C000
07F800
1FFC00
3E3E00
3C0F00
780700
700700
700780
F00380
F00380
E00380
E00380
E00380
E00380
E00380
E00380
F00380
700380
700780
700700
780700
3C0F00
1E3E00
1FFC00
07F800
008000
ENDCHAR
STARTCHAR 00D3
ENCODING 211
SWIDTH 488 0
DWIDTH 19 0
BBX 17 33 1 -1
BITMAP
002000
007000
00F000
01E000
03C000
038000
000000
00C000
07F800
1FFC00
3E3E00
3C0F00
780700
700700
700780
F00380
F00380
E00380
E00380
E00380
E00380
E00380
E00380
F00380
700380
700780
700700
780700
3C0F00
1E3E00
1FFC00
07F800
008000
ENDCHAR
STARTCHAR 00D4
ENCODING 212
SWIDTH 488 0
DWIDTH 19 0
BBX 17 33 1 -1
BITMAP
008000
01C000
03E000
07F000
0E3800
041800
000000
00C000
07F800
1FFC00
3E3E00
3C0F00
780700
700700
700780
F00380
F00380
E00380
E00380
E00380
E00380
E00380
E00380
F00380
700380
700780
700700
780700
3C0F00
1E3E00
1FFC00
07F800
008000
ENDCHAR
STARTCHAR 00D5
ENCODING 213
SWIDTH 488 0
DWIDTH 19 0
BBX 17 32 1 -1
BITMAP
030800
0FDC00
0FF800
0C7000
000000
000000
00C000
07F800
1FFC00
3E3E00
3C0F00
780700
700700
700780
F00380
F00380
E00380
E00380
E00380
E00380
E00380
E00380
F00380
700380
700780
700700
780700
3C0F00
1E3E00
1FFC00
07F800
008000
ENDCHAR
STARTCHAR 00D6
ENCODING 214
SWIDTH 488 0
DWIDTH 19 0
BBX 17 32 1 -1
BITMAP
0E1800
1E3C00
1E3C00
0E3C00
000000
000000
00C000
07F800
1FFC00
3E3E00
3C0F00
780700
700700
700780
F00380
F00380
E00380
E00380
E00380
E00380
E00380
E00380
F00380
700380
700780
700700
780700
3C0F00
1E3E00
1FFC00
07F800
008000
ENDCHAR
STARTCHAR 00D7
ENCODING 215
SWIDTH 488 0
DWIDTH 19 0
BBX 14 14 3 3
BITMAP
4018
E03C
F078
78F0
3DE0
1FC0
0780
0F80
1FC0
3DE0
78F0
F078
E038
4010
ENDCHAR
STARTCHAR 00D8
ENCODING 216
SWIDTH 488 0
DWIDTH 19 0
BBX 17 26 1 -1
BITMAP
00C600
07FF00
1FFE00
3E1E00
3C1F00
781F00
703F00
703F80
F07380
F07380
E0E380
E0E380
E1C380
E1C380
E38380
E38380
F70380
F70380
7E0780
7E0700
7C0700
3C0F00
3E3E00
3FFC00
37F800
308000
ENDCHAR
STARTCHAR 00D9
ENCODING 217
SWIDTH 488 0
DWIDTH 19 0
BBX 16 33 2 -1
BITMAP
0200
0700
0780
03C0
01C0
00C0
0000
0000
E00F
E00F
E00F
E00F
E00F
E00F
E00F
E00F
E00F
E00F
E00F
E00F
E00F
E00F
E00F
E00F
E00F
E00E
E00E
F00E
701E
7C7C
3FF8
1FF0
0100
ENDCHAR
STARTCHAR 00DA
ENCODING 218
SWIDTH 488 0
DWIDTH 19 0
BBX 16 33 2 -1
BITMAP
0040
00E0
01E0
03C0
0780
0700
0000
0000
E00F
E00F
E00F
E00F
E00F
E00F
E00F
E00F
E00F
E00F
E00F
E00F
E00F
E00F
E00F
E00F
E00F
E00E
E00E
F00E
701E
7C7C
3FF8
1FF0
0100
ENDCHAR
STARTCHAR 00DB
ENCODING 219
SWIDTH 488 0
DWIDTH 19 0
BBX 16 33 2 -1
BITMAP
0100
0380
07C0
0FE0
1C70
0830
0000
0000
E00F
E00F
E00F
E00F
E00F
E00F
E00F
E00F
E00F
E00F
E00F
E00F
E00F
E00F
E00F
E00F
E00F
E00E
E00E
F00E
701E
7C7C
3FF8
1FF0
0100
ENDCHAR
STARTCHAR 00DC
ENCODING 220
SWIDTH 488 0
DWIDTH 19 0
BBX 16 32 2 -1
BITMAP
1C30
3C78
3C78
1C78
0000
0000
0000
E00F
E00F
E00F
E00F
E00F
E00F
E00F
E00F
E00F
E00F
E00F
E00F
E00F
E00F
E00F
E00F
E00F
E00E
E00E
F00E
701E
7C7C
3FF8
1FF0
0100
ENDCHAR
STARTCHAR 00DD
ENCODING 221
SWIDTH 488 0
DWIDTH 19 0
BBX 18 32 1 0
BITMAP
002000
007000
00F000
01E000
03C000
038000
000000
000000
E003C0
F00380
F00780
700700
780700
380F00
3C0E00
1C1E00
1E1C00
0E3800
0F3800
077000
03F000
03E000
01E000
01C000
01C000
01C000
01C000
01C000
01C000
01C000
01C000
01C000
ENDCHAR
STARTCHAR 00DE
ENCODING 222
SWIDTH 488 0
DWIDTH 19 0
BBX 15 24 3 0
BITMAP
E000
E000
E000
E000
FFC0
FFF0
FFF8
E03C
E01C
E01E
E01E
E01E
E01E
E01C
E03C
E07C
FFF8
FFF0
FFC0
E000
E000
E000
E000
E000
ENDCHAR
STARTCHAR 00DF
ENCODING 223
SWIDTH 488 0
DWIDTH 19 0
BBX 16 27 3 0
BITMAP
0F80
3FE0
7FF0
78F0
F070
E078
E070
E070
E0F0
E1E0
E3C0
E380
E780
E780
E780
E3E0
E1F8
E0FC
E03E
E01E
E00E
E00F
E00E
E00E
E73E
E7FC
E7F8
ENDCHAR
STARTCHAR 00E0
ENCODING 224
SWIDTH 488 0
DWIDTH 19 0
BBX 15 27 2 0
BITMAP
0200
0700
0700
0380
01C0
00E0
0040
0000
0000
3FF0
3FF8
307C
001C
001E
000E
000E
0FFE
3FFE
7FFE
780E
F00E
F00E
F00E
F00E
7C1E
3FFE
1FFE
ENDCHAR
STARTCHAR 00E1
ENCODING 225
SWIDTH 488 0
DWIDTH 19 0
BBX 15 27 2 0
BITMAP
0040
0060
00E0
01C0
0380
0700
0000
0000
0000
3FF0
3FF8
307C
001C
001E
000E
000E
0FFE
3FFE
7FFE
780E
F00E
F00E
F00E
F00E
7C1E
3FFE
1FFE
ENDCHAR
STARTCHAR 00E2
ENCODING 226
SWIDTH 488 0
DWIDTH 19 0
BBX 15 26 2 1
BITMAP
0180
03C0
07E0
0E70
0C38
0810
0000
0000
3FF0
3FF8
307C
001C
001E
000E
000E
0FFE
3FFE
7FFE
780E
F00E
F00E
F00E
F00E
7C1E
3FFE
1FFE
ENDCHAR
STARTCHAR 00E3
ENCODING 227
SWIDTH 488 0
DWIDTH 19 0
BBX 15 26 2 0
BITMAP
0010
0F18
1FF8
39F0
0000
0000
0000
0000
3FF0
3FF8
307C
001C
001E
000E
000E
0FFE
3FFE
7FFE
780E
F00E
F00E
F00E
F00E
7C1E
3FFE
1FFE
ENDCHAR
STARTCHAR 00E4
ENCODING 228
SWIDTH 488 0
DWIDTH 19 0
BBX 15 25 2 0
BITMAP
1C78
3C78
1C78
0830
0000
0000
0000
3FF0
3FF8
307C
001C
001E
000E
000E
0FFE
3FFE
7FFE
780E
F00E
F00E
F00E
F00E
7C1E
3FFE
1FFE
ENDCHAR
STARTCHAR 00E5
ENCODING 229
SWIDTH 488 0
DWIDTH 19 0
BBX 15 27 2 0
BITMAP
03C0
07E0
0C60
0C20
0C60
07E0
03C0
0000
0000
3FF0
3FF8
307C
001C
001E
000E
000E
0FFE
3FFE
7FFE
780E
F00E
F00E
F00E
F00E
7C1E
3FFE
1FFE
ENDCHAR
STARTCHAR 00E6
ENCODING 230
SWIDTH 488 0
DWIDTH 19 0
BBX 18 18 1 0
BITMAP
7F3E00
3FBF00
23F780
01E380
01E380
01E180
01C180
1FFFC0
3FFFC0
7FFFC0
71C000
E1C000
E0E000
E0E000
F0F000
7BFF80
7FFF80
3F9F80
ENDCHAR
STARTCHAR 00E7
ENCODING 231
SWIDTH 488 0
DWIDTH 19 0
BBX 16 25 2 -7
BITMAP
07FE
1FFE
3F8E
7C00
7800
F000
F000
E000
E000
E000
E000
F000
F000
7800
7C00
3FDE
1FFE
07FF
00C0
01C0
01E0
00E0
07E0
07E0
0100
ENDCHAR
STARTCHAR 00E8
ENCODING 232
SWIDTH 488 0
DWIDTH 19 0
BBX 16 27 2 0
BITMAP
0200
0700
0700
0380
01C0
00E0
0040
0000
0000
0FF0
1FF8
3E7C
781E
F00E
E00E
E00F
FFFF
FFFF
FFFF
E000
E000
E000
F000
7800
3FBC
1FFC
0FFC
ENDCHAR
STARTCHAR 00E9
ENCODING 233
SWIDTH 488 0
DWIDTH 19 0
BBX 16 27 2 0
BITMAP
0040
0060
00E0
01C0
0380
0700
0000
0000
0000
0FF0
1FF8
3E7C
781E
F00E
E00E
E00F
FFFF
FFFF
FFFF
E000
E000
E000
F000
7800
3FBC
1FFC
0FFC
ENDCHAR
STARTCHAR 00EA
ENCODING 234
SWIDTH 488 0
DWIDTH 19 0
BBX 16 26 2 1
BITMAP
0180
03C0
07E0
0E70
0C38
0010
0000
0000
0FF0
1FF8
3E7C
781E
F00E
E00E
E00F
FFFF
FFFF
FFFF
E000
E000
E000
F000
7800
3FBC
1FFC
0FFC
ENDCHAR
STARTCHAR 00EB
ENCODING 235
SWIDTH 488 0
DWIDTH 19 0
BBX 16 25 2 0
BITMAP
1E38
1E7C
1E38
0810
0000
0000
0000
0FF0
1FF8
3E7C
781E
F00E
E00E
E00F
FFFF
FFFF
FFFF
E000
E000
E000
F000
7800
3FBC
1FFC
0FFC
ENDCHAR
STARTCHAR 00EC
ENCODING 236
SWIDTH 488 0
DWIDTH 19 0
BBX 15 26 2 1
BITMAP
0C00
1E00
0F00
0780
0380
0100
0000
0000
FF80
FF80
FF80
0780
0780
0780
0780
0780
0780
0780
0780
0780
0780
0780
0380
03EE
03FE
01FE
ENDCHAR
STARTCHAR 00ED
ENCODING 237
SWIDTH 488 0
DWIDTH 19 0
BBX 15 26 2 1
BITMAP
01C0
03C0
0780
0F00
0E00
0400
0000
0000
FF80
FF80
FF80
0780
0780
0780
0780
0780
0780
0780
0780
0780
0780
0780
0380
03EE
03FE
01FE
ENDCHAR
STARTCHAR 00EE
ENCODING 238
SWIDTH 488 0
DWIDTH 19 0
BBX 15 27 2 0
BITMAP
0200
0700
0F00
1F80
3DC0
30E0
0040
0000
0000
FF80
FF80
FF80
0780
0780
0780
0780
0780
0780
0780
0780
0780
0780
0780
0380
03EE
03FE
01FE
ENDCHAR
STARTCHAR 00EF
ENCODING 239
SWIDTH 488 0
DWIDTH 19 0
BBX 15 25 2 0
BITMAP
78E0
78F0
78E0
3040
0000
0000
0000
FF80
FF80
FF80
0780
0780
0780
0780
0780
0780
0780
0780
0780
0780
0780
0380
03EE
03FE
01FE
ENDCHAR
STARTCHAR 00F0
ENCODING 240
SWIDTH 488 0
DWIDTH 19 0
BBX 16 27 2 0
BITMAP
0100
0380
03C2
01FF
00FE
07F0
07F8
0438
003C
001C
0FDC
1FFC
3FFE
783E
701E
F00E
F00E
E00E
E00E
E01E
E01C
F01C
701C
7838
3CF8
1FF0
0FE0
ENDCHAR
STARTCHAR 00F1
ENCODING 241
SWIDTH 488 0
DWIDTH 19 0
BBX 14 26 3 0
BITMAP
0020
1E30
3FF0
73E0
0000
0000
0000
0000
FFE0
FFF0
F9F8
E078
E038
E03C
E01C
E01C
E01C
E01C
E01C
E01C
E01C
E01C
E01C
E01C
E01C
E01C
ENDCHAR
STARTCHAR 00F2
ENCODING 242
SWIDTH 488 0
DWIDTH 19 0
BBX 16 27 2 0
BITMAP
0200
0700
0780
03C0
01C0
00E0
0040
0000
0000
0FF0
3FF8
3EFC
781E
F01E
E00E
E00F
E00F
E007
E007
E00F
E00F
E00E
F01E
781E
3EFC
3FF8
0FF0
ENDCHAR
STARTCHAR 00F3
ENCODING 243
SWIDTH 488 0
DWIDTH 19 0
BBX 16 27 2 0
BITMAP
0040
00E0
01E0
01C0
0380
0700
0200
0000
0000
0FF0
3FF8
3EFC
781E
F01E
E00E
E00F
E00F
E007
E007
E00F
E00F
E00E
F01E
781E
3EFC
3FF8
0FF0
ENDCHAR
STARTCHAR 00F4
ENCODING 244
SWIDTH 488 0
DWIDTH 19 0
BBX 16 27 2 0
BITMAP
0100
0180
03C0
07E0
0E70
1C30
0800
0000
0000
0FF0
3FF8
3EFC
781E
F01E
E00E
E00F
E00F
E007
E007
E00F
E00F
E00E
F01E
781E
3EFC
3FF8
0FF0
ENDCHAR
STARTCHAR 00F5
ENCODING 245
SWIDTH 488 0
DWIDTH 19 0
BBX 16 26 2 0
BITMAP
0010
0F18
1FF8
39F0
0000
0000
0000
0000
0FF0
3FF8
3EFC
781E
F01E
E00E
E00F
E00F
E007
E007
E00F
E00F
E00E
F01E
781E
3EFC
3FF8
0FF0
ENDCHAR
STARTCHAR 00F6
ENCODING 246
SWIDTH 488 0
DWIDTH 19 0
BBX 16 25 2 0
BITMAP
1C78
3C78
1C78
0830
0000
0000
0000
0FF0
3FF8
3EFC
781E
F01E
E00E
E00F
E00F
E007
E007
E00F
E00F
E00E
F01E
781E
3EFC
3FF8
0FF0
ENDCHAR
STARTCHAR 00F7
ENCODING 247
SWIDTH 488 0
DWIDTH 19 0
BBX 16 18 2 1
BITMAP
0380
03C0
07C0
03C0
0180
0000
0000
FFFF
FFFF
FFFF
0000
0000
0000
0380
07C0
07C0
03C0
0100
ENDCHAR
STARTCHAR 00F8
ENCODING 248
SWIDTH 488 0
DWIDTH 19 0
BBX 16 20 2 -1
BITMAP
0006
0FF6
3FFE
3E7C
783E
F03E
E07E
E0EF
E1CF
E1C7
E387
E70F
EE0F
EE0E
FC1E
781E
7EFC
7FF8
EFF0
4000
ENDCHAR
STARTCHAR 00F9
ENCODING 249
SWIDTH 488 0
DWIDTH 19 0
BBX 14 27 3 0
BITMAP
0400
0E00
0E00
0700
0380
01C0
0080
0000
0000
E03C
E03C
E03C
E03C
E03C
E03C
E03C
E03C
E03C
E03C
E03C
E03C
E03C
E03C
F03C
7EFC
3FFC
1FFC
ENDCHAR
STARTCHAR 00FA
ENCODING 250
SWIDTH 488 0
DWIDTH 19 0
BBX 14 27 3 0
BITMAP
0080
01C0
03C0
0380
0700
0E00
0400
0000
0000
E03C
E03C
E03C
E03C
E03C
E03C
E03C
E03C
E03C
E03C
E03C
E03C
E03C
E03C
F03C
7EFC
3FFC
1FFC
ENDCHAR
STARTCHAR 00FB
ENCODING 251
SWIDTH 488 0
DWIDTH 19 0
BBX 14 27 3 0
BITMAP
0200
0300
0780
0FC0
1CE0
3860
1000
0000
0000
E03C
E03C
E03C
E03C
E03C
E03C
E03C
E03C
E03C
E03C
E03C
E03C
E03C
E03C
F03C
7EFC
3FFC
1FFC
ENDCHAR
STARTCHAR 00FC
ENCODING 252
SWIDTH 488 0
DWIDTH 19 0
BBX 14 25 3 0
BITMAP
38F0
78F0
38F0
1060
0000
0000
0000
E03C
E03C
E03C
E03C
E03C
E03C
E03C
E03C
E03C
E03C
E03C
E03C
E03C
E03C
F03C
7EFC
3FFC
1FFC
ENDCHAR
STARTCHAR 00FD
ENCODING 253
SWIDTH 488 0
DWIDTH 19 0
BBX 16 34 2 -7
BITMAP
0040
00E0
00E0
01C0
0380
0700
0200
0000
0000
E00F
F00F
700E
700E
781E
381C
381C
3C1C
1C3C
1C38
1E38
0E78
0F70
0770
07E0
03E0
03E0
01C0
01C0
0380
0380
0F00
FE00
FC00
4000
ENDCHAR
STARTCHAR 00FE
ENCODING 254
SWIDTH 488 0
DWIDTH 19 0
BBX 15 33 3 -6
BITMAP
E000
E000
E000
E000
E000
E000
E000
E000
E000
FFE0
FFF0
FDF8
E03C
E01C
E01C
E01E
E01E
E00E
E00E
E01E
E01E
E01C
E01C
E03C
FFF8
FFF0
FFE0
E000
E000
E000
E000
E000
E000
ENDCHAR
STARTCHAR 00FF
ENCODING 255
SWIDTH 488 0
DWIDTH 19 0
BBX 16 32 2 -7
BITMAP
1E38
1E3C
1E38
0C10
0000
0000
0000
E00F
F00F
700E
700E
781E
381C
381C
3C1C
1C3C
1C38
1E38
0E78
0F70
0770
07E0
03E0
03E0
01C0
01C0
0380
0380
0F00
FE00
FC00
4000
ENDCHAR
STARTCHAR 0100
ENCODING 256
SWIDTH 488 0
DWIDTH 19 0
BBX 19 30 0 0
BITMAP
07FE00
07FE00
000000
000000
000000
000000
00F000
01F000
01F800
03B800
03B800
039C00
071C00
071C00
070E00
0E0E00
0E0E00
0E0700
0C0700
1C0700
1C0780
1FFF80
3FFF80
3FFF80
3803C0
3801C0
7001C0
7001C0
7001E0
F000E0
ENDCHAR
STARTCHAR 0101
ENCODING 257
SWIDTH 488 0
DWIDTH 19 0
BBX 15 25 2 0
BITMAP
1FF8
1FF8
1FF8
0000
0000
0000
0000
3FF0
3FF8
307C
001C
001E
000E
000E
0FFE
3FFE
7FFE
780E
F00E
F00E
F00E
F00E
7C1E
3FFE
1FFE
ENDCHAR
STARTCHAR 0102
ENCODING 258
SWIDTH 488 0
DWIDTH 19 0
BBX 19 31 0 0
BITMAP
060C00
071C00
03FC00
01F800
000000
000000
000000
00F000
01F000
01F800
03B800
03B800
039C00
071C00
071C00
070E00
0E0E00
0E0E00
0E0700
0C0700
1C0700
1C0780
1FFF80
3FFF80
3FFF80
3803C0
3801C0
7001C0
7001C0
7001E0
F000E0
ENDCHAR
STARTCHAR 0103
ENCODING 259
SWIDTH 488 0
DWIDTH 19 0
BBX 15 26 2 0
BITMAP
1830
1C30
0FF0
0FE0
0380
0000
0000
0000
3FF0
3FF8
307C
001C
001E
000E
000E
0FFE
3FFE
7FFE
780E
F00E
F00E
F00E
F00E
7C1E
3FFE
1FFE
ENDCHAR
STARTCHAR 0104
ENCODING 260
SWIDTH 488 0
DWIDTH 19 0
BBX 19 31 0 -7
BITMAP
00F000
01F000
01F800
03B800
03B800
039C00
071C00
071C00
070E00
0E0E00
0E0E00
0E0700
0C0700
1C0700
1C0780
1FFF80
3FFF80
3FFF80
3803C0
3801C0
7001C0
7001C0
7001E0
F000E0
0001C0
000380
000300
000700
0007E0
0003E0
000080
ENDCHAR
STARTCHAR 0105
ENCODING 261
SWIDTH 488 0
DWIDTH 19 0
BBX 15 25 2 -7
BITMAP
3FF0
3FF8
307C
001C
001E
000E
000E
0FFE
3FFE
7FFE
780E
F00E
F00E
F00E
F00E
7C1E
3FFE
1FFE
001C
0038
0070
0070
007E
007E
0008
ENDCHAR
STARTCHAR 0106
ENCODING 262
SWIDTH 488 0
DWIDTH 19 0
BBX 16 33 2 -1
BITMAP
0030
0038
0078
00E0
01C0
0180
0000
0060
07FE
0FFF
1F0E
3C02
7800
7800
7000
F000
E000
E000
E000
E000
E000
E000
E000
E000
F000
7000
7000
7800
3C00
1F9E
0FFF
07FE
0040
ENDCHAR
STARTCHAR 0107
ENCODING 263
SWIDTH 488 0
DWIDTH 19 0
BBX 16 27 2 0
BITMAP
0020
0030
0070
00E0
01C0
0380
0000
0000
0000
07FE
1FFE
3F8E
7C00
7800
F000
F000
E000
E000
E000
E000
F000
F000
7800
7C00
3FDE
1FFE
07FF
ENDCHAR
STARTCHAR 0108
ENCODING 264
SWIDTH 488 0
DWIDTH 19 0
BBX 16 33 2 -1
BITMAP
0040
00E0
01F0
03F8
079C
020C
0000
0060
07FE
0FFF
1F0E
3C02
7800
7800
7000
F000
E000
E000
E000
E000
E000
E000
E000
E000
F000
7000
7000
7800
3C00
1F9E
0FFF
07FE
0040
ENDCHAR
STARTCHAR 0109
ENCODING 265
SWIDTH 488 0
DWIDTH 19 0
BBX 16 27 2 0
BITMAP
0040
00E0
00F0
01F8
03BC
070C
0200
0000
0000
07FE
1FFE
3F8E
7C00
7800
F000
F000
E000
E000
E000
E000
F000
F000
7800
7C00
3FDE
1FFE
07FF
ENDCHAR
STARTCHAR 010A
ENCODING 266
SWIDTH 488 0
DWIDTH 19 0
BBX 16 32 2 -1
BITMAP
00F0
00F0
01F0
00F0
0040
0000
0060
07FE
0FFF
1F0E
3C02
7800
7800
7000
F000
E000
E000
E000
E000
E000
E000
E000
E000
F000
7000
7000
7800
3C00
1F9E
0FFF
07FE
0040
ENDCHAR
STARTCHAR 010B
ENCODING 267
SWIDTH 488 0
DWIDTH 19 0
BBX 16 26 2 0
BITMAP
0060
00F0
01F0
00F0
00E0
0000
0000
0000
07FE
1FFE
3F8E
7C00
7800
F000
F000
E000
E000
E000
E000
F000
F000
7800
7C00
3FDE
1FFE
07FF
ENDCHAR
STARTCHAR 010C
ENCODING 268
SWIDTH 488 0
DWIDTH 19 0
BBX 16 33 2 -1
BITMAP
020C
071C
03B8
01F0
00E0
0060
0000
0060
07FE
0FFF
1F0E
3C02
7800
7800
7000
F000
E000
E000
E000
E000
E000
E000
E000
E000
F000
7000
7000
7800
3C00
1F9E
0FFF
07FE
0040
ENDCHAR
STARTCHAR 010D
ENCODING 269
SWIDTH 488 0
DWIDTH 19 0
BBX 16 27 2 0
BITMAP
0200
070C
03BC
01F8
00F0
0060
0000
0000
0000
07FE
1FFE
3F8E
7C00
7800
F000
F000
E000
E000
E000
E000
F000
F000
7800
7C00
3FDE
1FFE
07FF
ENDCHAR
STARTCHAR 010E
ENCODING 270
SWIDTH 488 0
DWIDTH 19 0
BBX 16 32 2 0
BITMAP
3040
38E0
1DC0
0F80
0700
0200
0000
0000
FFC0
FFF0
F3F8
E07C
E03C
E01E
E00E
E00E
E00F
E00F
E007
E007
E007
E007
E00F
E00F
E00E
E00E
E01E
E03C
E07C
FFF8
FFE0
FF80
ENDCHAR
STARTCHAR 010F
ENCODING 271
SWIDTH 488 0
DWIDTH 19 0
BBX 18 27 1 0
BITMAP
0039C0
0039C0
0039C0
0039C0
0039C0
0039C0
0039C0
0039C0
003800
1FF800
3FF800
7DF800
703800
F03800
E03800
E03800
E03800
E03800
E03800
E03800
E03800
F03800
703800
783800
3EF800
3FF800
0FF800
ENDCHAR
STARTCHAR 0110
ENCODING 272
SWIDTH 488 0
DWIDTH 19 0
BBX 17 24 1 0
BITMAP
3FE000
3FF800
3DFC00
383E00
380E00
380F00
380700
380700
380780
380780
FF8380
FF8380
FF8380
380380
380780
380780
380700
380700
380F00
380E00
383E00
3FFC00
3FF800
3FE000
ENDCHAR
STARTCHAR 0111
ENCODING 273
SWIDTH 488 0
DWIDTH 19 0
BBX 17 27 2 0
BITMAP
001C00
001C00
001C00
0FFF80
0FFF80
0FFF80
001C00
001C00
001C00
1FFC00
3FFC00
7CFC00
781C00
F01C00
E01C00
E01C00
E01C00
E01C00
E01C00
E01C00
E01C00
E01C00
F01C00
781C00
7F7C00
3FFC00
0FFC00
ENDCHAR
STARTCHAR 0112
ENCODING 274
SWIDTH 488 0
DWIDTH 19 0
BBX 14 30 4 0
BITMAP
7FE0
7FE0
0000
0000
0000
0000
FFF8
FFF8
FFF8
E000
E000
E000
E000
E000
E000
E000
FFF0
FFF0
FFF0
E000
E000
E000
E000
E000
E000
E000
E000
FFFC
FFFC
FFFC
ENDCHAR
STARTCHAR 0113
ENCODING 275
SWIDTH 488 0
DWIDTH 19 0
BBX 16 25 2 0
BITMAP
1FF8
1FF8
1FF8
0000
0000
0000
0000
0FF0
1FF8
3E7C
781E
F00E
E00E
E00F
FFFF
FFFF
FFFF
E000
E000
E000
F000
7800
3FBC
1FFC
0FFC
ENDCHAR
STARTCHAR 0114
ENCODING 276
SWIDTH 488 0
DWIDTH 19 0
BBX 14 31 4 0
BITMAP
3060
38E0
1FC0
0F80
0000
0000
0000
FFF8
FFF8
FFF8
E000
E000
E000
E000
E000
E000
E000
FFF0
FFF0
FFF0
E000
E000
E000
E000
E000
E000
E000
E000
FFFC
FFFC
FFFC
ENDCHAR
STARTCHAR 0115
ENCODING 277
SWIDTH 488 0
DWIDTH 19 0
BBX 16 26 2 0
BITMAP
1C38
0C38
0FF0
07E0
03C0
0000
0000
0000
0FF0
1FF8
3E7C
781E
F00E
E00E
E00F
FFFF
FFFF
FFFF
E000
E000
E000
F000
7800
3FBC
1FFC
0FFC
ENDCHAR
STARTCHAR 0116
ENCODING 278
SWIDTH 488 0
DWIDTH 19 0
BBX 14 31 4 0
BITMAP
0700
0F80
0F80
0780
0200
0000
0000
FFF8
FFF8
FFF8
E000
E000
E000
E000
E000
E000
E000
FFF0
FFF0
FFF0
E000
E000
E000
E000
E000
E000
E000
E000
FFFC
FFFC
FFFC
ENDCHAR
STARTCHAR 0117
ENCODING 279
SWIDTH 488 0
DWIDTH 19 0
BBX 16 26 2 0
BITMAP
0180
03C0
03C0
03C0
0180
0000
0000
0000
0FF0
1FF8
3E7C
781E
F00E
E00E
E00F
FFFF
FFFF
FFFF
E000
E000
E000
F000
7800
3FBC
1FFC
0FFC
ENDCHAR
STARTCHAR 0118
ENCODING 280
SWIDTH 488 0
DWIDTH 19 0
BBX 14 31 4 -7
BITMAP
FFF8
FFF8
FFF8
E000
E000
E000
E000
E000
E000
E000
FFF0
FFF0
FFF0
E000
E000
E000
E000
E000
E000
E000
E000
FFFC
FFFC
FFFC
0038
0070
00E0
00E0
00FC
007C
0010
ENDCHAR
STARTCHAR 0119
ENCODING 281
SWIDTH 488 0
DWIDTH 19 0
BBX 16 25 2 -7
BITMAP
0FF0
1FF8
3E7C
781E
F00E
E00E
E00F
FFFF
FFFF
FFFF
E000
E000
E000
F000
7800
3FBC
1FFC
0FFC
0038
0070
00E0
00E0
00FC
007C
0010
ENDCHAR
STARTCHAR 011A
ENCODING 282
SWIDTH 488 0
DWIDTH 19 0
BBX 14 32 4 0
BITMAP
1060
38E0
1DC0
0F80
0700
0200
0000
0000
FFF8
FFF8
FFF8
E000
E000
E000
E000
E000
E000
E000
FFF0
FFF0
FFF0
E000
E000
E000
E000
E000
E000
E000
E000
FFFC
FFFC
FFFC
ENDCHAR
STARTCHAR 011B
ENCODING 283
SWIDTH 488 0
DWIDTH 19 0
BBX 16 27 2 0
BITMAP
0810
0C38
0E70
07E0
03C0
0180
0000
0000
0000
0FF0
1FF8
3E7C
781E
F00E
E00E
E00F
FFFF
FFFF
FFFF
E000
E000
E000
F000
7800
3FBC
1FFC
0FFC
ENDCHAR
STARTCHAR 011C
ENCODING 284
SWIDTH 488 0
DWIDTH 19 0
BBX 16 33 2 -1
BITMAP
0040
00E0
01F0
03B8
071C
060C
0000
0070
07FE
0FFE
1F0E
3C02
7800
7800
7000
F000
E000
E000
E000
E000
E00F
E00F
E00F
E00F
F00F
700F
700F
780F
3C0F
1F0F
0FFF
07FE
0040
ENDCHAR
STARTCHAR 011D
ENCODING 285
SWIDTH 488 0
DWIDTH 19 0
BBX 15 33 2 -7
BITMAP
0100
0180
03C0
07E0
0E70
1C30
0800
0000
0000
0FFE
3FFE
7E3E
781E
F01E
E01E
E01E
E01E
E01E
E01E
E01E
E01E
F01E
781E
7FFE
3FFE
1FFE
001E
001E
001C
003C
70FC
7FF8
FFE0
ENDCHAR
STARTCHAR 011E
ENCODING 286
SWIDTH 488 0
DWIDTH 19 0
BBX 16 32 2 -1
BITMAP
060C
070C
03FC
01F8
0000
0000
0070
07FE
0FFE
1F0E
3C02
7800
7800
7000
F000
E000
E000
E000
E000
E00F
E00F
E00F
E00F
F00F
700F
700F
780F
3C0F
1F0F
0FFF
07FE
0040
ENDCHAR
STARTCHAR 011F
ENCODING 287
SWIDTH 488 0
DWIDTH 19 0
BBX 15 32 2 -7
BITMAP
1830
1C30
0FF0
0FE0
0380
0000
0000
0000
0FFE
3FFE
7E3E
781E
F01E
E01E
E01E
E01E
E01E
E01E
E01E
E01E
F01E
781E
7FFE
3FFE
1FFE
001E
001E
001C
003C
70FC
7FF8
FFE0
ENDCHAR
STARTCHAR 0120
ENCODING 288
SWIDTH 488 0
DWIDTH 19 0
BBX 16 32 2 -1
BITMAP
00E0
01F0
01F0
01E0
0040
0000
0070
07FE
0FFE
1F0E
3C02
7800
7800
7000
F000
E000
E000
E000
E000
E00F
E00F
E00F
E00F
F00F
700F
700F
780F
3C0F
1F0F
0FFF
07FE
0040
ENDCHAR
STARTCHAR 0121
ENCODING 289
SWIDTH 488 0
DWIDTH 19 0
BBX 15 32 2 -7
BITMAP
0180
03C0
07C0
03C0
0380
0000
0000
0000
0FFE
3FFE
7E3E
781E
F01E
E01E
E01E
E01E
E01E
E01E
E01E
E01E
F01E
781E
7FFE
3FFE
1FFE
001E
001E
001C
003C
70FC
7FF8
FFE0
ENDCHAR
STARTCHAR 0122
ENCODING 290
SWIDTH 488 0
DWIDTH 19 0
BBX 16 32 2 -7
BITMAP
0070
07FE
0FFE
1F0E
3C02
7800
7800
7000
F000
E000
E000
E000
E000
E00F
E00F
E00F
E00F
F00F
700F
700F
780F
3C0F
1F0F
0FFF
07FE
0040
0000
00E0
00E0
03E0
07C0
0300
ENDCHAR
STARTCHAR 0123
ENCODING 291
SWIDTH 488 0
DWIDTH 19 0
BBX 15 33 2 -7
BITMAP
00C0
01E0
01C0
0380
0380
0380
0000
0000
0000
0FFE
3FFE
7E3E
781E
F01E
E01E
E01E
E01E
E01E
E01E
E01E
E01E
F01E
781E
7FFE
3FFE
1FFE
001E
001E
001C
003C
70FC
7FF8
FFE0
ENDCHAR
STARTCHAR 0124
ENCODING 292
SWIDTH 488 0
DWIDTH 19 0
BBX 16 32 2 0
BITMAP
0100
0380
07C0
0FE0
1C70
0830
0000
0000
E00F
E00F
E00F
E00F
E00F
E00F
E00F
E00F
E00F
E00F
FFFF
FFFF
FFFF
E00F
E00F
E00F
E00F
E00F
E00F
E00F
E00F
E00F
E00F
E00F
ENDCHAR
STARTCHAR 0125
ENCODING 293
SWIDTH 488 0
DWIDTH 19 0
BBX 15 32 2 0
BITMAP
1800
3C00
FF00
C300
0000
0000
7000
7000
7000
7000
7000
7000
7000
7000
7FF0
7FF8
7EFC
703C
701C
701E
701E
700E
700E
700E
700E
700E
700E
700E
700E
700E
700E
700E
ENDCHAR
STARTCHAR 0126
ENCODING 294
SWIDTH 488 0
DWIDTH 19 0
BBX 18 24 1 0
BITMAP
380F00
380F00
380F00
FFFFC0
FFFFC0
FFFFC0
380F00
380F00
380F00
380F00
3FFF00
3FFF00
3FFF00
380F00
380F00
380F00
380F00
380F00
380F00
380F00
380F00
380F00
380F00
380F00
ENDCHAR
STARTCHAR 0127
ENCODING 295
SWIDTH 488 0
DWIDTH 19 0
BBX 16 27 1 0
BITMAP
1C00
3C00
3C00
FFF0
FFF0
FFF0
3C00
3C00
3C00
3FF8
3FFC
3F7E
3C1E
3C0E
3C0F
3C07
3C07
3C07
3C07
3C07
3C07
3C07
3C07
3C07
3C07
3C07
3C07
ENDCHAR
STARTCHAR 0128
ENCODING 296
SWIDTH 488 0
DWIDTH 19 0
BBX 13 31 3 0
BITMAP
0C20
3F70
3FE0
31C0
0000
0000
0000
FFF8
FFF8
FFF8
0700
0700
0700
0700
0700
0700
0700
0700
0700
0700
0700
0700
0700
0700
0700
0700
0700
0700
FFF8
FFF8
FFF8
ENDCHAR
STARTCHAR 0129
ENCODING 297
SWIDTH 488 0
DWIDTH 19 0
BBX 15 25 2 1
BITMAP
3E70
3FE0
73C0
2000
0000
0000
0000
FF80
FF80
FF80
0780
0780
0780
0780
0780
0780
0780
0780
0780
0780
0780
0380
03EE
03FE
01FE
ENDCHAR
STARTCHAR 012A
ENCODING 298
SWIDTH 488 0
DWIDTH 19 0
BBX 13 30 3 0
BITMAP
3FF0
3FF0
0000
0000
0000
0000
FFF8
FFF8
FFF8
0700
0700
0700
0700
0700
0700
0700
0700
0700
0700
0700
0700
0700
0700
0700
0700
0700
0700
FFF8
FFF8
FFF8
ENDCHAR
STARTCHAR 012B
ENCODING 299
SWIDTH 488 0
DWIDTH 19 0
BBX 15 25 2 0
BITMAP
7FE0
7FE0
7FE0
0000
0000
0000
0000
FF80
FF80
FF80
0780
0780
0780
0780
0780
0780
0780
0780
0780
0780
0780
0380
03EE
03FE
01FE
ENDCHAR
STARTCHAR 012C
ENCODING 300
SWIDTH 488 0
DWIDTH 19 0
BBX 13 31 3 0
BITMAP
3060
38E0
1FE0
0FC0
0000
0000
0000
FFF8
FFF8
FFF8
0700
0700
0700
0700
0700
0700
0700
0700
0700
0700
0700
0700
0700
0700
0700
0700
0700
0700
FFF8
FFF8
FFF8
ENDCHAR
STARTCHAR 012D
ENCODING 301
SWIDTH 488 0
DWIDTH 19 0
BBX 15 26 2 0
BITMAP
3060
30E0
3FC0
1FC0
0700
0000
0000
0000
FF80
FF80
FF80
0780
0780
0780
0780
0780
0780
0780
0780
0780
0780
0780
0380
03EE
03FE
01FE
ENDCHAR
STARTCHAR 012E
ENCODING 302
SWIDTH 488 0
DWIDTH 19 0
BBX 13 31 3 -7
BITMAP
FFF8
FFF8
FFF8
0700
0700
0700
0700
0700
0700
0700
0700
0700
0700
0700
0700
0700
0700
0700
0700
0700
0700
FFF8
FFF8
FFF8
0700
0E00
1C00
1C00
1F80
1F80
0200
ENDCHAR
STARTCHAR 012F
ENCODING 303
SWIDTH 488 0
DWIDTH 19 0
BBX 15 33 2 -7
BITMAP
0700
0F00
0F80
0F00
0F00
0000
0000
0000
FF80
FF80
FF80
0780
0780
0780
0780
0780
0780
0780
0780
0780
0780
0780
0380
03EE
03FE
01FE
001C
0038
0070
0070
007E
003E
0008
ENDCHAR
STARTCHAR 0130
ENCODING 304
SWIDTH 488 0
DWIDTH 19 0
BBX 13 31 3 0
BITMAP
0700
0F80
0F80
0780
0000
0000
0000
FFF8
FFF8
FFF8
0700
0700
0700
0700
0700
0700
0700
0700
0700
0700
0700
0700
0700
0700
0700
0700
0700
0700
FFF8
FFF8
FFF8
ENDCHAR
STARTCHAR 0131
ENCODING 305
SWIDTH 488 0
DWIDTH 19 0
BBX 15 18 2 0
BITMAP
FF80
FF80
FF80
0780
0780
0780
0780
0780
0780
0780
0780
0780
0780
0780
0380
03EE
03FE
01FE
ENDCHAR
STARTCHAR 0132
ENCODING 306
SWIDTH 488 0
DWIDTH 19 0
BBX 16 25 2 -1
BITMAP
E007
E007
E007
E007
E007
E007
E007
E007
E007
E007
E007
E007
E007
E007
E007
E007
E007
E007
E007
E007
E20F
E71F
E7FE
E3FC
0040
ENDCHAR
STARTCHAR 0133
ENCODING 307
SWIDTH 488 0
DWIDTH 19 0
BBX 13 32 3 -7
BITMAP
3030
7878
F8F8
7878
7070
0000
0000
0000
7070
7070
7070
7070
7070
7070
7070
7070
7070
7070
7070
7070
7070
7070
7070
7070
7070
7070
0070
0070
00F0
01F0
0FE0
0FC0
ENDCHAR
STARTCHAR 0134
ENCODING 308
SWIDTH 488 0
DWIDTH 19 0
BBX 14 33 2 -1
BITMAP
0040
00E0
01F0
03B8
071C
020C
0000
0000
1FFC
1FFC
1FFC
001C
001C
001C
001C
001C
001C
001C
001C
001C
001C
001C
001C
001C
001C
001C
001C
003C
403C
70F8
FFF0
3FE0
0200
ENDCHAR
STARTCHAR 0135
ENCODING 309
SWIDTH 488 0
DWIDTH 19 0
BBX 12 34 3 -7
BITMAP
0100
0380
07C0
0FE0
0EE0
1C70
0000
0000
0000
7FF0
7FF0
7FF0
0070
0070
0070
0070
0070
0070
0070
0070
0070
0070
0070
0070
0070
0070
0070
0070
0070
00F0
F1E0
FFE0
FFC0
0400
ENDCHAR
STARTCHAR 0136
ENCODING 310
SWIDTH 488 0
DWIDTH 19 0
BBX 17 31 2 -7
BITMAP
F00F00
F01E00
F01C00
F03C00
F07800
F0F000
F1E000
F1E000
F3C000
F78000
FF0000
FF0000
FF8000
F7C000
F3E000
F1F000
F0F000
F07800
F03C00
F01E00
F01E00
F00F00
F00700
F00780
000000
000000
01C000
03C000
078000
0F8000
0C0000
ENDCHAR
STARTCHAR 0137
ENCODING 311
SWIDTH 488 0
DWIDTH 19 0
BBX 15 34 3 -7
BITMAP
E000
E000
E000
E000
E000
E000
E000
E000
E000
E01C
E038
E070
E0E0
E3C0
E780
EF00
FE00
FE00
FF00
E780
E3C0
E1E0
E0F0
E078
E03C
E01E
E01E
0000
0000
0380
0780
0F00
1F00
1800
ENDCHAR
STARTCHAR 0138
ENCODING 312
SWIDTH 488 0
DWIDTH 19 0
BBX 15 18 3 0
BITMAP
E01C
E038
E070
E0E0
E3C0
E780
EF00
FE00
FE00
FF00
E780
E3C0
E1E0
E0F0
E078
E03C
E01E
E01E
ENDCHAR
STARTCHAR 0139
ENCODING 313
SWIDTH 488 0
DWIDTH 19 0
BBX 14 32 4 0
BITMAP
0800
1C00
3C00
7800
7000
6000
0000
0000
E000
E000
E000
E000
E000
E000
E000
E000
E000
E000
E000
E000
E000
E000
E000
E000
E000
E000
E000
E000
E000
FFFC
FFFC
FFFC
ENDCHAR
STARTCHAR 013A
ENCODING 314
SWIDTH 488 0
DWIDTH 19 0
BBX 15 32 2 0
BITMAP
00C0
03C0
0FC0
0E00
0000
0000
FF80
FF80
0780
0780
0780
0780
0780
0780
0780
0780
0780
0780
0780
0780
0780
0780
0780
0780
0780
0780
0780
0780
0380
03EE
03FE
01FE
ENDCHAR
STARTCHAR 013B
ENCODING 315
SWIDTH 488 0
DWIDTH 19 0
BBX 14 31 4 -7
BITMAP
E000
E000
E000
E000
E000
E000
E000
E000
E000
E000
E000
E000
E000
E000
E000
E000
E000
E000
E000
E000
E000
FFFC
FFFC
FFFC
0000
0000
0700
0700
1F00
1E00
0C00
ENDCHAR
STARTCHAR 013C
ENCODING 316
SWIDTH 488 0
DWIDTH 19 0
BBX 15 34 2 -7
BITMAP
FF80
FF80
FF80
0780
0780
0780
0780
0780
0780
0780
0780
0780
0780
0780
0780
0780
0780
0780
0780
0780
0780
0780
0780
0380
03EE
03FE
01FE
0000
0000
0078
0070
01F0
01F0
0080
ENDCHAR
STARTCHAR 013D
ENCODING 317
SWIDTH 488 0
DWIDTH 19 0
BBX 14 24 4 0
BITMAP
E380
E380
E380
E380
E300
E300
E300
E300
E000
E000
E000
E000
E000
E000
E000
E000
E000
E000
E000
E000
E000
FFFC
FFFC
FFFC
ENDCHAR
STARTCHAR 013E
ENCODING 318
SWIDTH 488 0
DWIDTH 19 0
BBX 15 27 2 0
BITMAP
FF9C
FF9C
FF9C
079C
079C
079C
079C
0798
0780
0780
0780
0780
0780
0780
0780
0780
0780
0780
0780
0780
0780
0780
0780
0380
03EE
03FE
01FE
ENDCHAR
STARTCHAR 013F
ENCODING 319
SWIDTH 488 0
DWIDTH 19 0
BBX 14 24 4 0
BITMAP
E000
E000
E000
E000
E000
E000
E000
E000
E000
E060
E0F0
E0F0
E0F0
E060
E000
E000
E000
E000
E000
E000
E000
FFFC
FFFC
FFFC
ENDCHAR
STARTCHAR 0140
ENCODING 320
SWIDTH 488 0
DWIDTH 19 0
BBX 19 27 2 0
BITMAP
FF8000
FF8000
FF8000
078000
078000
078000
078000
078000
078000
078000
078000
078000
0781C0
0783E0
0783E0
0781E0
0780C0
078000
078000
078000
078000
078000
078000
038000
03EE00
03FE00
01FE00
ENDCHAR
STARTCHAR 0141
ENCODING 321
SWIDTH 488 0
DWIDTH 19 0
BBX 17 24 1 0
BITMAP
1E0000
1E0000
1E0000
1E0000
1E0000
1E0000
1E0000
1E2000
1E6000
1FF000
1FC000
1F0000
7E0000
FE0000
FE0000
1E0000
1E0000
1E0000
1E0000
1E0000
1E0000
1FFF80
1FFF80
1FFF80
ENDCHAR
STARTCHAR 0142
ENCODING 322
SWIDTH 488 0
DWIDTH 19 0
BBX 15 27 2 0
BITMAP
FF80
FF80
FF80
0780
0780
0780
0780
0780
0780
0790
07F0
07F0
07C0
1F80
3F80
3F80
0780
0780
0780
0780
0780
0780
0780
0380
03EE
03FE
01FE
ENDCHAR
STARTCHAR 0143
ENCODING 323
SWIDTH 488 0
DWIDTH 19 0
BBX 15 32 2 0
BITMAP
0040
00E0
01E0
03C0
0780
0700
0000
0000
F00E
F00E
F80E
F80E
FC0E
FC0E
EE0E
EE0E
E70E
E70E
E38E
E38E
E1CE
E1CE
E0EE
E0EE
E07E
E07E
E03E
E03E
E01E
E01E
E01E
E00E
ENDCHAR
STARTCHAR 0144
ENCODING 324
SWIDTH 488 0
DWIDTH 19 0
BBX 14 27 3 0
BITMAP
0080
01C0
03C0
0380
0700
0E00
0400
0000
0000
FFE0
FFF0
F9F8
E078
E038
E03C
E01C
E01C
E01C
E01C
E01C
E01C
E01C
E01C
E01C
E01C
E01C
E01C
ENDCHAR
STARTCHAR 0145
ENCODING 325
SWIDTH 488 0
DWIDTH 19 0
BBX 15 31 2 -7
BITMAP
F00E
F00E
F80E
F80E
FC0E
FC0E
EE0E
EE0E
E70E
E70E
E38E
E38E
E1CE
E1CE
E0EE
E0EE
E07E
E07E
E03E
E03E
E01E
E01E
E01E
E00E
0000
0000
01C0
01C0
07C0
0F80
0600
ENDCHAR
STARTCHAR 0146
ENCODING 326
SWIDTH 488 0
DWIDTH 19 0
BBX 14 25 3 -7
BITMAP
FFE0
FFF0
F9F8
E078
E038
E03C
E01C
E01C
E01C
E01C
E01C
E01C
E01C
E01C
E01C
E01C
E01C
E01C
0000
0000
0380
0780
0F00
1F00
1800
ENDCHAR
STARTCHAR 0147
ENCODING 327
SWIDTH 488 0
DWIDTH 19 0
BBX 15 32 2 0
BITMAP
0830
1C70
0EE0
07C0
0380
0100
0000
0000
F00E
F00E
F80E
F80E
FC0E
FC0E
EE0E
EE0E
E70E
E70E
E38E
E38E
E1CE
E1CE
E0EE
E0EE
E07E
E07E
E03E
E03E
E01E
E01E
E01E
E00E
ENDCHAR
STARTCHAR 0148
ENCODING 328
SWIDTH 488 0
DWIDTH 19 0
BBX 14 27 3 0
BITMAP
1000
3860
1DE0
0FC0
0780
0300
0000
0000
0000
FFE0
FFF0
F9F8
E078
E038
E03C
E01C
E01C
E01C
E01C
E01C
E01C
E01C
E01C
E01C
E01C
E01C
E01C
ENDCHAR
STARTCHAR 0149
ENCODING 329
SWIDTH 488 0
DWIDTH 19 0
BBX 17 27 0 0
BITMAP
380000
380000
380000
700000
700000
700000
E00000
000000
000000
1FFC00
1FFE00
1F3F00
1C0F00
1C0700
1C0780
1C0380
1C0380
1C0380
1C0380
1C0380
1C0380
1C0380
1C0380
1C0380
1C0380
1C0380
1C0380
ENDCHAR
STARTCHAR 014A
ENCODING 330
SWIDTH 488 0
DWIDTH 19 0
BBX 15 31 2 -7
BITMAP
F00E
F00E
F80E
F80E
FC0E
FC0E
EE0E
EF0E
E70E
E38E
E38E
E1CE
E1CE
E0EE
E0EE
E07E
E07E
E03E
E03E
E01E
E01E
E00E
E00E
E00E
000E
000E
000E
001E
007E
007C
0020
ENDCHAR
STARTCHAR 014B
ENCODING 331
SWIDTH 488 0
DWIDTH 19 0
BBX 14 25 3 -7
BITMAP
FFE0
FFF0
F9F8
E078
E038
E03C
E01C
E01C
E01C
E01C
E01C
E01C
E01C
E01C
E01C
E01C
E01C
E01C
001C
001C
003C
0038
01F8
01F0
0080
ENDCHAR
STARTCHAR 014C
ENCODING 332
SWIDTH 488 0
DWIDTH 19 0
BBX 17 31 1 -1
BITMAP
0FFC00
0FFC00
000000
000000
000000
00C000
07F800
1FFC00
3E3E00
3C0F00
780700
700700
700780
F00380
F00380
E00380
E00380
E00380
E00380
E00380
E00380
F00380
700380
700780
700700
780700
3C0F00
1E3E00
1FFC00
07F800
008000
ENDCHAR
STARTCHAR 014D
ENCODING 333
SWIDTH 488 0
DWIDTH 19 0
BBX 16 25 2 0
BITMAP
1FF8
1FF8
1FF8
0000
0000
0000
0000
0FF0
3FF8
3EFC
781E
F01E
E00E
E00F
E00F
E007
E007
E00F
E00F
E00E
F01E
781E
3EFC
3FF8
0FF0
ENDCHAR
STARTCHAR 014E
ENCODING 334
SWIDTH 488 0
DWIDTH 19 0
BBX 17 32 1 -1
BITMAP
0C1800
0E3800
07F800
03F000
000000
000000
00C000
07F800
1FFC00
3E3E00
3C0F00
780700
700700
700780
F00380
F00380
E00380
E00380
E00380
E00380
E00380
E00380
F00380
700380
700780
700700
780700
3C0F00
1E3E00
1FFC00
07F800
008000
ENDCHAR
STARTCHAR 014F
ENCODING 335
SWIDTH 488 0
DWIDTH 19 0
BBX 16 26 2 0
BITMAP
1830
1C30
0FF0
0FE0
0380
0000
0000
0000
0FF0
3FF8
3EFC
781E
F01E
E00E
E00F
E00F
E007
E007
E00F
E00F
E00E
F01E
781E
3EFC
3FF8
0FF0
ENDCHAR
STARTCHAR 0150
ENCODING 336
SWIDTH 488 0
DWIDTH 19 0
BBX 17 33 1 -1
BITMAP
008600
01C700
03CE00
039C00
071800
063800
000000
00C000
07F800
1FFC00
3E3E00
3C0F00
780700
700700
700780
F00380
F00380
E00380
E00380
E00380
E00380
E00380
E00380
F00380
700380
700780
700700
780700
3C0F00
1E3E00
1FFC00
07F800
008000
ENDCHAR
STARTCHAR 0151
ENCODING 337
SWIDTH 488 0
DWIDTH 19 0
BBX 16 27 2 0
BITMAP
0100
038C
039E
071C
0E38
1C70
0820
0000
0000
0FF0
3FF8
3EFC
781E
F01E
E00E
E00F
E00F
E007
E007
E00F
E00F
E00E
F01E
781E
3EFC
3FF8
0FF0
ENDCHAR
STARTCHAR 0152
ENCODING 338
SWIDTH 488 0
DWIDTH 19 0
BBX 18 24 1 0
BITMAP
0FFF80
1FFF80
3EFF80
387000
787000
707000
707000
F07000
E07000
E07000
E07F00
E07F00
E07F00
E07000
E07000
E07000
E07000
707000
707000
707000
387000
3FFFC0
1FFFC0
0FFFC0
ENDCHAR
STARTCHAR 0153
ENCODING 339
SWIDTH 488 0
DWIDTH 19 0
BBX 18 18 1 0
BITMAP
1F1E00
3FBF00
7BF780
71E380
71E380
E1E180
E1E1C0
E0FFC0
E0FFC0
E0FFC0
E0E000
E0E000
61E000
71E000
71F000
7BFF80
3F3F80
1F1F80
ENDCHAR
STARTCHAR 0154
ENCODING 340
SWIDTH 488 0
DWIDTH 19 0
BBX 16 32 2 0
BITMAP
00C0
00E0
01C0
0380
0700
0600
0000
0000
FFE0
FFF0
F1F8
E03C
E01C
E01E
E01E
E01E
E01E
E01C
E03C
E078
FFF0
FFE0
FFE0
E0E0
E070
E078
E038
E03C
E01C
E01E
E00E
E00F
ENDCHAR
STARTCHAR 0155
ENCODING 341
SWIDTH 488 0
DWIDTH 19 0
BBX 13 27 4 0
BITMAP
0080
00C0
01C0
0380
0700
0E00
0000
0000
0000
3FF8
FFF8
FC38
E000
E000
E000
E000
E000
E000
E000
E000
E000
E000
E000
E000
E000
E000
E000
ENDCHAR
STARTCHAR 0156
ENCODING 342
SWIDTH 488 0
DWIDTH 19 0
BBX 16 31 2 -7
BITMAP
FFE0
FFF0
F1F8
E03C
E01C
E01E
E01E
E01E
E01E
E01C
E03C
E078
FFF0
FFE0
FFE0
E0E0
E070
E078
E038
E03C
E01C
E01E
E00E
E00F
0000
0000
0380
0380
0F80
1F00
0C00
ENDCHAR
STARTCHAR 0157
ENCODING 343
SWIDTH 488 0
DWIDTH 19 0
BBX 15 25 2 -7
BITMAP
0FFE
3FFE
3F0E
3800
3800
3800
3800
3800
3800
3800
3800
3800
3800
3800
3800
3800
3800
3800
0000
0000
3800
3800
F800
F000
6000
ENDCHAR
STARTCHAR 0158
ENCODING 344
SWIDTH 488 0
DWIDTH 19 0
BBX 16 32 2 0
BITMAP
1060
38E0
1DC0
0F80
0700
0200
0000
0000
FFE0
FFF0
F1F8
E03C
E01C
E01E
E01E
E01E
E01E
E01C
E03C
E078
FFF0
FFE0
FFE0
E0E0
E070
E078
E038
E03C
E01C
E01E
E00E
E00F
ENDCHAR
STARTCHAR 0159
ENCODING 345
SWIDTH 488 0
DWIDTH 19 0
BBX 13 27 4 0
BITMAP
1020
1870
1CE0
0FC0
0780
0300
0000
0000
0000
3FF8
FFF8
FC38
E000
E000
E000
E000
E000
E000
E000
E000
E000
E000
E000
E000
E000
E000
E000
ENDCHAR
STARTCHAR 015A
ENCODING 346
SWIDTH 488 0
DWIDTH 19 0
BBX 15 33 2 -1
BITMAP
0060
00F0
01E0
01C0
0380
0300
0000
01C0
0FFC
3FFC
3C1C
7800
7000
7000
7000
7000
7800
3E00
1F80
0FE0
03F8
00FC
003C
001E
000E
000E
000E
000E
401E
787C
FFFC
3FF0
0300
ENDCHAR
STARTCHAR 015B
ENCODING 347
SWIDTH 488 0
DWIDTH 19 0
BBX 14 27 3 0
BITMAP
0080
01C0
03C0
0380
0700
0E00
0400
0000
0000
3FF8
7FF8
F838
E000
E000
E000
F800
7E00
3FC0
0FF0
01F8
007C
003C
001C
803C
F8F8
FFF8
FFE0
ENDCHAR
STARTCHAR 015C
ENCODING 348
SWIDTH 488 0
DWIDTH 19 0
BBX 15 33 2 -1
BITMAP
0180
01C0
03E0
07E0
0E70
0C30
0000
01C0
0FFC
3FFC
3C1C
7800
7000
7000
7000
7000
7800
3E00
1F80
0FE0
03F8
00FC
003C
001E
000E
000E
000E
000E
401E
787C
FFFC
3FF0
0300
ENDCHAR
STARTCHAR 015D
ENCODING 349
SWIDTH 488 0
DWIDTH 19 0
BBX 14 26 3 1
BITMAP
0300
0780
0FC0
1CE0
1870
1020
0000
0000
3FF8
7FF8
F838
E000
E000
E000
F800
7E00
3FC0
0FF0
01F8
007C
003C
001C
803C
F8F8
FFF8
FFE0
ENDCHAR
STARTCHAR 015E
ENCODING 350
SWIDTH 488 0
DWIDTH 19 0
BBX 15 32 2 -7
BITMAP
01C0
0FFC
3FFC
3C1C
7800
7000
7000
7000
7000
7800
3E00
1F80
0FE0
03F8
00FC
003C
001E
000E
000E
000E
000E
401E
787C
FFFC
7FF0
0380
0380
03C0
01C0
0FC0
0FC0
0200
ENDCHAR
STARTCHAR 015F
ENCODING 351
SWIDTH 488 0
DWIDTH 19 0
BBX 14 25 3 -7
BITMAP
3FF8
7FF8
F838
E000
E000
E000
F800
7E00
3FC0
0FF0
01F8
007C
003C
001C
803C
F8F8
FFF8
FFE0
0700
0700
0780
0380
1F80
1F80
0400
ENDCHAR
STARTCHAR 0160
ENCODING 352
SWIDTH 488 0
DWIDTH 19 0
BBX 15 33 2 -1
BITMAP
0C10
0E38
0770
03E0
01C0
0080
0000
01C0
0FFC
3FFC
3C1C
7800
7000
7000
7000
7000
7800
3E00
1F80
0FE0
03F8
00FC
003C
001E
000E
000E
000E
000E
401E
787C
FFFC
3FF0
0300
ENDCHAR
STARTCHAR 0161
ENCODING 353
SWIDTH 488 0
DWIDTH 19 0
BBX 14 27 3 0
BITMAP
1020
1870
1CE0
0FC0
0780
0300
0000
0000
0000
3FF8
7FF8
F838
E000
E000
E000
F800
7E00
3FC0
0FF0
01F8
007C
003C
001C
803C
F8F8
FFF8
FFE0
ENDCHAR
STARTCHAR 0162
ENCODING 354
SWIDTH 488 0
DWIDTH 19 0
BBX 16 31 2 -7
BITMAP
FFFF
FFFF
FFFF
0380
0380
0380
0380
0380
0380
0380
0380
0380
0380
0380
0380
0380
0380
0380
0380
0380
0380
0380
0380
0380
0380
0380
03C0
01C0
0FC0
0FC0
0200
ENDCHAR
STARTCHAR 0163
ENCODING 355
SWIDTH 488 0
DWIDTH 19 0
BBX 15 30 2 -6
BITMAP
0E00
0E00
0E00
0E00
0E00
FFFE
FFFE
FFFE
0E00
0E00
0E00
0E00
0E00
0E00
0E00
0E00
0E00
0F00
0F00
0700
07EE
07FE
01FE
0060
00E0
00F0
0038
03F8
03F0
00C0
ENDCHAR
STARTCHAR 0164
ENCODING 356
SWIDTH 488 0
DWIDTH 19 0
BBX 16 32 2 0
BITMAP
0830
1C70
0EE0
07C0
0380
0100
0000
0000
FFFF
FFFF
FFFF
0380
0380
0380
0380
0380
0380
0380
0380
0380
0380
0380
0380
0380
0380
0380
0380
0380
0380
0380
0380
0380
ENDCHAR
STARTCHAR 0165
ENCODING 357
SWIDTH 488 0
DWIDTH 19 0
BBX 15 27 2 0
BITMAP
0038
0038
0038
0038
0E38
0E38
0E30
0E00
0E00
FFFE
FFFE
FFFE
0E00
0E00
0E00
0E00
0E00
0E00
0E00
0E00
0E00
0F00
0F00
0700
07EE
07FE
01FE
ENDCHAR
STARTCHAR 0166
ENCODING 358
SWIDTH 488 0
DWIDTH 19 0
BBX 16 24 2 0
BITMAP
FFFF
FFFF
FFFF
0380
0380
0380
0380
0380
0380
0380
7FFC
7FFC
7FFC
0380
0380
0380
0380
0380
0380
0380
0380
0380
0380
0380
ENDCHAR
STARTCHAR 0167
ENCODING 359
SWIDTH 488 0
DWIDTH 19 0
BBX 15 23 2 1
BITMAP
0E00
0E00
0E00
0E00
0E00
FFFE
FFFE
FFFE
0E00
0E00
0E00
0E00
FFFE
FFFE
FFFE
0E00
0E00
0F00
0F00
0700
07EE
07FE
01FE
ENDCHAR
STARTCHAR 0168
ENCODING 360
SWIDTH 488 0
DWIDTH 19 0
BBX 16 32 2 -1
BITMAP
0610
1FB8
1FF0
18E0
0000
0000
0000
E00F
E00F
E00F
E00F
E00F
E00F
E00F
E00F
E00F
E00F
E00F
E00F
E00F
E00F
E00F
E00F
E00F
E00E
E00E
F00E
701E
7C7C
3FF8
1FF0
0100
ENDCHAR
STARTCHAR 0169
ENCODING 361
SWIDTH 488 0
DWIDTH 19 0
BBX 14 26 3 0
BITMAP
0020
1E30
3FF0
73E0
0000
0000
0000
0000
E03C
E03C
E03C
E03C
E03C
E03C
E03C
E03C
E03C
E03C
E03C
E03C
E03C
E03C
F03C
7EFC
3FFC
1FFC
ENDCHAR
STARTCHAR 016A
ENCODING 362
SWIDTH 488 0
DWIDTH 19 0
BBX 16 31 2 -1
BITMAP
1FF8
1FF8
0000
0000
0000
0000
E00F
E00F
E00F
E00F
E00F
E00F
E00F
E00F
E00F
E00F
E00F
E00F
E00F
E00F
E00F
E00F
E00F
E00E
E00E
F00E
701E
7C7C
3FF8
1FF0
0100
ENDCHAR
STARTCHAR 016B
ENCODING 363
SWIDTH 488 0
DWIDTH 19 0
BBX 14 25 3 0
BITMAP
3FF0
3FF0
3FF0
0000
0000
0000
0000
E03C
E03C
E03C
E03C
E03C
E03C
E03C
E03C
E03C
E03C
E03C
E03C
E03C
E03C
F03C
7EFC
3FFC
1FFC
ENDCHAR
STARTCHAR 016C
ENCODING 364
SWIDTH 488 0
DWIDTH 19 0
BBX 16 32 2 -1
BITMAP
1830
1C70
0FF0
07E0
0000
0000
0000
E00F
E00F
E00F
E00F
E00F
E00F
E00F
E00F
E00F
E00F
E00F
E00F
E00F
E00F
E00F
E00F
E00F
E00E
E00E
F00E
701E
7C7C
3FF8
1FF0
0100
ENDCHAR
STARTCHAR 016D
ENCODING 365
SWIDTH 488 0
DWIDTH 19 0
BBX 14 26 3 0
BITMAP
3060
3860
1FE0
1FC0
0700
0000
0000
0000
E03C
E03C
E03C
E03C
E03C
E03C
E03C
E03C
E03C
E03C
E03C
E03C
E03C
E03C
F03C
7EFC
3FFC
1FFC
ENDCHAR
STARTCHAR 016E
ENCODING 366
SWIDTH 488 0
DWIDTH 19 0
BBX 16 33 2 -1
BITMAP
07C0
06E0
0C60
0C20
0C60
07E0
0380
0000
E00F
E00F
E00F
E00F
E00F
E00F
E00F
E00F
E00F
E00F
E00F
E00F
E00F
E00F
E00F
E00F
E00F
E00E
E00E
F00E
701E
7C7C
3FF8
1FF0
0100
ENDCHAR
STARTCHAR 016F
ENCODING 367
SWIDTH 488 0
DWIDTH 19 0
BBX 14 27 3 0
BITMAP
0780
0FC0
18C0
1840
18C0
0FC0
0780
0000
0000
E03C
E03C
E03C
E03C
E03C
E03C
E03C
E03C
E03C
E03C
E03C
E03C
E03C
E03C
F03C
7EFC
3FFC
1FFC
ENDCHAR
STARTCHAR 0170
ENCODING 368
SWIDTH 488 0
DWIDTH 19 0
BBX 16 33 2 -1
BITMAP
0308
039C
071C
0E38
1C70
1C60
0000
0000
E00F
E00F
E00F
E00F
E00F
E00F
E00F
E00F
E00F
E00F
E00F
E00F
E00F
E00F
E00F
E00F
E00F
E00E
E00E
F00E
701E
7C7C
3FF8
1FF0
0100
ENDCHAR
STARTCHAR 0171
ENCODING 369
SWIDTH 488 0
DWIDTH 19 0
BBX 14 27 3 0
BITMAP
0010
0618
0E38
1E70
1CE0
38E0
1040
0000
0000
E03C
E03C
E03C
E03C
E03C
E03C
E03C
E03C
E03C
E03C
E03C
E03C
E03C
E03C
F03C
7EFC
3FFC
1FFC
ENDCHAR
STARTCHAR 0172
ENCODING 370
SWIDTH 488 0
DWIDTH 19 0
BBX 16 31 2 -7
BITMAP
E00F
E00F
E00F
E00F
E00F
E00F
E00F
E00F
E00F
E00F
E00F
E00F
E00F
E00F
E00F
E00F
E00F
E00E
E00E
F00E
701E
7C7C
3FFC
1FF0
0FE0
01C0
0380
0380
03F0
03F0
0040
ENDCHAR
STARTCHAR 0173
ENCODING 371
SWIDTH 488 0
DWIDTH 19 0
BBX 14 25 3 -7
BITMAP
E03C
E03C
E03C
E03C
E03C
E03C
E03C
E03C
E03C
E03C
E03C
E03C
E03C
E03C
F03C
7EFC
3FFC
1FFC
0038
0070
00E0
00E0
00F8
00FC
0010
ENDCHAR
STARTCHAR 0174
ENCODING 372
SWIDTH 488 0
DWIDTH 19 0
BBX 17 32 1 0
BITMAP
008000
01C000
03E000
07F000
0E3800
041800
000000
000000
E00380
E00380
E00380
E00380
E00380
E00380
700380
700380
700380
71C380
71E380
73E380
73E380
737300
737300
773300
763B00
763B00
7E1B00
7C1B00
7C1F00
3C0F00
380F00
380E00
ENDCHAR
STARTCHAR 0175
ENCODING 373
SWIDTH 488 0
DWIDTH 19 0
BBX 18 27 1 0
BITMAP
008000
01C000
01E000
03F000
077800
0E1800
040000
000000
000000
E001C0
E001C0
E00180
E00380
E1C380
E1C380
E1E380
71E380
73E380
737300
737300
773700
763F00
3E1F00
3C1E00
3C1E00
3C0E00
380E00
ENDCHAR
STARTCHAR 0176
ENCODING 374
SWIDTH 488 0
DWIDTH 19 0
BBX 18 32 1 0
BITMAP
008000
01C000
03E000
07F000
0E3800
041800
000000
000000
E003C0
F00380
F00780
700700
780700
380F00
3C0E00
1C1E00
1E1C00
0E3800
0F3800
077000
03F000
03E000
01E000
01C000
01C000
01C000
01C000
01C000
01C000
01C000
01C000
01C000
ENDCHAR
STARTCHAR 0177
ENCODING 375
SWIDTH 488 0
DWIDTH 19 0
BBX 16 34 2 -7
BITMAP
0100
0180
03C0
07E0
0E70
1C30
0800
0000
0000
E00F
F00F
700E
700E
781E
381C
381C
3C1C
1C3C
1C38
1E38
0E78
0F70
0770
07E0
03E0
03E0
01C0
01C0
0380
0380
0F00
FE00
FC00
4000
ENDCHAR
STARTCHAR 0178
ENCODING 376
SWIDTH 488 0
DWIDTH 19 0
BBX 18 31 1 0
BITMAP
0E1800
0E3C00
1E3C00
0E1C00
000000
000000
000000
E003C0
F00380
F00780
700700
780700
380F00
3C0E00
1C1E00
1E1C00
0E3800
0F3800
077000
03F000
03E000
01E000
01C000
01C000
01C000
01C000
01C000
01C000
01C000
01C000
01C000
ENDCHAR
STARTCHAR 0179
ENCODING 377
SWIDTH 488 0
DWIDTH 19 0
BBX 16 32 2 0
BITMAP
0040
00E0
01E0
03C0
0780
0700
0000
0000
7FFE
7FFE
7FFE
001E
003C
0038
0078
00F0
00E0
01E0
01C0
0380
0780
0700
0F00
0E00
1C00
3C00
3800
7800
7000
FFFF
FFFF
FFFF
ENDCHAR
STARTCHAR 017A
ENCODING 378
SWIDTH 488 0
DWIDTH 19 0
BBX 14 27 3 0
BITMAP
0080
01C0
03C0
0380
0700
0E00
0400
0000
0000
FFF8
FFF8
FFF8
00F0
00F0
01E0
03C0
0780
0700
0F00
1E00
1C00
3800
7800
7000
FFFC
FFFC
FFFC
ENDCHAR
STARTCHAR 017B
ENCODING 379
SWIDTH 488 0
DWIDTH 19 0
BBX 16 31 2 0
BITMAP
0380
07C0
07C0
03C0
0000
0000
0000
7FFE
7FFE
7FFE
001E
003C
0038
0078
00F0
00E0
01E0
01C0
0380
0780
0700
0F00
0E00
1C00
3C00
3800
7800
7000
FFFF
FFFF
FFFF
ENDCHAR
STARTCHAR 017C
ENCODING 380
SWIDTH 488 0
DWIDTH 19 0
BBX 14 26 3 0
BITMAP
0300
0780
0F80
0780
0700
0000
0000
0000
FFF8
FFF8
FFF8
00F0
00F0
01E0
03C0
0780
0700
0F00
1E00
1C00
3800
7800
7000
FFFC
FFFC
FFFC
ENDCHAR
STARTCHAR 017D
ENCODING 381
SWIDTH 488 0
DWIDTH 19 0
BBX 16 32 2 0
BITMAP
0830
1C70
0EE0
07C0
0380
0100
0000
0000
7FFE
7FFE
7FFE
001E
003C
0038
0078
00F0
00E0
01E0
01C0
0380
0780
0700
0F00
0E00
1C00
3C00
3800
7800
7000
FFFF
FFFF
FFFF
ENDCHAR
STARTCHAR 017E
ENCODING 382
SWIDTH 488 0
DWIDTH 19 0
BBX 14 27 3 0
BITMAP
1000
3860
1DE0
0FC0
0780
0300
0000
0000
0000
FFF8
FFF8
FFF8
00F0
00F0
01E0
03C0
0780
0700
0F00
1E00
1C00
3800
7800
7000
FFFC
FFFC
FFFC
ENDCHAR
STARTCHAR 017F
ENCODING 383
SWIDTH 488 0
DWIDTH 19 0
BBX 13 27 6 0
BITMAP
0FE0
3FF8
3FF0
7810
7000
F000
E000
E000
E000
E000
E000
E000
E000
E000
E000
E000
E000
E000
E000
E000
E000
E000
E000
E000
E000
E000
E000
ENDCHAR
STARTCHAR 0180
ENCODING 384
SWIDTH 488 0
DWIDTH 19 0
BBX 17 27 1 0
BITMAP
1C0000
3C0000
3C0000
FFF000
FFF000
FFF000
3C0000
3C0000
3C0000
3FF800
3FFC00
3FBE00
3C0F00
3C0700
3C0700
3C0780
3C0780
3C0380
3C0380
3C0780
3C0780
3C0700
3C0F00
3C0F00
3E7E00
3FFC00
3FF800
ENDCHAR
STARTCHAR 0181
ENCODING 385
SWIDTH 488 0
DWIDTH 19 0
BBX 18 24 1 0
BITMAP
1FFC00
7FFE00
FFBF00
E70700
E70780
C70780
E70780
070700
070700
070F00
07FE00
07FC00
07FF00
070780
070380
0703C0
0701C0
0701C0
0703C0
070380
070780
07FF80
07FF00
07FC00
ENDCHAR
STARTCHAR 0182
ENCODING 386
SWIDTH 488 0
DWIDTH 19 0
BBX 16 24 2 0
BITMAP
FFF8
FFF8
FFF8
E000
E000
E000
E000
E000
E000
FFC0
FFF8
FFFC
E03E
E01E
E00E
E00E
E00F
E00F
E00E
E01E
E03E
FBFC
FFF8
FFE0
ENDCHAR
STARTCHAR 0183
ENCODING 387
SWIDTH 488 0
DWIDTH 19 0
BBX 15 27 3 0
BITMAP
FFF8
FFF8
FFF8
E000
E000
E000
E000
E000
E000
FFE0
FFF0
FCF8
E03C
E01C
E01C
E01E
E01E
E00E
E00E
E01E
E01E
E01C
E03C
E07C
FBF8
FFF0
FFC0
ENDCHAR
STARTCHAR 0184
ENCODING 388
SWIDTH 488 0
DWIDTH 19 0
BBX 18 27 0 0
BITMAP
040000
3C0000
FC0000
7C0000
3C0000
1C0000
1C0000
1C0000
1C0000
1FFC00
1FFE00
1F9F00
1C0780
1C0380
1C0380
1C03C0
1C03C0
1C01C0
1C01C0
1C03C0
1C03C0
1C0380
1C0780
1C0F80
1F7F00
1FFE00
1FF800
ENDCHAR
STARTCHAR 0185
ENCODING 389
SWIDTH 488 0
DWIDTH 19 0
BBX 17 24 1 0
BITMAP
180000
F80000
F80000
780000
380000
380000
380000
380000
380000
3FF800
3FFC00
383E00
380F00
380700
380700
380780
380780
380780
380700
380F00
381F00
3EFE00
3FFC00
3FF000
ENDCHAR
STARTCHAR 0186
ENCODING 390
SWIDTH 488 0
DWIDTH 19 0
BBX 16 26 2 -1
BITMAP
0E00
7FE0
FFF0
E1F8
007C
003C
001E
000E
000E
000E
000F
000F
000F
000F
000F
000F
000E
000E
001E
001E
003C
8078
F1F8
FFF0
7FC0
0400
ENDCHAR
STARTCHAR 0187
ENCODING 391
SWIDTH 488 0
DWIDTH 19 0
BBX 17 28 2 -1
BITMAP
000780
000F80
00DE00
07FC00
0FFC00
1F1800
3C0000
780000
700000
700000
F00000
E00000
E00000
E00000
E00000
E00000
E00000
E00000
E00000
F00000
F00000
700000
780000
3C0400
3F3C00
1FFC00
07FC00
008000
ENDCHAR
STARTCHAR 0188
ENCODING 392
SWIDTH 488 0
DWIDTH 19 0
BBX 17 22 2 0
BITMAP
000780
000F80
001F00
009C00
07F800
1FF800
3F1800
780000
700000
F00000
E00000
E00000
E00000
E00000
E00000
F00000
F00000
700000
7C0000
3FBC00
1FFC00
07FC00
ENDCHAR
STARTCHAR 0189
ENCODING 393
SWIDTH 488 0
DWIDTH 19 0
BBX 17 24 1 0
BITMAP
3FE000
3FF800
3DFC00
383E00
380E00
380F00
380700
380700
380780
380780
FF8380
FF8380
FF8380
380380
380780
380780
380700
380700
380F00
380E00
383E00
3FFC00
3FF800
3FE000
ENDCHAR
STARTCHAR 018A
ENCODING 394
SWIDTH 488 0
DWIDTH 19 0
BBX 18 24 1 0
BITMAP
1FF800
7FFC00
FFBE00
E70F00
E70780
C70380
E70380
070380
0703C0
0703C0
0701C0
0701C0
0701C0
0703C0
0703C0
0703C0
070380
070380
070380
070700
070F00
07FE00
07FC00
07F800
ENDCHAR
STARTCHAR 018B
ENCODING 395
SWIDTH 488 0
DWIDTH 19 0
BBX 15 24 2 0
BITMAP
3FFE
3FFE
3FFE
000E
000E
000E
000E
000E
000E
07FE
1FFE
3FFE
780E
F00E
E00E
E00E
E00E
E00E
E00E
F00E
780E
7FBE
1FFE
07FE
ENDCHAR
STARTCHAR 018C
ENCODING 396
SWIDTH 488 0
DWIDTH 19 0
BBX 15 27 2 0
BITMAP
3FFE
3FFE
3FFE
001E
001E
001E
001E
001E
001E
0FFE
3FFE
7EFE
781E
F01E
E01E
E01E
E01E
E01E
E01E
E01E
E01E
E01E
F01E
781E
3F7E
1FFE
0FFE
ENDCHAR
STARTCHAR 018D
ENCODING 397
SWIDTH 488 0
DWIDTH 19 0
BBX 16 24 2 -6
BITMAP
1FF0
3FF8
7EFC
F01E
F00E
E00F
E00F
E007
E00F
E00F
E00F
F00E
781E
3C3C
1EF8
0FF0
07E0
01F0
00F8
0078
0038
6078
7FF0
7FE0
ENDCHAR
STARTCHAR 018E
ENCODING 398
SWIDTH 488 0
DWIDTH 19 0
BBX 14 24 2 0
BITMAP
FFFC
FFFC
FFFC
001C
001C
001C
001C
001C
001C
001C
3FFC
3FFC
3FFC
001C
001C
001C
001C
001C
001C
001C
001C
FFFC
FFFC
FFFC
ENDCHAR
STARTCHAR 018F
ENCODING 399
SWIDTH 488 0
DWIDTH 19 0
BBX 17 26 1 -1
BITMAP
038000
3FF000
3FFC00
387E00
001E00
000F00
000700
000780
000380
000380
000380
000380
FFFF80
FFFF80
FFFF80
E00380
E00380
E00380
F00780
700700
700F00
781E00
3E3E00
1FFC00
0FF000
008000
ENDCHAR
STARTCHAR 0190
ENCODING 400
SWIDTH 488 0
DWIDTH 19 0
BBX 16 24 2 1
BITMAP
0FFC
3FFE
7E1E
7800
7000
7000
7000
7000
7800
3E00
0FF0
1FF0
3FF0
7800
F000
E000
E000
E000
E000
E000
F000
7E1F
3FFF
1FFC
ENDCHAR
STARTCHAR 0191
ENCODING 401
SWIDTH 488 0
DWIDTH 19 0
BBX 18 30 0 -7
BITMAP
0FFFC0
0FFFC0
0FFFC0
0E0000
0E0000
0E0000
0E0000
0E0000
0E0000
0E0000
0FFF00
0FFF00
0FFF00
0E0000
0E0000
0E0000
0E0000
0E0000
0E0000
0E0000
0E0000
0E0000
0E0000
0E0000
0E0000
0E0000
0E0000
1E0000
FC0000
F80000
ENDCHAR
STARTCHAR 0192
ENCODING 402
SWIDTH 488 0
DWIDTH 19 0
BBX 19 34 0 -7
BITMAP
003F80
00FFE0
00FFC0
01E040
01C000
03C000
038000
038000
038000
3FFF80
3FFF80
3FFF80
038000
038000
038000
038000
038000
038000
038000
038000
038000
038000
038000
038000
038000
038000
038000
038000
038000
038000
0F8000
7F0000
FE0000
780000
ENDCHAR
STARTCHAR 0193
ENCODING 403
SWIDTH 488 0
DWIDTH 19 0
BBX 17 28 2 -1
BITMAP
000780
000F80
00DE00
07FC00
0FFC00
1F1800
3C0000
780000
700000
700000
F00000
E00000
E00000
E00000
E00000
E00F00
E00F00
E00F00
E00F00
F00F00
F00F00
700F00
780F00
3C0F00
1F0F00
1FFF00
07FE00
004000
ENDCHAR
STARTCHAR 0194
ENCODING 404
SWIDTH 488 0
DWIDTH 19 0
BBX 18 30 1 -6
BITMAP
E003C0
E00380
F00380
700780
780700
380700
380E00
3C0E00
1C1E00
1C1C00
0E1C00
0E3800
073800
077000
077000
03F000
03E000
01E000
01E000
03E000
03F000
077000
073800
0E3800
0E1800
0E1C00
0E1C00
0F3800
07F800
03F000
ENDCHAR
STARTCHAR 0195
ENCODING 405
SWIDTH 488 0
DWIDTH 19 0
BBX 17 27 1 0
BITMAP
600000
E00000
E00000
E00000
E00000
E00000
E00000
E00000
E00000
FF0380
FF8380
FBC380
E1C380
E1C380
E1C380
E1C380
E1C380
E1C380
E1C380
E1C380
E1C380
E1C380
E1C380
E1E780
E1FF00
E0FF00
E07E00
ENDCHAR
STARTCHAR 0196
ENCODING 406
SWIDTH 488 0
DWIDTH 19 0
BBX 15 25 3 -1
BITMAP
FFF8
FFF8
FFF8
0F00
0F00
0F00
0F00
0F00
0F00
0F00
0F00
0F00
0F00
0F00
0F00
0F00
0F00
0F00
0F00
0F00
0700
07CC
07FC
03FE
0020
ENDCHAR
STARTCHAR 0197
ENCODING 407
SWIDTH 488 0
DWIDTH 19 0
BBX 13 24 3 0
BITMAP
FFF8
FFF8
FFF8
0700
0700
0700
0700
0700
0700
0700
3FF0
3FF0
3FF0
0700
0700
0700
0700
0700
0700
0700
0700
FFF8
FFF8
FFF8
ENDCHAR
STARTCHAR 0198
ENCODING 408
SWIDTH 488 0
DWIDTH 19 0
BBX 17 24 2 1
BITMAP
F00F80
F03F80
F03D80
F07800
F0F000
F1E000
F1C000
F3C000
F78000
F70000
FE0000
FF0000
FF8000
F7C000
F3E000
F1F000
F0F000
F07800
F03C00
F01E00
F01E00
F00F00
F00700
F00780
ENDCHAR
STARTCHAR 0199
ENCODING 409
SWIDTH 488 0
DWIDTH 19 0
BBX 15 27 3 0
BITMAP
3E00
7E00
FE00
F000
E000
E000
E000
E000
E000
E01C
E038
E070
E0E0
E3C0
E780
EF00
FE00
FE00
FF00
E780
E3C0
E1E0
E0F0
E078
E03C
E01E
E01E
ENDCHAR
STARTCHAR 019A
ENCODING 410
SWIDTH 488 0
DWIDTH 19 0
BBX 15 27 2 0
BITMAP
FF80
FF80
FF80
0780
0780
0780
0780
0780
0780
0780
0780
0780
FFFC
FFFC
0780
0780
0780
0780
0780
0780
0780
0780
0780
0380
03EE
03FE
01FE
ENDCHAR
STARTCHAR 019B
ENCODING 411
SWIDTH 488 0
DWIDTH 19 0
BBX 17 27 1 0
BITMAP
7C0000
7E0000
3F0800
07BC00
03FC00
0FE000
1FC000
19C000
00E000
01E000
01F000
03F000
03F000
077800
073800
0E3800
0E1C00
1E1C00
1C1E00
1C0E00
380E00
380F00
380F00
700700
700700
700780
E00780
ENDCHAR
STARTCHAR 019C
ENCODING 412
SWIDTH 488 0
DWIDTH 19 0
BBX 16 25 2 -1
BITMAP
E007
E007
E007
E007
E007
E007
E007
E007
E007
E387
E387
E387
E387
E387
E387
E387
E387
E387
E387
E387
E1C7
F3E7
7FFF
3FFF
0410
ENDCHAR
STARTCHAR 019D
ENCODING 413
SWIDTH 488 0
DWIDTH 19 0
BBX 19 30 -2 -7
BITMAP
0F00E0
0F00E0
0F80E0
0F80E0
0FC0E0
0FC0E0
0EE0E0
0EF0E0
0E70E0
0E38E0
0E38E0
0E1CE0
0E1CE0
0E0EE0
0E0EE0
0E07E0
0E07E0
0E03E0
0E03E0
0E01E0
0E01E0
0E01E0
0E00E0
0E00E0
0E0000
0E0000
0E0000
1E0000
FC0000
F80000
ENDCHAR
STARTCHAR 019E
ENCODING 414
SWIDTH 488 0
DWIDTH 19 0
BBX 14 24 3 -6
BITMAP
FFE0
FFF0
F0F8
E038
E038
E03C
E01C
E01C
E01C
E01C
E01C
E01C
E01C
E01C
E01C
E01C
E01C
E01C
001C
001C
001C
001C
001C
001C
ENDCHAR
STARTCHAR 019F
ENCODING 415
SWIDTH 488 0
DWIDTH 19 0
BBX 17 26 1 -1
BITMAP
00C000
07F800
1FFC00
3E3E00
380F00
780700
700700
700780
F00380
F00380
E00380
E00380
FFFF80
FFFF80
E00380
E00380
F00380
700380
700780
700700
780700
3C0F00
1E3E00
1FFC00
07F800
008000
ENDCHAR
STARTCHAR 01A0
ENCODING 416
SWIDTH 488 0
DWIDTH 19 0
BBX 18 29 1 -1
BITMAP
0001C0
0001C0
0001C0
0081C0
07FBC0
1FFF80
3E3F00
3C0F00
780700
700700
700780
F00380
F00380
E00380
E00380
E00380
E00380
E00380
E00380
F00380
700380
700780
700700
780700
3C0F00
1E3E00
1FFC00
07F800
008000
ENDCHAR
STARTCHAR 01A1
ENCODING 417
SWIDTH 488 0
DWIDTH 19 0
BBX 17 22 2 0
BITMAP
000700
000780
000700
000700
0FF700
3FFE00
3EFE00
781E00
F01E00
E00E00
E00F00
E00F00
E00700
E00700
E00F00
E00F00
E00E00
F01E00
781E00
3EFC00
3FF800
0FF000
ENDCHAR
STARTCHAR 01A2
ENCODING 418
SWIDTH 488 0
DWIDTH 19 0
BBX 16 26 2 -1
BITMAP
0C10
3F7E
3FFE
73CF
71C7
E1C7
E1E7
E0E7
E0E7
E0E7
E0E7
E0E7
E0E7
E0E7
E0E7
E0E7
E0E7
E0E7
E0E7
E1C7
F1C7
71C7
7BC7
3F87
1F07
0400
ENDCHAR
STARTCHAR 01A3
ENCODING 419
SWIDTH 488 0
DWIDTH 19 0
BBX 16 24 1 -6
BITMAP
1F7E
3FFF
7BEF
71C7
E1C7
E0E7
E0E7
E0E7
E0E7
E0E7
E0E7
E0E7
E1E7
61C7
71C7
7BC7
3F87
1F07
0007
0007
0007
0007
0007
0007
ENDCHAR
STARTCHAR 01A4
ENCODING 420
SWIDTH 488 0
DWIDTH 19 0
BBX 17 24 1 0
BITMAP
1FFC00
7FFE00
FF9F00
E70780
E70380
C70380
E70380
070380
070380
070380
070780
070700
07FF00
07FE00
07F800
070000
070000
070000
070000
070000
070000
070000
070000
070000
ENDCHAR
STARTCHAR 01A5
ENCODING 421
SWIDTH 488 0
DWIDTH 19 0
BBX 15 33 3 -6
BITMAP
3E00
7E00
FE00
F000
E000
E000
E000
E000
E000
FFC0
FFF0
F9F8
E07C
E03C
E01C
E01E
E01E
E00E
E00E
E01E
E01E
E01C
E01C
E03C
FFF8
FFF0
FFE0
E000
E000
E000
E000
E000
E000
ENDCHAR
STARTCHAR 01A6
ENCODING 422
SWIDTH 488 0
DWIDTH 19 0
BBX 17 31 2 -4
BITMAP
E00000
E00000
E00000
FFE000
FFF000
F1F800
E03C00
E01C00
E01E00
E01E00
E01E00
E01E00
E01C00
E03C00
E07800
FFF000
FFE000
FFE000
E0E000
E0F000
E07000
E07800
E03800
E03C00
E01C00
E01E00
E00E00
000F00
000700
000780
000780
ENDCHAR
STARTCHAR 01A7
ENCODING 423
SWIDTH 488 0
DWIDTH 19 0
BBX 15 26 2 -1
BITMAP
0700
3FF0
7FF8
387C
001C
001E
000E
001E
001E
003C
007C
01F8
0FF0
1F80
3E00
7800
F000
F000
E000
E000
F000
7000
7C1E
3FFE
1FFC
0180
ENDCHAR
STARTCHAR 01A8
ENCODING 424
SWIDTH 488 0
DWIDTH 19 0
BBX 14 18 3 0
BITMAP
FFE0
7FF0
60F8
0038
0038
0038
0078
03F0
1FE0
3F80
7C00
F000
E000
E000
E000
F878
7FFC
3FF8
ENDCHAR
STARTCHAR 01A9
ENCODING 425
SWIDTH 488 0
DWIDTH 19 0
BBX 15 24 2 0
BITMAP
FFFE
FFFE
FFFE
7800
3800
1C00
1E00
0F00
0700
0380
03C0
01E0
03C0
0380
0700
0E00
1E00
3C00
3800
7000
F000
FFFE
FFFE
FFFE
ENDCHAR
STARTCHAR 01AA
ENCODING 426
SWIDTH 488 0
DWIDTH 19 0
BBX 15 33 2 -6
BITMAP
3E00
7F80
FF80
E3C0
C1C0
C1C0
E3C0
FFC0
7FC0
01C0
01C0
01C0
01C0
01C0
01C0
01C0
01C0
01C0
01C0
01C0
01C0
01C0
01C0
01C0
01C0
01C0
01C0
01C0
01C0
01E0
00F8
00FE
003E
ENDCHAR
STARTCHAR 01AB
ENCODING 427
SWIDTH 488 0
DWIDTH 19 0
BBX 16 30 2 -6
BITMAP
0E00
0E00
0E00
0E00
0E00
FFFE
FFFE
FFFE
0E00
0E00
0E00
0E00
0E00
0E00
0E00
0E00
0E00
0F00
0F00
0700
07E7
07FF
01FF
0007
0007
0007
000E
007E
007C
0020
ENDCHAR
STARTCHAR 01AC
ENCODING 428
SWIDTH 488 0
DWIDTH 19 0
BBX 17 24 1 0
BITMAP
1FFF80
7FFF80
FFFF80
E0E000
E0E000
C0E000
E0E000
00E000
00E000
00E000
00E000
00E000
00E000
00E000
00E000
00E000
00E000
00E000
00E000
00E000
00E000
00E000
00E000
00E000
ENDCHAR
STARTCHAR 01AD
ENCODING 429
SWIDTH 488 0
DWIDTH 19 0
BBX 16 27 2 0
BITMAP
00FF
03FF
07FF
0780
0700
0F00
0E00
0E00
0E00
FFFE
FFFE
FFFE
0E00
0E00
0E00
0E00
0E00
0E00
0E00
0E00
0E00
0F00
0F00
0700
07EE
07FE
01FE
ENDCHAR
STARTCHAR 01AE
ENCODING 430
SWIDTH 488 0
DWIDTH 19 0
BBX 16 31 2 -7
BITMAP
FFFF
FFFF
FFFF
0380
0380
0380
0380
0380
0380
0380
0380
0380
0380
0380
0380
0380
0380
0380
0380
0380
0380
0380
0380
0380
0380
0380
03C0
01C0
01F8
00F8
0030
ENDCHAR
STARTCHAR 01AF
ENCODING 431
SWIDTH 488 0
DWIDTH 19 0
BBX 17 29 2 -1
BITMAP
000380
000380
000380
000780
E03F00
E03E00
E03800
E03800
E03800
E03800
E03800
E03800
E03800
E03800
E03800
E03800
E03800
E03800
E03800
E03800
E03800
E03800
E03800
E03800
F07800
78F000
3FF000
1FE000
020000
ENDCHAR
STARTCHAR 01B0
ENCODING 432
SWIDTH 488 0
DWIDTH 19 0
BBX 16 22 3 0
BITMAP
000E
000F
000E
000E
E07E
E07C
E070
E070
E070
E070
E070
E070
E070
E070
E070
E070
E070
E070
F070
7DF0
7FF0
3FF0
ENDCHAR
STARTCHAR 01B1
ENCODING 433
SWIDTH 488 0
DWIDTH 19 0
BBX 18 25 1 -1
BITMAP
FE3FC0
FE3FC0
FE3FC0
1C1C00
1C0E00
380E00
380700
700700
700700
700780
F00380
F00380
E00380
E00380
E00380
F00380
F00380
700780
700700
780700
3C0F00
3E3E00
1FFC00
07F800
008000
ENDCHAR
STARTCHAR 01B2
ENCODING 434
SWIDTH 488 0
DWIDTH 19 0
BBX 16 25 2 -1
BITMAP
E3E0
E3F8
E3FC
E03C
E01E
E00E
E00E
E00E
E00F
E00F
E007
E007
E007
E007
E00F
E00F
E00E
E00E
E00E
F01C
F03C
7CF8
3FF8
1FE0
0100
ENDCHAR
STARTCHAR 01B3
ENCODING 435
SWIDTH 488 0
DWIDTH 19 0
BBX 20 24 1 0
BITMAP
E003E0
F007F0
F00760
700E00
780E00
381C00
3C1C00
1C3800
1E3800
0E3800
077000
077000
03E000
03E000
01E000
01C000
01C000
01C000
01C000
01C000
01C000
01C000
01C000
01C000
ENDCHAR
STARTCHAR 01B4
ENCODING 436
SWIDTH 488 0
DWIDTH 19 0
BBX 18 26 1 -7
BITMAP
000100
F007C0
700FC0
701E00
781C00
781C00
381C00
381C00
3C3800
1C3800
1C3800
0E3800
0E7000
0F7000
077000
07E000
03E000
03E000
01C000
01C000
038000
038000
8F0000
FE0000
FC0000
300000
ENDCHAR
STARTCHAR 01B5
ENCODING 437
SWIDTH 488 0
DWIDTH 19 0
BBX 16 24 2 0
BITMAP
7FFE
7FFE
7FFE
001E
003C
0038
0078
00F0
00E0
01E0
7FFE
7FFE
7FFE
0700
0F00
0E00
1C00
3C00
3800
7800
7000
FFFF
FFFF
FFFF
ENDCHAR
STARTCHAR 01B6
ENCODING 438
SWIDTH 488 0
DWIDTH 19 0
BBX 14 18 3 0
BITMAP
FFF8
FFF8
FFF8
00F0
00E0
01E0
03C0
7FF8
7FF8
7FF8
1E00
1C00
3800
7800
7000
FFFC
FFFC
FFFC
ENDCHAR
STARTCHAR 01B7
ENCODING 439
SWIDTH 488 0
DWIDTH 19 0
BBX 17 25 1 -1
BITMAP
7FFF00
7FFF00
7FFF00
001E00
001C00
003C00
007800
00F000
01E000
03C000
07E000
07FC00
01FE00
000F00
000780
000380
000380
000380
000380
000780
400F00
F87F00
FFFE00
3FF800
030000
ENDCHAR
STARTCHAR 01B8
ENCODING 440
SWIDTH 488 0
DWIDTH 19 0
BBX 15 25 3 -1
BITMAP
FFFC
FFFC
FFFC
7800
3C00
1C00
1E00
0F00
0780
0380
07C0
1FC0
7F80
7800
F000
E000
E000
E000
E000
E000
F000
7C1C
3FFE
1FFC
0080
ENDCHAR
STARTCHAR 01B9
ENCODING 441
SWIDTH 488 0
DWIDTH 19 0
BBX 15 24 2 -6
BITMAP
7FFE
7FFE
3FFE
3C00
1E00
0E00
0700
0780
03C0
01C0
03E0
1FE0
3FC0
7800
7000
7000
F000
F000
7000
7000
7800
3F0E
1FFE
0FFE
ENDCHAR
STARTCHAR 01BA
ENCODING 442
SWIDTH 488 0
DWIDTH 19 0
BBX 14 25 2 -7
BITMAP
FFFC
FFFC
FFF8
0078
00F0
01E0
03C0
0780
0FC0
0FF0
01F8
003C
001C
001C
001C
003C
007C
07F8
3FF0
7F80
F800
E000
E000
E000
8000
ENDCHAR
STARTCHAR 01BB
ENCODING 443
SWIDTH 488 0
DWIDTH 19 0
BBX 15 25 2 0
BITMAP
0300
3FF0
7FF8
F87C
603C
001C
001C
001C
001C
001C
0038
0078
3FFE
3FFE
3FFE
0780
0F00
1E00
1C00
3C00
7800
7000
7FFE
7FFE
7FFE
ENDCHAR
STARTCHAR 01BC
ENCODING 444
SWIDTH 488 0
DWIDTH 19 0
BBX 15 25 2 -1
BITMAP
FFFC
FFFC
FFFC
1C00
1C00
1C00
1800
1800
3800
3F00
3FE0
3FF8
00FC
003C
001E
000E
000E
000E
000E
001E
001C
70FC
7FF8
7FE0
0200
ENDCHAR
STARTCHAR 01BD
ENCODING 445
SWIDTH 488 0
DWIDTH 19 0
BBX 15 18 2 0
BITMAP
FFFC
FFFC
FFFC
1C00
1C00
1C00
1C00
1FE0
1FF8
00FC
001E
000E
000E
000E
001E
787C
7FF8
7FF0
ENDCHAR
STARTCHAR 01BE
ENCODING 446
SWIDTH 488 0
DWIDTH 19 0
BBX 16 23 2 1
BITMAP
0E00
0E00
0E00
0E00
0E00
FFFE
FFFE
FFFE
0E00
0E00
0F00
0700
07C0
03F8
01FC
003E
000F
0007
0007
200F
3E1E
3FFE
3FF8
ENDCHAR
STARTCHAR 01BF
ENCODING 447
SWIDTH 488 0
DWIDTH 19 0
BBX 15 24 3 -6
BITMAP
7FE0
FFF8
FDF8
E03C
E01C
E01E
E00E
E00E
E00E
E01E
E01E
E01C
E03C
E078
E0F8
E3F0
EFC0
FF80
FE00
F000
E000
E000
E000
E000
ENDCHAR
STARTCHAR 01C0
ENCODING 448
SWIDTH 488 0
DWIDTH 19 0
BBX 3 33 8 -6
BITMAP
E0
E0
E0
E0
E0
E0
E0
E0
E0
E0
E0
E0
E0
E0
E0
E0
E0
E0
E0
E0
E0
E0
E0
E0
E0
E0
E0
E0
E0
E0
E0
E0
E0
ENDCHAR
STARTCHAR 01C1
ENCODING 449
SWIDTH 488 0
DWIDTH 19 0
BBX 10 33 5 -6
BITMAP
E1C0
E1C0
E1C0
E1C0
E1C0
E1C0
E1C0
E1C0
E1C0
E1C0
E1C0
E1C0
E1C0
E1C0
E1C0
E1C0
E1C0
E1C0
E1C0
E1C0
E1C0
E1C0
E1C0
E1C0
E1C0
E1C0
E1C0
E1C0
E1C0
E1C0
E1C0
E1C0
E1C0
ENDCHAR
STARTCHAR 01C2
ENCODING 450
SWIDTH 488 0
DWIDTH 19 0
BBX 17 33 1 -6
BITMAP
01C000
01C000
01C000
01C000
01C000
01C000
01C000
01C000
01C000
01C000
01C000
01C000
FFFF80
FFFF80
01C000
01C000
01C000
01C000
01C000
FFFF80
FFFF80
01C000
01C000
01C000
01C000
01C000
01C000
01C000
01C000
01C000
01C000
01C000
01C000
ENDCHAR
STARTCHAR 01C3
ENCODING 451
SWIDTH 488 0
DWIDTH 19 0
BBX 5 24 7 0
BITMAP
70
70
70
70
70
70
70
70
70
70
70
70
70
70
70
30
00
00
00
70
F8
F8
F8
78
ENDCHAR
STARTCHAR 01C4
ENCODING 452
SWIDTH 488 0
DWIDTH 19 0
BBX 18 32 1 0
BITMAP
002040
0070C0
003980
001F80
000F00
000600
000000
000000
FC1FC0
FE1FC0
EF1FC0
E70180
E38380
E38380
E38380
E38700
E18700
E18700
E1C600
E1CE00
E1CE00
E1CE00
E18C00
E18C00
E39C00
E39C00
E39800
E39800
E73800
FF3FC0
FE3FC0
FC3FC0
ENDCHAR
STARTCHAR 01C5
ENCODING 453
SWIDTH 488 0
DWIDTH 19 0
BBX 18 25 1 0
BITMAP
000840
FC0FC0
FE0780
EF0300
E70000
E38000
E38000
E39FC0
E39FC0
E19FC0
E18180
E1C180
E1C380
E1C300
E1C700
E18700
E18600
E38600
E38E00
E38C00
E38C00
E71C00
FF1FC0
FE1FC0
FC1FC0
ENDCHAR
STARTCHAR 01C6
ENCODING 454
SWIDTH 488 0
DWIDTH 19 0
BBX 19 27 0 0
BITMAP
00C000
01C000
01C420
01C7E0
01C3C0
01C180
01C000
01C000
01C000
1FC7E0
3FC7E0
73C7E0
71C0E0
61C0C0
E1C0C0
E1C1C0
E1C180
E1C180
E1C380
E1C300
E1C300
E1C700
61C600
71C600
79CFE0
3FCFE0
1FCFE0
ENDCHAR
STARTCHAR 01C7
ENCODING 455
SWIDTH 488 0
DWIDTH 19 0
BBX 17 24 1 0
BITMAP
F00380
F00380
F00380
F00380
F00380
F00380
F00380
F00380
F00380
F00380
F00380
F00380
F00380
F00380
F00380
F00380
F00380
F00380
F00380
F00380
F00780
FFBF80
FFBF00
FFBC00
ENDCHAR
STARTCHAR 01C8
ENCODING 456
SWIDTH 488 0
DWIDTH 19 0
BBX 16 33 2 -7
BITMAP
0006
000F
E00F
E00F
E006
E000
E000
E000
E00F
E00F
E00F
E00F
E00F
E00F
E00F
E00F
E00F
E00F
E00F
E00F
E00F
E00F
E00F
FFCF
FFCF
FFCF
000F
000F
000E
001E
00FC
01F8
0040
ENDCHAR
STARTCHAR 01C9
ENCODING 457
SWIDTH 488 0
DWIDTH 19 0
BBX 12 34 4 -7
BITMAP
E000
E060
E0F0
E0F0
E0F0
E060
E000
E000
E000
E0F0
E0F0
E0F0
E0F0
E0F0
E0F0
E0F0
E0F0
E0F0
E0F0
E0F0
E0F0
E0F0
E0F0
E0F0
F8F0
78F0
78F0
00F0
00F0
00E0
01E0
1FC0
1F80
0400
ENDCHAR
STARTCHAR 01CA
ENCODING 458
SWIDTH 488 0
DWIDTH 19 0
BBX 17 24 1 0
BITMAP
E1C180
E1C180
F1C180
F1C180
F1C180
F1C180
F9C180
D9C180
F9C180
FDC180
FDC180
EDC180
EDC180
EFC180
EFC180
E6C180
E6C180
E7C180
E3C180
E3C380
E3C380
E3DF80
E1DF00
E1DC00
ENDCHAR
STARTCHAR 01CB
ENCODING 459
SWIDTH 488 0
DWIDTH 19 0
BBX 18 33 1 -7
BITMAP
000300
000780
E1C7C0
E1C780
F1C380
F1C000
F1C000
F1C000
F9C380
D9C380
F9C380
FDC380
FDC380
EDC380
EDC380
EFC380
EFC380
E6C380
E6C380
E7C380
E3C380
E3C380
E3C380
E3C380
E1C380
E1C380
000380
000380
000700
000F00
007F00
007E00
002000
ENDCHAR
STARTCHAR 01CC
ENCODING 460
SWIDTH 488 0
DWIDTH 19 0
BBX 17 33 1 -7
BITMAP
000300
000780
000780
000780
000300
000000
000000
000000
FF8380
FF8380
F3C380
E1C380
E1C380
E1C380
E1C380
E1C380
E1C380
E1C380
E1C380
E1C380
E1C380
E1C380
E1C380
E1C380
E1C380
E1C380
000380
000380
000700
000F00
007E00
00FC00
002000
ENDCHAR
STARTCHAR 01CD
ENCODING 461
SWIDTH 488 0
DWIDTH 19 0
BBX 19 32 0 0
BITMAP
020C00
071C00
03B800
01F000
00E000
004000
000000
000000
00F000
01F000
01F800
03B800
03B800
039C00
071C00
071C00
070E00
0E0E00
0E0E00
0E0700
0C0700
1C0700
1C0780
1FFF80
3FFF80
3FFF80
3803C0
3801C0
7001C0
7001C0
7001E0
F000E0
ENDCHAR
STARTCHAR 01CE
ENCODING 462
SWIDTH 488 0
DWIDTH 19 0
BBX 15 27 2 0
BITMAP
0800
1C30
0EF0
07E0
03C0
0180
0000
0000
0000
3FF0
3FF8
307C
001C
001E
000E
000E
0FFE
3FFE
7FFE
780E
F00E
F00E
F00E
F00E
7C1E
3FFE
1FFE
ENDCHAR
STARTCHAR 01CF
ENCODING 463
SWIDTH 488 0
DWIDTH 19 0
BBX 13 32 3 0
BITMAP
1060
38E0
1DC0
0F80
0700
0200
0000
0000
FFF8
FFF8
FFF8
0700
0700
0700
0700
0700
0700
0700
0700
0700
0700
0700
0700
0700
0700
0700
0700
0700
0700
FFF8
FFF8
FFF8
ENDCHAR
STARTCHAR 01D0
ENCODING 464
SWIDTH 488 0
DWIDTH 19 0
BBX 15 27 2 0
BITMAP
0040
30E0
3DC0
1F80
0F00
0600
0200
0000
0000
FF80
FF80
FF80
0780
0780
0780
0780
0780
0780
0780
0780
0780
0780
0780
0380
03EE
03FE
01FE
ENDCHAR
STARTCHAR 01D1
ENCODING 465
SWIDTH 488 0
DWIDTH 19 0
BBX 17 33 1 -1
BITMAP
041800
0E3800
077000
03E000
01C000
008000
000000
00C000
07F800
1FFC00
3E3E00
3C0F00
780700
700700
700780
F00380
F00380
E00380
E00380
E00380
E00380
E00380
E00380
F00380
700380
700780
700700
780700
3C0F00
1E3E00
1FFC00
07F800
008000
ENDCHAR
STARTCHAR 01D2
ENCODING 466
SWIDTH 488 0
DWIDTH 19 0
BBX 16 27 2 0
BITMAP
0800
1C30
0EF0
07E0
03C0
0180
0000
0000
0000
0FF0
3FF8
3EFC
781E
F01E
E00E
E00F
E00F
E007
E007
E00F
E00F
E00E
F01E
781E
3EFC
3FF8
0FF0
ENDCHAR
STARTCHAR 01D3
ENCODING 467
SWIDTH 488 0
DWIDTH 19 0
BBX 16 33 2 -1
BITMAP
0830
1C70
0EE0
07C0
0380
0100
0000
0000
E00F
E00F
E00F
E00F
E00F
E00F
E00F
E00F
E00F
E00F
E00F
E00F
E00F
E00F
E00F
E00F
E00F
E00E
E00E
F00E
701E
7C7C
3FF8
1FF0
0100
ENDCHAR
STARTCHAR 01D4
ENCODING 468
SWIDTH 488 0
DWIDTH 19 0
BBX 14 27 3 0
BITMAP
1000
3860
1DE0
0FC0
0780
0300
0000
0000
0000
E03C
E03C
E03C
E03C
E03C
E03C
E03C
E03C
E03C
E03C
E03C
E03C
E03C
E03C
F03C
7EFC
3FFC
1FFC
ENDCHAR
STARTCHAR 01D5
ENCODING 469
SWIDTH 488 0
DWIDTH 19 0
BBX 16 33 2 -1
BITMAP
1FF0
1FF0
0000
1C30
3C78
3C78
1830
0000
0000
E00F
E00F
E00F
E00F
E00F
E00F
E00F
E00F
E00F
E00F
E00F
E00F
E00F
E00F
E00F
E00F
E00E
E00E
F00E
701E
7C7C
3FF8
1FF0
0100
ENDCHAR
STARTCHAR 01D6
ENCODING 470
SWIDTH 488 0
DWIDTH 19 0
BBX 14 28 3 0
BITMAP
3FE0
3FE0
0000
0000
3870
78F0
78F0
3060
0000
0000
E03C
E03C
E03C
E03C
E03C
E03C
E03C
E03C
E03C
E03C
E03C
E03C
E03C
E03C
F03C
7EFC
3FFC
1FFC
ENDCHAR
STARTCHAR 01D7
ENCODING 471
SWIDTH 488 0
DWIDTH 19 0
BBX 16 33 2 -1
BITMAP
00C0
00E0
01C0
7B9C
791C
781C
0000
0000
E00F
E00F
E00F
E00F
E00F
E00F
E00F
E00F
E00F
E00F
E00F
E00F
E00F
E00F
E00F
E00F
E00F
E00E
E00E
F00E
701E
7C7C
3FF8
1FF0
0100
ENDCHAR
STARTCHAR 01D8
ENCODING 472
SWIDTH 488 0
DWIDTH 19 0
BBX 14 30 3 0
BITMAP
0080
00C0
01C0
0380
0380
0300
3870
7870
7870
3020
0000
0000
E03C
E03C
E03C
E03C
E03C
E03C
E03C
E03C
E03C
E03C
E03C
E03C
E03C
E03C
F03C
7EFC
3FFC
1FFC
ENDCHAR
STARTCHAR 01D9
ENCODING 473
SWIDTH 488 0
DWIDTH 19 0
BBX 16 33 2 -1
BITMAP
0640
07E0
0380
791C
781C
781C
0000
0000
E00F
E00F
E00F
E00F
E00F
E00F
E00F
E00F
E00F
E00F
E00F
E00F
E00F
E00F
E00F
E00F
E00F
E00E
E00E
F00E
701E
7C7C
3FF8
1FF0
0100
ENDCHAR
STARTCHAR 01DA
ENCODING 474
SWIDTH 488 0
DWIDTH 19 0
BBX 14 29 3 0
BITMAP
1040
1CE0
1FC0
0780
0200
3870
7870
7870
3020
0000
0000
E03C
E03C
E03C
E03C
E03C
E03C
E03C
E03C
E03C
E03C
E03C
E03C
E03C
E03C
F03C
7EFC
3FFC
1FFC
ENDCHAR
STARTCHAR 01DB
ENCODING 475
SWIDTH 488 0
DWIDTH 19 0
BBX 16 33 2 -1
BITMAP
0200
0700
0380
7B9C
799C
781C
0000
0000
E00F
E00F
E00F
E00F
E00F
E00F
E00F
E00F
E00F
E00F
E00F
E00F
E00F
E00F
E00F
E00F
E00F
E00E
E00E
F00E
701E
7C7C
3FF8
1FF0
0100
ENDCHAR
STARTCHAR 01DC
ENCODING 476
SWIDTH 488 0
DWIDTH 19 0
BBX 14 29 3 1
BITMAP
0C00
1C00
0E00
0700
0300
3870
7870
7870
3020
0000
0000
E03C
E03C
E03C
E03C
E03C
E03C
E03C
E03C
E03C
E03C
E03C
E03C
E03C
E03C
F03C
7EFC
3FFC
1FFC
ENDCHAR
STARTCHAR 01DD
ENCODING 477
SWIDTH 488 0
DWIDTH 19 0
BBX 16 18 2 0
BITMAP
7FE0
7FF8
79FC
003E
001E
000E
000F
000F
FFFF
FFFF
FFFF
E00F
E00E
F01E
701C
7CFC
3FF8
1FE0
ENDCHAR
STARTCHAR 01DE
ENCODING 478
SWIDTH 488 0
DWIDTH 19 0
BBX 19 32 0 0
BITMAP
07FC00
07FC00
000000
070C00
0F1E00
0F1E00
060C00
000000
000000
01F000
01F000
01F800
03B800
03BC00
039C00
071C00
071E00
070E00
0E0E00
0E0F00
0E0700
1C0700
1C0700
1FFF80
3FFF80
3FFF80
3803C0
3801C0
7001C0
7001C0
7001E0
F000E0
ENDCHAR
STARTCHAR 01DF
ENCODING 479
SWIDTH 488 0
DWIDTH 19 0
BBX 15 28 2 0
BITMAP
1FF0
1FF0
0000
0000
1C38
3C78
3C78
1830
0000
0000
3FF0
3FF8
307C
001C
001E
000E
000E
0FFE
3FFE
7FFE
780E
F00E
F00E
F00E
F00E
7C1E
3FFE
1FFE
ENDCHAR
STARTCHAR 01E0
ENCODING 480
SWIDTH 488 0
DWIDTH 19 0
BBX 19 32 0 0
BITMAP
07FC00
07FC00
000000
00E000
00F000
00F000
006000
000000
000000
01F000
01F000
01F800
03B800
03BC00
039C00
071C00
071E00
070E00
0E0E00
0E0F00
0E0700
1C0700
1C0700
1FFF80
3FFF80
3FFF80
3803C0
3801C0
7001C0
7001C0
7001E0
F000E0
ENDCHAR
STARTCHAR 01E1
ENCODING 481
SWIDTH 488 0
DWIDTH 19 0
BBX 15 28 2 0
BITMAP
1FF0
1FF0
0000
0000
0380
03C0
0380
0100
0000
0000
3FF0
3FF8
307C
001C
001E
000E
000E
0FFE
3FFE
7FFE
780E
F00E
F00E
F00E
F00E
7C1E
3FFE
1FFE
ENDCHAR
STARTCHAR 01E2
ENCODING 482
SWIDTH 488 0
DWIDTH 19 0
BBX 18 30 1 0
BITMAP
01FF80
01FF80
000000
000000
000000
000000
01FF80
01FF80
01FF80
03F000
037000
077000
077000
077000
0E7000
0E7000
0E7F00
0C7F00
1C7F00
1C7000
1C7000
3FF000
3FF000
3FF000
707000
707000
707000
707FC0
F07FC0
E07FC0
ENDCHAR
STARTCHAR 01E3
ENCODING 483
SWIDTH 488 0
DWIDTH 19 0
BBX 18 25 1 0
BITMAP
0FFC00
0FFC00
0FFC00
000000
000000
000000
000000
7F3E00
3FBF00
23F780
01E380
01E380
01E180
01C180
1FFFC0
3FFFC0
7FFFC0
71C000
E1C000
E0E000
E0E000
F0F000
7BFF80
7FFF80
3F9F80
ENDCHAR
STARTCHAR 01E4
ENCODING 484
SWIDTH 488 0
DWIDTH 19 0
BBX 16 26 2 -1
BITMAP
00C0
07FC
0FFC
1E1C
3C04
7800
7000
7000
F000
E000
E000
E000
E01E
E01E
E01E
E01E
E07F
F07F
F01E
701E
781E
3C1E
3F1E
1FFE
07FE
0080
ENDCHAR
STARTCHAR 01E5
ENCODING 485
SWIDTH 488 0
DWIDTH 19 0
BBX 17 25 2 -7
BITMAP
0FFC00
3FFC00
7E7C00
781C00
F01C00
E01C00
E01C00
E1FF80
E1FF80
E1FF80
E01C00
E01C00
F01C00
701C00
7FFC00
3FFC00
1FFC00
001C00
001C00
003C00
003800
70F800
7FF000
FFE000
0C0000
ENDCHAR
STARTCHAR 01E6
ENCODING 486
SWIDTH 488 0
DWIDTH 19 0
BBX 16 33 2 -1
BITMAP
020C
071C
03B8
01F0
00E0
0060
0000
0070
07FE
0FFE
1F0E
3C02
7800
7800
7000
F000
E000
E000
E000
E000
E00F
E00F
E00F
E00F
F00F
700F
700F
780F
3C0F
1F0F
0FFF
07FE
0040
ENDCHAR
STARTCHAR 01E7
ENCODING 487
SWIDTH 488 0
DWIDTH 19 0
BBX 15 33 2 -7
BITMAP
0010
0E38
0F70
07E0
03C0
01C0
0080
0000
0000
0FFE
3FFE
7E3E
781E
F01E
E01E
E01E
E01E
E01E
E01E
E01E
E01E
F01E
781E
7FFE
3FFE
1FFE
001E
001E
001C
003C
70FC
7FF8
FFE0
ENDCHAR
STARTCHAR 01E8
ENCODING 488
SWIDTH 488 0
DWIDTH 19 0
BBX 17 32 2 0
BITMAP
083000
1C7000
0EE000
07C000
038000
010000
000000
000000
F00F00
F01E00
F01C00
F03C00
F07800
F0F000
F1E000
F1E000
F3C000
F78000
FF0000
FF0000
FF8000
F7C000
F3E000
F1F000
F0F000
F07800
F03C00
F01E00
F01E00
F00F00
F00700
F00780
ENDCHAR
STARTCHAR 01E9
ENCODING 489
SWIDTH 488 0
DWIDTH 19 0
BBX 16 32 2 0
BITMAP
C300
EF00
7E00
1800
0000
0000
3000
7000
7000
7000
7000
7000
7000
7000
700E
701C
7038
7070
71E0
73C0
7780
7F00
7F00
7F80
73C0
71E0
70F0
7078
703C
701E
700F
700F
ENDCHAR
STARTCHAR 01EA
ENCODING 490
SWIDTH 488 0
DWIDTH 19 0
BBX 17 32 1 -7
BITMAP
00C000
07F800
1FFC00
3E3E00
380F00
780700
700700
700780
F00380
F00380
E00380
E00380
E00380
E00380
E00380
E00380
F00380
F00380
700780
700700
780700
3C0F00
1E3E00
1FFC00
07F800
00F000
00E000
01C000
01C000
01F000
01F800
002000
ENDCHAR
STARTCHAR 01EB
ENCODING 491
SWIDTH 488 0
DWIDTH 19 0
BBX 16 25 2 -7
BITMAP
0FF0
3FF8
3EFC
781E
F01E
E00E
E00F
E00F
E007
E007
E00F
E00F
E00E
F01E
781E
3EFC
1FF8
0FF0
01C0
0380
0700
0700
07E0
03E0
0080
ENDCHAR
STARTCHAR 01EC
ENCODING 492
SWIDTH 488 0
DWIDTH 19 0
BBX 17 37 1 -7
BITMAP
0FFC00
0FFC00
000000
000000
000000
00C000
07F800
1FFC00
3E3E00
380F00
780700
700700
700780
F00380
F00380
E00380
E00380
E00380
E00380
E00380
E00380
F00380
F00380
700780
700700
780700
3C0F00
1E3E00
1FFC00
07F800
00F000
00E000
01C000
01C000
01F000
01F800
002000
ENDCHAR
STARTCHAR 01ED
ENCODING 493
SWIDTH 488 0
DWIDTH 19 0
BBX 16 32 2 -7
BITMAP
1FF8
1FF8
1FF8
0000
0000
0000
0000
0FF0
3FF8
3EFC
781E
F01E
E00E
E00F
E00F
E007
E007
E00F
E00F
E00E
F01E
781E
3EFC
1FF8
0FF0
01C0
0380
0700
0700
07E0
03E0
0080
ENDCHAR
STARTCHAR 01EE
ENCODING 494
SWIDTH 488 0
DWIDTH 19 0
BBX 17 33 1 -1
BITMAP
041800
0E3800
077000
03E000
01C000
008000
000000
000000
7FFF00
7FFF00
7FFF00
001E00
001C00
003C00
007800
00F000
01E000
03C000
07E000
07FC00
01FE00
000F00
000780
000380
000380
000380
000380
000780
400F00
F87F00
FFFE00
3FF800
030000
ENDCHAR
STARTCHAR 01EF
ENCODING 495
SWIDTH 488 0
DWIDTH 19 0
BBX 15 33 2 -6
BITMAP
0800
1C30
0EF0
07E0
03C0
0180
0000
0000
0000
FFFC
FFFC
FFFC
0078
0070
00E0
01E0
03C0
0380
0700
0F80
0FF0
07F8
003C
001C
001E
001E
001E
001E
001C
003C
F1F8
FFF0
FFE0
ENDCHAR
STARTCHAR 01F0
ENCODING 496
SWIDTH 488 0
DWIDTH 19 0
BBX 13 34 3 -7
BITMAP
0810
0C38
0E70
07E0
03C0
0180
0000
0000
0000
7FF0
7FF0
7FF0
0070
0070
0070
0070
0070
0070
0070
0070
0070
0070
0070
0070
0070
0070
0070
0070
0070
00F0
F1E0
FFE0
FFC0
0400
ENDCHAR
STARTCHAR 01F1
ENCODING 497
SWIDTH 488 0
DWIDTH 19 0
BBX 18 24 1 0
BITMAP
FC1FC0
FE1FC0
EF1FC0
E70180
E38380
E38380
E38380
E38700
E18700
E18700
E1C600
E1CE00
E1CE00
E1CE00
E18C00
E18C00
E39C00
E39C00
E39800
E39800
E73800
FF3FC0
FE3FC0
FC3FC0
ENDCHAR
STARTCHAR 01F2
ENCODING 498
SWIDTH 488 0
DWIDTH 19 0
BBX 18 24 1 0
BITMAP
FC0000
FE0000
EF0000
E70000
E38000
E38000
E39FC0
E39FC0
E19FC0
E18180
E1C180
E1C380
E1C300
E1C700
E18700
E18600
E38600
E38E00
E38C00
E38C00
E71C00
FF1FC0
FE1FC0
FC1FC0
ENDCHAR
STARTCHAR 01F3
ENCODING 499
SWIDTH 488 0
DWIDTH 19 0
BBX 19 27 0 0
BITMAP
00C000
01C000
01C000
01C000
01C000
01C000
01C000
01C000
01C000
1FC7E0
3FC7E0
73C7E0
71C0E0
61C0C0
E1C0C0
E1C1C0
E1C180
E1C180
E1C380
E1C300
E1C300
E1C700
61C600
71C600
79CFE0
3FCFE0
1FCFE0
ENDCHAR
STARTCHAR 01F4
ENCODING 500
SWIDTH 488 0
DWIDTH 19 0
BBX 16 33 2 -1
BITMAP
0010
0038
0078
00F0
01E0
01C0
0000
0070
07FE
0FFE
1F0E
3C02
7800
7800
7000
F000
E000
E000
E000
E000
E00F
E00F
E00F
E00F
F00F
700F
700F
780F
3C0F
1F0F
0FFF
07FE
0040
ENDCHAR
STARTCHAR 01F5
ENCODING 501
SWIDTH 488 0
DWIDTH 19 0
BBX 15 33 2 -7
BITMAP
0020
0070
0070
00E0
01C0
0380
0100
0000
0000
0FFE
3FFE
7E3E
781E
F01E
E01E
E01E
E01E
E01E
E01E
E01E
E01E
F01E
781E
7FFE
3FFE
1FFE
001E
001E
001C
003C
70FC
7FF8
FFE0
ENDCHAR
STARTCHAR 01F6
ENCODING 502
SWIDTH 488 0
DWIDTH 19 0
BBX 17 25 1 -1
BITMAP
E1C000
E1C000
E1C000
E1C000
E1C000
E1C000
E1C380
E1C380
E1C380
E1C380
FFC380
FFC380
FFC380
E1C380
E1C380
E1C380
E1C380
E1C380
E1E380
E0E380
E0E380
E0E700
E0FF00
E07E00
000800
ENDCHAR
STARTCHAR 01F7
ENCODING 503
SWIDTH 488 0
DWIDTH 19 0
BBX 15 30 3 -6
BITMAP
3FE0
FFF0
FDF8
E03C
E01C
E01E
E01E
E00E
E00E
E00E
E00E
E01E
E01C
E01C
E03C
E038
E078
E0F0
E1E0
E7C0
EF80
FF00
FC00
F000
E000
E000
E000
E000
E000
E000
ENDCHAR
STARTCHAR 01F8
ENCODING 504
SWIDTH 488 0
DWIDTH 19 0
BBX 15 32 2 0
BITMAP
0200
0700
0780
03C0
01C0
00C0
0000
0000
F00E
F00E
F80E
F80E
FC0E
FC0E
EE0E
EE0E
E70E
E70E
E38E
E38E
E1CE
E1CE
E0EE
E0EE
E07E
E07E
E03E
E03E
E01E
E01E
E01E
E00E
ENDCHAR
STARTCHAR 01F9
ENCODING 505
SWIDTH 488 0
DWIDTH 19 0
BBX 14 27 3 0
BITMAP
0800
1C00
1E00
0F00
0780
0380
0100
0000
0000
FFE0
FFF0
F9F8
E078
E038
E03C
E01C
E01C
E01C
E01C
E01C
E01C
E01C
E01C
E01C
E01C
E01C
E01C
ENDCHAR
STARTCHAR 01FA
ENCODING 506
SWIDTH 488 0
DWIDTH 19 0
BBX 19 32 0 0
BITMAP
003000
00F800
01F000
018000
000000
01F000
019800
011800
011800
01F800
01F000
01F800
03B800
039800
039C00
071C00
070C00
060E00
0E0E00
0E0E00
0E0700
1C0700
1C0700
1FFF80
3FFF80
3FFF80
3803C0
3801C0
7001C0
7001C0
7001E0
F000E0
ENDCHAR
STARTCHAR 01FB
ENCODING 507
SWIDTH 488 0
DWIDTH 19 0
BBX 15 31 2 1
BITMAP
00C0
03E0
07C0
0600
0000
07C0
0660
0C60
0460
07E0
03C0
0000
0000
3FF0
3FF8
307C
001C
001E
000E
000E
0FFE
3FFE
7FFE
780E
F00E
F00E
F00E
F00E
7C1E
3FFE
1FFE
ENDCHAR
STARTCHAR 01FC
ENCODING 508
SWIDTH 488 0
DWIDTH 19 0
BBX 18 32 1 0
BITMAP
000600
000F00
000E00
001C00
003800
003000
000000
000000
01FF80
01FF80
01FF80
03F000
037000
077000
077000
077000
0E7000
0E7000
0E7F00
0C7F00
1C7F00
1C7000
1C7000
3FF000
3FF000
3FF000
707000
707000
707000
707FC0
F07FC0
E07FC0
ENDCHAR
STARTCHAR 01FD
ENCODING 509
SWIDTH 488 0
DWIDTH 19 0
BBX 18 27 1 0
BITMAP
001000
003800
007800
007000
00E000
01C000
008000
000000
000000
7F3E00
3FBF00
23F780
01E380
01E380
01E180
01C180
1FFFC0
3FFFC0
7FFFC0
71C000
E1C000
E0E000
E0E000
F0F000
7BFF80
7FFF80
3F9F80
ENDCHAR
STARTCHAR 01FE
ENCODING 510
SWIDTH 488 0
DWIDTH 19 0
BBX 17 33 1 -1
BITMAP
003000
007800
007000
00E000
01C000
018000
000000
00C600
07FF00
1FFE00
3E1E00
3C1F00
781F00
703F00
703F80
F07380
F07380
E0E380
E0E380
E1C380
E1C380
E38380
E38380
F70380
F70380
7E0780
7E0700
7C0700
3C0F00
3E3E00
3FFC00
37F800
308000
ENDCHAR
STARTCHAR 01FF
ENCODING 511
SWIDTH 488 0
DWIDTH 19 0
BBX 16 27 2 0
BITMAP
0060
00F0
01E0
03C0
0380
0100
0000
0006
0FF6
3FFE
3E7C
783E
F03E
E07E
E0EF
E1CF
E1C7
E387
E70F
EE0F
EE0E
FC1E
781E
7EFC
7FF8
EFF0
4000
ENDCHAR
STARTCHAR 0200
ENCODING 512
SWIDTH 488 0
DWIDTH 19 0
BBX 19 32 0 0
BITMAP
041000
0E3800
073C00
079C00
038E00
01C600
000000
000000
00F000
01F000
01F800
03B800
03B800
039C00
071C00
071C00
070E00
0E0E00
0E0E00
0E0700
0C0700
1C0700
1C0780
1FFF80
3FFF80
3FFF80
3803C0
3801C0
7001C0
7001C0
7001E0
F000E0
ENDCHAR
STARTCHAR 0201
ENCODING 513
SWIDTH 488 0
DWIDTH 19 0
BBX 15 27 2 0
BITMAP
1040
38E0
3CE0
1C70
0E38
071C
0200
0000
0000
3FF0
3FF8
307C
001C
001E
000E
000E
0FFE
3FFE
7FFE
780E
F00E
F00E
F00E
F00E
7C1E
3FFE
1FFE
ENDCHAR
STARTCHAR 0202
ENCODING 514
SWIDTH 488 0
DWIDTH 19 0
BBX 19 31 0 0
BITMAP
01F800
03FC00
071C00
060C00
000000
000000
000000
00F000
01F000
01F800
03B800
03B800
039C00
071C00
071C00
070E00
0E0E00
0E0E00
0E0700
0C0700
1C0700
1C0780
1FFF80
3FFF80
3FFF80
3803C0
3801C0
7001C0
7001C0
7001E0
F000E0
ENDCHAR
STARTCHAR 0203
ENCODING 515
SWIDTH 488 0
DWIDTH 19 0
BBX 15 26 2 0
BITMAP
07C0
0FE0
0E70
1C30
1830
0000
0000
0000
3FF0
3FF8
307C
001C
001E
000E
000E
0FFE
3FFE
7FFE
780E
F00E
F00E
F00E
F00E
7C1E
3FFE
1FFE
ENDCHAR
STARTCHAR 0204
ENCODING 516
SWIDTH 488 0
DWIDTH 19 0
BBX 14 32 4 0
BITMAP
4100
E380
73C0
79C0
38E0
1C60
0000
0000
FFF8
FFF8
FFF8
E000
E000
E000
E000
E000
E000
E000
FFF0
FFF0
FFF0
E000
E000
E000
E000
E000
E000
E000
E000
FFFC
FFFC
FFFC
ENDCHAR
STARTCHAR 0205
ENCODING 517
SWIDTH 488 0
DWIDTH 19 0
BBX 16 27 2 0
BITMAP
1040
38E0
3CE0
1C70
0E38
071C
0200
0000
0000
0FF0
1FF8
3E7C
781E
F00E
E00E
E00F
FFFF
FFFF
FFFF
E000
E000
E000
F000
7800
3FBC
1FFC
0FFC
ENDCHAR
STARTCHAR 0206
ENCODING 518
SWIDTH 488 0
DWIDTH 19 0
BBX 14 31 4 0
BITMAP
0FC0
1FE0
38E0
3060
0000
0000
0000
FFF8
FFF8
FFF8
E000
E000
E000
E000
E000
E000
E000
FFF0
FFF0
FFF0
E000
E000
E000
E000
E000
E000
E000
E000
FFFC
FFFC
FFFC
ENDCHAR
STARTCHAR 0207
ENCODING 519
SWIDTH 488 0
DWIDTH 19 0
BBX 16 26 2 0
BITMAP
03E0
07F0
0E78
0C18
0C18
0000
0000
0000
0FF0
1FF8
3E7C
781E
F00E
E00E
E00F
FFFF
FFFF
FFFF
E000
E000
E000
F000
7800
3FBC
1FFC
0FFC
ENDCHAR
STARTCHAR 0208
ENCODING 520
SWIDTH 488 0
DWIDTH 19 0
BBX 13 32 3 0
BITMAP
6100
E380
71C0
38E0
1CE0
0C70
0800
0000
FFF8
FFF8
FFF8
0700
0700
0700
0700
0700
0700
0700
0700
0700
0700
0700
0700
0700
0700
0700
0700
0700
0700
FFF8
FFF8
FFF8
ENDCHAR
STARTCHAR 0209
ENCODING 521
SWIDTH 488 0
DWIDTH 19 0
BBX 15 27 2 0
BITMAP
4100
E380
F380
71C0
38E0
1C60
0800
0000
0000
FF80
FF80
FF80
0780
0780
0780
0780
0780
0780
0780
0780
0780
0780
0780
0380
03EE
03FE
01FE
ENDCHAR
STARTCHAR 020A
ENCODING 522
SWIDTH 488 0
DWIDTH 19 0
BBX 13 31 3 0
BITMAP
0FC0
1FE0
38E0
3060
0000
0000
0000
FFF8
FFF8
FFF8
0700
0700
0700
0700
0700
0700
0700
0700
0700
0700
0700
0700
0700
0700
0700
0700
0700
0700
FFF8
FFF8
FFF8
ENDCHAR
STARTCHAR 020B
ENCODING 523
SWIDTH 488 0
DWIDTH 19 0
BBX 15 26 2 0
BITMAP
0F80
1FC0
39E0
3060
3060
0000
0000
0000
FF80
FF80
FF80
0780
0780
0780
0780
0780
0780
0780
0780
0780
0780
0780
0380
03EE
03FE
01FE
ENDCHAR
STARTCHAR 020C
ENCODING 524
SWIDTH 488 0
DWIDTH 19 0
BBX 17 33 1 -1
BITMAP
184000
38E000
1C7000
0E3800
073800
031C00
020000
00C000
07F800
1FFC00
3E3E00
3C0F00
780700
700700
700780
F00380
F00380
E00380
E00380
E00380
E00380
E00380
E00380
F00380
700380
700780
700700
780700
3C0F00
1E3E00
1FFC00
07F800
008000
ENDCHAR
STARTCHAR 020D
ENCODING 525
SWIDTH 488 0
DWIDTH 19 0
BBX 16 27 2 0
BITMAP
1080
31C0
39E0
1CE0
1C70
0E38
0410
0000
0000
0FF0
3FF8
3EFC
781E
F01E
E00E
E00F
E00F
E007
E007
E00F
E00F
E00E
F01E
781E
3EFC
3FF8
0FF0
ENDCHAR
STARTCHAR 020E
ENCODING 526
SWIDTH 488 0
DWIDTH 19 0
BBX 17 32 1 -1
BITMAP
03F000
07F800
0E3800
0C1800
000000
000000
00C000
07F800
1FFC00
3E3E00
3C0F00
780700
700700
700780
F00380
F00380
E00380
E00380
E00380
E00380
E00380
E00380
F00380
700380
700780
700700
780700
3C0F00
1E3E00
1FFC00
07F800
008000
ENDCHAR
STARTCHAR 020F
ENCODING 527
SWIDTH 488 0
DWIDTH 19 0
BBX 16 26 2 0
BITMAP
07C0
0FE0
0E70
1C30
1830
0000
0000
0000
0FF0
3FF8
3EFC
781E
F01E
E00E
E00F
E00F
E007
E007
E00F
E00F
E00E
F01E
781E
3EFC
3FF8
0FF0
ENDCHAR
STARTCHAR 0210
ENCODING 528
SWIDTH 488 0
DWIDTH 19 0
BBX 16 32 2 0
BITMAP
2080
71C0
39E0
3CE0
1C70
0E30
0000
0000
FFE0
FFF0
F1F8
E03C
E01C
E01E
E01E
E01E
E01E
E01C
E03C
E078
FFF0
FFE0
FFE0
E0E0
E070
E078
E038
E03C
E01C
E01E
E00E
E00F
ENDCHAR
STARTCHAR 0211
ENCODING 529
SWIDTH 488 0
DWIDTH 19 0
BBX 13 27 4 0
BITMAP
4200
C700
E780
7380
71C0
38E0
1040
0000
0000
3FF8
FFF8
FC38
E000
E000
E000
E000
E000
E000
E000
E000
E000
E000
E000
E000
E000
E000
E000
ENDCHAR
STARTCHAR 0212
ENCODING 530
SWIDTH 488 0
DWIDTH 19 0
BBX 16 31 2 0
BITMAP
0FC0
1FE0
38E0
3060
0000
0000
0000
FFE0
FFF0
F1F8
E03C
E01C
E01E
E01E
E01E
E01E
E01C
E03C
E078
FFF0
FFE0
FFE0
E0E0
E070
E078
E038
E03C
E01C
E01E
E00E
E00F
ENDCHAR
STARTCHAR 0213
ENCODING 531
SWIDTH 488 0
DWIDTH 19 0
BBX 13 26 4 0
BITMAP
0780
1FC0
1CE0
3860
3060
0000
0000
0000
3FF8
FFF8
FC38
E000
E000
E000
E000
E000
E000
E000
E000
E000
E000
E000
E000
E000
E000
E000
ENDCHAR
STARTCHAR 0214
ENCODING 532
SWIDTH 488 0
DWIDTH 19 0
BBX 16 33 2 -1
BITMAP
10C0
39E0
3CE0
1C70
0E38
0618
0000
0000
E00F
E00F
E00F
E00F
E00F
E00F
E00F
E00F
E00F
E00F
E00F
E00F
E00F
E00F
E00F
E00F
E00F
E00E
E00E
F00E
701E
7C7C
3FF8
1FF0
0100
ENDCHAR
STARTCHAR 0215
ENCODING 533
SWIDTH 488 0
DWIDTH 19 0
BBX 14 27 3 0
BITMAP
2100
6380
73C0
39C0
38E0
1C70
0820
0000
0000
E03C
E03C
E03C
E03C
E03C
E03C
E03C
E03C
E03C
E03C
E03C
E03C
E03C
E03C
F03C
7EFC
3FFC
1FFC
ENDCHAR
STARTCHAR 0216
ENCODING 534
SWIDTH 488 0
DWIDTH 19 0
BBX 16 32 2 -1
BITMAP
07E0
0FF0
1C70
1830
0000
0000
0000
E00F
E00F
E00F
E00F
E00F
E00F
E00F
E00F
E00F
E00F
E00F
E00F
E00F
E00F
E00F
E00F
E00F
E00E
E00E
F00E
701E
7C7C
3FF8
1FF0
0100
ENDCHAR
STARTCHAR 0217
ENCODING 535
SWIDTH 488 0
DWIDTH 19 0
BBX 14 26 3 0
BITMAP
0F80
1FC0
1CE0
3860
3060
0000
0000
0000
E03C
E03C
E03C
E03C
E03C
E03C
E03C
E03C
E03C
E03C
E03C
E03C
E03C
E03C
F03C
7EFC
3FFC
1FFC
ENDCHAR
STARTCHAR 0218
ENCODING 536
SWIDTH 488 0
DWIDTH 19 0
BBX 15 32 2 -7
BITMAP
01C0
0FFC
3FFC
3C1C
7800
7000
7000
7000
7000
7800
3E00
1F80
0FE0
03F8
00FC
003C
001E
000E
000E
000E
000E
401E
787C
FFFC
3FF0
0300
0000
0380
0380
0F80
1F00
0C00
ENDCHAR
STARTCHAR 0219
ENCODING 537
SWIDTH 488 0
DWIDTH 19 0
BBX 14 25 3 -7
BITMAP
3FF8
7FF8
F838
E000
E000
E000
F800
7E00
3FC0
0FF0
01F8
007C
003C
001C
803C
F8F8
FFF8
FFE0
0000
0000
0700
0700
1F00
3E00
1800
ENDCHAR
STARTCHAR 021A
ENCODING 538
SWIDTH 488 0
DWIDTH 19 0
BBX 16 31 2 -7
BITMAP
FFFF
FFFF
FFFF
0380
0380
0380
0380
0380
0380
0380
0380
0380
0380
0380
0380
0380
0380
0380
0380
0380
0380
0380
0380
0380
0000
0000
0380
0380
0F80
0F00
0C00
ENDCHAR
STARTCHAR 021B
ENCODING 539
SWIDTH 488 0
DWIDTH 19 0
BBX 15 30 2 -6
BITMAP
0E00
0E00
0E00
0E00
0E00
FFFE
FFFE
FFFE
0E00
0E00
0E00
0E00
0E00
0E00
0E00
0E00
0E00
0F00
0F00
0700
07EE
07FE
01FE
0000
0000
0070
00F0
01F0
03E0
0300
ENDCHAR
STARTCHAR 021C
ENCODING 540
SWIDTH 488 0
DWIDTH 19 0
BBX 17 31 1 -6
BITMAP
030000
7FF800
FFFC00
783E00
000F00
000F00
000700
000700
000700
000700
000F00
001E00
003C00
0FF800
0FF000
0FFC00
007E00
000F00
000780
000780
000380
000380
000380
000380
000780
000700
000F00
003E00
7FFC00
7FF000
FFC000
ENDCHAR
STARTCHAR 021D
ENCODING 541
SWIDTH 488 0
DWIDTH 19 0
BBX 15 24 2 -5
BITMAP
FFE0
FFF0
60F8
003C
001C
001C
001C
003C
0078
03F0
0FE0
0FF0
03F8
003C
001E
001E
000E
001E
001C
003C
00F8
1FF0
FFE0
FF00
ENDCHAR
STARTCHAR 021E
ENCODING 542
SWIDTH 488 0
DWIDTH 19 0
BBX 16 32 2 0
BITMAP
0830
1C70
0EE0
07C0
0380
0100
0000
0000
E00F
E00F
E00F
E00F
E00F
E00F
E00F
E00F
E00F
E00F
FFFF
FFFF
FFFF
E00F
E00F
E00F
E00F
E00F
E00F
E00F
E00F
E00F
E00F
E00F
ENDCHAR
STARTCHAR 021F
ENCODING 543
SWIDTH 488 0
DWIDTH 19 0
BBX 15 32 2 0
BITMAP
C300
FF00
7E00
1800
0000
0000
3000
7000
7000
7000
7000
7000
7000
7000
7FF0
7FF8
7EFC
703C
701C
701E
701E
700E
700E
700E
700E
700E
700E
700E
700E
700E
700E
700E
ENDCHAR
STARTCHAR 0220
ENCODING 544
SWIDTH 488 0
DWIDTH 19 0
BBX 16 31 2 -6
BITMAP
0180
FFF0
FFF8
F07C
E01E
E00E
E00E
E00F
E00F
E00F
E00F
E00F
E00F
E00F
E00F
E00F
E00F
E00F
E00F
E00F
E00F
E00F
E00F
E00F
E00F
000F
000F
000F
000F
000F
000F
ENDCHAR
STARTCHAR 0221
ENCODING 545
SWIDTH 488 0
DWIDTH 19 0
BBX 18 33 1 -7
BITMAP
007000
00F000
00F000
00F000
00F000
00F000
00F000
00F000
00F000
1FF000
3FF000
7BF000
70F000
F0F000
E0F000
E0F000
E0F000
E0F000
E0F000
E0F000
E0F000
F0F000
70F000
70F200
7DFF80
3FFFC0
1FF1C0
00F0C0
00F0C0
01F0C0
03F1C0
073FC0
061F80
ENDCHAR
STARTCHAR 0222
ENCODING 546
SWIDTH 488 0
DWIDTH 19 0
BBX 17 24 1 0
BITMAP
3C0E00
3C0E00
380E00
380E00
380E00
380E00
380E00
3C0E00
1C1E00
1F7C00
0FF800
1FFC00
3F3E00
780F00
700780
F00380
F00380
F00380
700380
700780
780F00
3FFF00
1FFE00
07F800
ENDCHAR
STARTCHAR 0223
ENCODING 547
SWIDTH 488 0
DWIDTH 19 0
BBX 17 27 1 0
BITMAP
380F00
380700
380700
380700
780700
780700
780700
380F00
380F00
3C1E00
1FFC00
0FF800
1FFE00
3C1E00
780F00
700780
700380
F00380
E00380
E00380
F00380
700380
700780
780F00
3F7E00
1FFC00
07F800
ENDCHAR
STARTCHAR 0224
ENCODING 548
SWIDTH 488 0
DWIDTH 19 0
BBX 16 31 2 -7
BITMAP
7FFE
7FFE
7FFE
001E
003C
0038
0078
00F0
00E0
01E0
01C0
0380
0780
0700
0F00
0E00
1C00
3C00
3800
7800
7000
FFFF
FFFF
FFFF
0007
000F
000F
000E
007E
007C
0020
ENDCHAR
STARTCHAR 0225
ENCODING 549
SWIDTH 488 0
DWIDTH 19 0
BBX 14 25 3 -7
BITMAP
FFF8
FFF8
FFF8
00F0
00F0
01E0
03C0
0780
0700
0F00
1E00
1C00
3800
7800
7000
FFFC
FFFC
FFFC
001C
001C
0038
0038
01F8
01F0
0080
ENDCHAR
STARTCHAR 0226
ENCODING 550
SWIDTH 488 0
DWIDTH 19 0
BBX 19 32 0 0
BITMAP
006000
00F000
01F000
00F000
00E000
000000
000000
000000
00F000
01F000
01F800
03B800
03B800
039C00
071C00
071C00
070E00
0E0E00
0E0E00
0E0700
0C0700
1C0700
1C0780
1FFF80
3FFF80
3FFF80
3803C0
3801C0
7001C0
7001C0
7001E0
F000E0
ENDCHAR
STARTCHAR 0227
ENCODING 551
SWIDTH 488 0
DWIDTH 19 0
BBX 15 26 2 0
BITMAP
0180
03C0
07C0
03C0
0380
0000
0000
0000
3FF0
3FF8
307C
001C
001E
000E
000E
0FFE
3FFE
7FFE
780E
F00E
F00E
F00E
F00E
7C1E
3FFE
1FFE
ENDCHAR
STARTCHAR 0228
ENCODING 552
SWIDTH 488 0
DWIDTH 19 0
BBX 14 31 4 -7
BITMAP
FFF8
FFF8
FFF8
E000
E000
E000
E000
E000
E000
E000
FFF0
FFF0
FFF0
E000
E000
E000
E000
E000
E000
E000
E000
FFFC
FFFC
FFFC
0300
0700
0780
0380
1F80
1F80
0400
ENDCHAR
STARTCHAR 0229
ENCODING 553
SWIDTH 488 0
DWIDTH 19 0
BBX 16 25 2 -7
BITMAP
0FF0
1FF8
3E7C
781E
F00E
E00E
E00F
FFFF
FFFF
FFFF
E000
E000
E000
F000
7800
3FBC
1FFC
0FFC
0180
0180
01E0
00E0
07E0
07C0
0300
ENDCHAR
STARTCHAR 022A
ENCODING 554
SWIDTH 488 0
DWIDTH 19 0
BBX 17 33 1 -1
BITMAP
0FF800
0FF800
000000
0E1800
1E3C00
1E3C00
0C1800
000000
03E000
0FF800
1FFE00
3C1E00
380F00
780700
700780
700380
F00380
F00380
E00380
E00380
E00380
E00380
F00380
F00380
F00380
700380
700780
780700
3C0F00
3E3E00
1FFC00
07F800
008000
ENDCHAR
STARTCHAR 022B
ENCODING 555
SWIDTH 488 0
DWIDTH 19 0
BBX 16 28 2 0
BITMAP
1FF0
1FF0
0000
0000
1C38
3C78
3C78
1830
0000
0000
0FF0
3FF8
3EFC
781E
F01E
E00E
E00F
E00F
E007
E007
E00F
E00F
E00E
F01E
781E
3EFC
3FF8
0FF0
ENDCHAR
STARTCHAR 022C
ENCODING 556
SWIDTH 488 0
DWIDTH 19 0
BBX 17 33 1 -1
BITMAP
0FF800
0FF800
000000
030C00
0FFC00
0DF800
083000
000000
03E000
0FF800
1FFE00
3C1E00
380F00
780700
700780
700380
F00380
F00380
E00380
E00380
E00380
E00380
F00380
F00380
F00380
700380
700780
780700
3C0F00
3E3E00
1FFC00
07F800
008000
ENDCHAR
STARTCHAR 022D
ENCODING 557
SWIDTH 488 0
DWIDTH 19 0
BBX 16 28 2 0
BITMAP
1FF0
1FF0
0000
0000
0F18
1FF8
19F0
0000
0000
0000
0FF0
3FF8
3EFC
781E
F01E
E00E
E00F
E00F
E007
E007
E00F
E00F
E00E
F01E
781E
3EFC
3FF8
0FF0
ENDCHAR
STARTCHAR 022E
ENCODING 558
SWIDTH 488 0
DWIDTH 19 0
BBX 17 32 1 -1
BITMAP
01C000
03E000
03E000
01E000
000000
000000
00C000
07F800
1FFC00
3E3E00
3C0F00
780700
700700
700780
F00380
F00380
E00380
E00380
E00380
E00380
E00380
E00380
F00380
700380
700780
700700
780700
3C0F00
1E3E00
1FFC00
07F800
008000
ENDCHAR
STARTCHAR 022F
ENCODING 559
SWIDTH 488 0
DWIDTH 19 0
BBX 16 26 2 0
BITMAP
0180
03C0
07C0
03C0
0380
0000
0000
0000
0FF0
3FF8
3EFC
781E
F01E
E00E
E00F
E00F
E007
E007
E00F
E00F
E00E
F01E
781E
3EFC
3FF8
0FF0
ENDCHAR
STARTCHAR 0230
ENCODING 560
SWIDTH 488 0
DWIDTH 19 0
BBX 17 33 1 -1
BITMAP
0FF800
0FF800
000000
01C000
01E000
01E000
00C000
000000
03E000
0FF800
1FFE00
3C1E00
380F00
780700
700780
700380
F00380
F00380
E00380
E00380
E00380
E00380
F00380
F00380
F00380
700380
700780
780700
3C0F00
3E3E00
1FFC00
07F800
008000
ENDCHAR
STARTCHAR 0231
ENCODING 561
SWIDTH 488 0
DWIDTH 19 0
BBX 16 28 2 0
BITMAP
1FF0
1FF0
0000
0000
0380
03C0
0380
0100
0000
0000
0FF0
3FF8
3EFC
781E
F01E
E00E
E00F
E00F
E007
E007
E00F
E00F
E00E
F01E
781E
3EFC
3FF8
0FF0
ENDCHAR
STARTCHAR 0232
ENCODING 562
SWIDTH 488 0
DWIDTH 19 0
BBX 18 30 1 0
BITMAP
0FFC00
0FFC00
000000
000000
000000
000000
E003C0
F00380
F00780
700700
780700
380F00
3C0E00
1C1E00
1E1C00
0E3800
0F3800
077000
03F000
03E000
01E000
01C000
01C000
01C000
01C000
01C000
01C000
01C000
01C000
01C000
ENDCHAR
STARTCHAR 0233
ENCODING 563
SWIDTH 488 0
DWIDTH 19 0
BBX 16 32 2 -7
BITMAP
1FF8
1FF8
1FF8
0000
0000
0000
0000
E00F
F00F
700E
700E
781E
381C
381C
3C1C
1C3C
1C38
1E38
0E78
0F70
0770
07E0
03E0
03E0
01C0
01C0
0380
0380
0F00
FE00
FC00
4000
ENDCHAR
STARTCHAR 0234
ENCODING 564
SWIDTH 488 0
DWIDTH 19 0
BBX 15 33 2 -7
BITMAP
FE00
FE00
FE00
0E00
0E00
0E00
0E00
0E00
0E00
0E00
0E00
0E00
0E00
0E00
0E00
0E00
0E00
0E00
0E00
0E00
0E00
0E00
0E00
0E20
0FF8
0FFC
0F1E
0E0E
1E0E
3E0E
3F1E
77FC
63F8
ENDCHAR
STARTCHAR 0235
ENCODING 565
SWIDTH 488 0
DWIDTH 19 0
BBX 18 24 1 -7
BITMAP
FF8000
FFC000
FBE000
F0E000
F0E000
F0E000
F0F000
F0F000
F0F000
F0F000
F0F000
F0F000
F0F000
F0F000
F0F200
F0FF80
F0FFC0
F0F1C0
00F0C0
00F0C0
01F0C0
03F1C0
073FC0
061F80
ENDCHAR
STARTCHAR 0236
ENCODING 566
SWIDTH 488 0
DWIDTH 19 0
BBX 15 29 2 -6
BITMAP
0E00
0E00
0E00
0E00
0E00
FFFE
FFFE
FFFE
0E00
0E00
0E00
0E00
0E00
0E00
0E00
0E00
0E00
0E00
0E00
0E20
0FF8
0FFC
0F1E
0E0E
0E0E
1F0E
3F1E
73FC
61F8
ENDCHAR
STARTCHAR 0237
ENCODING 567
SWIDTH 488 0
DWIDTH 19 0
BBX 12 25 3 -7
BITMAP
7FF0
7FF0
7FF0
0070
0070
0070
0070
0070
0070
0070
0070
0070
0070
0070
0070
0070
0070
0070
0070
0070
00F0
F1E0
FFE0
FFC0
0400
ENDCHAR
STARTCHAR 0238
ENCODING 568
SWIDTH 488 0
DWIDTH 19 0
BBX 17 27 1 0
BITMAP
00C000
01C000
01C000
01C000
01C000
01C000
01C000
01C000
01C000
3FFE00
3FFF00
73E700
71C380
E1C380
E1C380
E1C380
E1C380
E1C380
E1C380
E1C380
E1C380
E1C380
71C380
71C780
79CF00
3FFF00
1FFE00
ENDCHAR
STARTCHAR 0239
ENCODING 569
SWIDTH 488 0
DWIDTH 19 0
BBX 17 24 1 -6
BITMAP
1FFE00
3FFF00
79C700
71C780
F1C380
E1C380
E1C380
E1C380
E1C380
E1C380
E1C380
E1C380
E1C380
E1C380
71C380
73E700
3FFF00
3FFE00
01C000
01C000
01C000
01C000
01C000
01C000
ENDCHAR
STARTCHAR 023A
ENCODING 570
SWIDTH 488 0
DWIDTH 19 0
BBX 19 30 0 -4
BITMAP
000300
000300
000700
00F700
01F600
01FE00
03BE00
03BE00
039C00
071C00
071C00
071E00
0E3E00
0E3E00
0E3700
0C3700
1C7700
1C7700
1FFF80
3FFF80
3FFF80
38E3C0
38C1C0
71C1C0
71C1C0
71C1E0
F180E0
038000
038000
030000
ENDCHAR
STARTCHAR 023B
ENCODING 571
SWIDTH 488 0
DWIDTH 19 0
BBX 16 30 2 -4
BITMAP
000C
000C
007C
07FE
0FFF
1F1F
3C39
7838
7030
7070
F070
E070
E060
E0E0
E0E0
E0C0
E0C0
E1C0
E1C0
F180
F380
7B80
7B00
3F00
1F9E
0FFF
07FE
0E40
0E00
0E00
ENDCHAR
STARTCHAR 023C
ENCODING 572
SWIDTH 488 0
DWIDTH 19 0
BBX 16 24 2 -3
BITMAP
001C
0018
0018
07FE
1FFE
3FBE
7C70
F070
F060
E0E0
E0E0
E0C0
E0C0
E1C0
E180
F180
F380
7F00
3F9E
1FFE
07FF
0600
0E00
0400
ENDCHAR
STARTCHAR 023D
ENCODING 573
SWIDTH 488 0
DWIDTH 19 0
BBX 17 24 1 0
BITMAP
1C0000
1C0000
1C0000
1C0000
1C0000
1C0000
1C0000
1C0000
1C0000
1C0000
FFF000
FFF000
FFF000
1C0000
1C0000
1C0000
1C0000
1C0000
1C0000
1C0000
1C0000
1FFF80
1FFF80
1FFF80
ENDCHAR
STARTCHAR 023E
ENCODING 574
SWIDTH 488 0
DWIDTH 19 0
BBX 18 27 1 -1
BITMAP
0000C0
0001C0
FFFFC0
FFFF80
FFFF00
03C700
03CE00
03DC00
03DC00
03F800
03F000
03F000
03E000
03E000
03C000
03C000
03C000
07C000
0FC000
0FC000
1FC000
1BC000
3BC000
73C000
73C000
E3C000
C00000
ENDCHAR
STARTCHAR 023F
ENCODING 575
SWIDTH 488 0
DWIDTH 19 0
BBX 14 24 3 -6
BITMAP
3FF8
7FF8
F838
E000
E000
E000
F800
7E00
3FC0
0FF0
01F8
0078
003C
001C
803C
FFF8
FFF0
FFC0
7800
1C00
0E00
07C0
03FC
01FC
ENDCHAR
STARTCHAR 0240
ENCODING 576
SWIDTH 488 0
DWIDTH 19 0
BBX 15 24 3 -6
BITMAP
FFF8
FFF8
FFF8
00F0
00F0
01E0
03C0
0780
0700
0F00
1E00
1C00
3800
7800
7000
F000
FC00
FE00
1F00
0780
03C0
01F0
00FE
007E
ENDCHAR
STARTCHAR 0241
ENCODING 577
SWIDTH 488 0
DWIDTH 19 0
BBX 14 25 3 0
BITMAP
0680
7FF0
FFF8
F07C
003C
001C
001C
001C
001C
003C
0078
01F0
03E0
0780
0F00
0E00
0E00
0E00
0E00
0E00
0E00
0E00
0E00
0E00
0E00
ENDCHAR
STARTCHAR 0242
ENCODING 578
SWIDTH 488 0
DWIDTH 19 0
BBX 14 19 3 0
BITMAP
0200
7FE0
FFF0
78F8
4038
003C
0038
0038
00F8
01F0
07C0
0780
0F00
0E00
0E00
0E00
0E00
0E00
0E00
ENDCHAR
STARTCHAR 0243
ENCODING 579
SWIDTH 488 0
DWIDTH 19 0
BBX 17 24 1 0
BITMAP
3FF000
3FFC00
38FE00
381E00
380E00
380E00
380E00
380E00
380E00
383C00
3FF800
3FF800
3FFE00
381E00
380700
380700
FF8780
FF8780
380700
380700
380F00
3EFE00
3FFC00
3FF000
ENDCHAR
STARTCHAR 0244
ENCODING 580
SWIDTH 488 0
DWIDTH 19 0
BBX 18 25 1 -1
BITMAP
380F00
380F00
380F00
380F00
380F00
380F00
380F00
380F00
380F00
380F00
FFFFC0
FFFFC0
380F00
380F00
380F00
380F00
380F00
380F00
380F00
380E00
3C1E00
1E3E00
1FFC00
07F800
008000
ENDCHAR
STARTCHAR 0245
ENCODING 581
SWIDTH 488 0
DWIDTH 19 0
BBX 19 24 0 0
BITMAP
00F000
01F000
01F800
03B800
03B800
039C00
071C00
071C00
070E00
0E0E00
0E0E00
0E0700
0C0700
1C0700
1C0780
1C0380
380380
380380
3803C0
3801C0
7001C0
7001C0
7001E0
F000E0
ENDCHAR
STARTCHAR 0246
ENCODING 582
SWIDTH 488 0
DWIDTH 19 0
BBX 14 30 4 -4
BITMAP
001C
001C
FFF8
FFF8
FFF8
E030
E070
E070
E060
E0E0
E0E0
E0C0
FFF0
FFF0
FFF0
E380
E380
E300
E700
E700
E600
EE00
EE00
FFFC
FFFC
FFFC
1800
3800
3800
3000
ENDCHAR
STARTCHAR 0247
ENCODING 583
SWIDTH 488 0
DWIDTH 19 0
BBX 17 24 1 -3
BITMAP
001800
001800
003800
07F800
0FFC00
1E7E00
3C6F00
786700
70E700
70C780
7FFF80
FFFF80
FFFF80
718000
738000
738000
7B0000
3F0000
1F8E00
0FFE00
07FE00
0E0000
0C0000
040000
ENDCHAR
STARTCHAR 0248
ENCODING 584
SWIDTH 488 0
DWIDTH 19 0
BBX 17 25 2 -1
BITMAP
1FFC00
1FFC00
1FFC00
001C00
001C00
001C00
001C00
001C00
001C00
001C00
03FF80
03FF80
03FF80
001C00
001C00
001C00
001C00
001C00
001C00
003C00
403800
70F800
FFF000
3FE000
060000
ENDCHAR
STARTCHAR 0249
ENCODING 585
SWIDTH 488 0
DWIDTH 19 0
BBX 15 33 3 -7
BITMAP
01E0
01E0
03E0
01E0
01E0
0000
0000
0000
7FF0
7FF0
7FF0
0070
0070
0070
0070
7FFE
7FFE
7FFE
0070
0070
0070
0070
0070
0070
0070
0070
0070
0070
00F0
F1E0
FFE0
FFC0
0400
ENDCHAR
STARTCHAR 024A
ENCODING 586
SWIDTH 488 0
DWIDTH 19 0
BBX 19 32 1 -7
BITMAP
018000
0FF000
1FF800
3C7C00
381C00
781E00
700E00
700E00
F00F00
F00700
E00700
E00700
E00700
E00700
E00700
E00700
F00700
F00F00
700F00
700F00
780F00
381F00
3E7F00
1FF700
0FE700
010700
000700
000700
000780
0007E0
0003E0
000080
ENDCHAR
STARTCHAR 024B
ENCODING 587
SWIDTH 488 0
DWIDTH 19 0
BBX 17 24 2 -7
BITMAP
0FFC00
3FFC00
3E7C00
781C00
F01C00
E01C00
E01C00
E01C00
E01C00
E01C00
E01C00
E01C00
E01C00
F01C00
783C00
7EFC00
3FFC00
1FFC00
001C00
001C00
001C00
001E00
001F80
000F80
ENDCHAR
STARTCHAR 024C
ENCODING 588
SWIDTH 488 0
DWIDTH 19 0
BBX 17 24 1 0
BITMAP
3FF000
3FFC00
3CFE00
381E00
380F00
380700
380700
380700
380700
380F00
380E00
383E00
FFFC00
FFF000
FFF000
387800
383800
381C00
381E00
380E00
380F00
380700
380780
380780
ENDCHAR
STARTCHAR 024D
ENCODING 589
SWIDTH 488 0
DWIDTH 19 0
BBX 16 18 1 0
BITMAP
0FFF
1FFE
1F86
1C00
1C00
1C00
1C00
1C00
FFF8
FFF8
FFF8
1C00
1C00
1C00
1C00
1C00
1C00
1C00
ENDCHAR
STARTCHAR 024E
ENCODING 590
SWIDTH 488 0
DWIDTH 19 0
BBX 17 24 1 0
BITMAP
F00380
F00380
700780
780700
380F00
FFFF80
FFFF80
FFFF80
1E1C00
0E3800
0F3800
077000
03F000
03E000
01E000
01C000
01C000
01C000
01C000
01C000
01C000
01C000
01C000
01C000
ENDCHAR
STARTCHAR 024F
ENCODING 591
SWIDTH 488 0
DWIDTH 19 0
BBX 17 25 2 -7
BITMAP
F00700
700F00
700F00
700E00
780E00
381E00
381C00
FFFF80
FFFF80
1E3800
0E3800
0E3800
077000
077000
07F000
03E000
03E000
01E000
01C000
01C000
038000
8F8000
FF0000
FC0000
200000
ENDCHAR
STARTCHAR 0292
ENCODING 658
SWIDTH 488 0
DWIDTH 19 0
BBX 15 24 2 -6
BITMAP
FFFC
FFFC
FFFC
0078
0070
00E0
01E0
03C0
0380
0700
0F80
0FF0
07F8
003C
001C
001E
001E
001E
001E
001C
003C
F1F8
FFF0
FFE0
ENDCHAR
STARTCHAR 02BC
ENCODING 700
SWIDTH 488 0
DWIDTH 19 0
BBX 4 7 8 20
BITMAP
70
70
70
70
E0
E0
C0
ENDCHAR
STARTCHAR 02C6
ENCODING 710
SWIDTH 488 0
DWIDTH 19 0
BBX 9 7 5 20
BITMAP
0800
0C00
1E00
3F00
7380
E180
4000
ENDCHAR
STARTCHAR 02C7
ENCODING 711
SWIDTH 488 0
DWIDTH 19 0
BBX 9 6 5 20
BITMAP
4000
E180
7780
3F00
1E00
0C00
ENDCHAR
STARTCHAR 02C9
ENCODING 713
SWIDTH 488 0
DWIDTH 19 0
BBX 10 3 5 22
BITMAP
FFC0
FFC0
FFC0
ENDCHAR
STARTCHAR 02D8
ENCODING 728
SWIDTH 488 0
DWIDTH 19 0
BBX 9 5 5 21
BITMAP
C180
E180
7F80
7F00
1C00
ENDCHAR
STARTCHAR 02D9
ENCODING 729
SWIDTH 488 0
DWIDTH 19 0
BBX 5 5 7 21
BITMAP
30
78
F8
78
70
ENDCHAR
STARTCHAR 02DA
ENCODING 730
SWIDTH 488 0
DWIDTH 19 0
BBX 7 7 6 20
BITMAP
3C
7E
C6
C2
C6
7E
3C
ENDCHAR
STARTCHAR 02DB
ENCODING 731
SWIDTH 488 0
DWIDTH 19 0
BBX 6 7 7 -7
BITMAP
38
70
E0
E0
FC
FC
10
ENDCHAR
STARTCHAR 02DC
ENCODING 732
SWIDTH 488 0
DWIDTH 19 0
BBX 11 4 4 21
BITMAP
0040
3C60
7FE0
E7C0
ENDCHAR
STARTCHAR 02DD
ENCODING 733
SWIDTH 488 0
DWIDTH 19 0
BBX 11 7 4 20
BITMAP
0040
1860
38E0
79C0
7380
E300
4100
ENDCHAR
STARTCHAR 0311
ENCODING 785
SWIDTH 488 0
DWIDTH 19 0
BBX 9 5 5 21
BITMAP
3E00
7F00
7380
E180
C180
ENDCHAR
STARTCHAR 0384
ENCODING 900
SWIDTH 488 0
DWIDTH 19 0
BBX 6 7 7 20
BITMAP
10
3C
38
70
E0
E0
C0
ENDCHAR
STARTCHAR 0385
ENCODING 901
SWIDTH 488 0
DWIDTH 19 0
BBX 14 7 2 20
BITMAP
0180
01C0
739C
F3BC
771C
0600
0200
ENDCHAR
STARTCHAR 0386
ENCODING 902
SWIDTH 488 0
DWIDTH 19 0
BBX 19 25 0 0
BITMAP
200000
38F000
39F000
71F800
73B800
73B800
639C00
671C00
071C00
070E00
0E0E00
0E0E00
0E0700
0C0700
1C0700
1C0780
1FFF80
3FFF80
3FFF80
3803C0
3801C0
7001C0
7001C0
7001E0
F000E0
ENDCHAR
STARTCHAR 0388
ENCODING 904
SWIDTH 488 0
DWIDTH 19 0
BBX 20 24 -2 1
BITMAP
73FFE0
F3FFE0
E3FFE0
E38000
E38000
C38000
C38000
038000
038000
038000
03FFC0
03FFC0
03FFC0
038000
038000
038000
038000
038000
038000
038000
038000
03FFF0
03FFF0
03FFF0
ENDCHAR
STARTCHAR 0389
ENCODING 905
SWIDTH 488 0
DWIDTH 19 0
BBX 22 24 -4 1
BITMAP
73803C
F3803C
E3803C
E3803C
E3803C
C3803C
C3803C
03803C
03803C
03803C
03FFFC
03FFFC
03FFFC
03803C
03803C
03803C
03803C
03803C
03803C
03803C
03803C
03803C
03803C
03803C
ENDCHAR
STARTCHAR 038A
ENCODING 906
SWIDTH 488 0
DWIDTH 19 0
BBX 19 24 -3 1
BITMAP
7BFFE0
73FFE0
73FFE0
701C00
601C00
E01C00
601C00
001C00
001C00
001C00
001C00
001C00
001C00
001C00
001C00
001C00
001C00
001C00
001C00
001C00
001C00
03FFE0
03FFE0
03FFE0
ENDCHAR
STARTCHAR 038C
ENCODING 908
SWIDTH 488 0
DWIDTH 19 0
BBX 21 26 -3 -1
BITMAP
000C00
387F80
71FFC0
73E3E0
73C0F0
678070
E70070
670078
0F0038
0F0038
0E0038
0E0038
0E0038
0E0038
0E0038
0E0038
0F0038
070038
070078
070070
078070
03C0F0
01E3E0
01FFC0
007F80
000800
ENDCHAR
STARTCHAR 038E
ENCODING 910
SWIDTH 488 0
DWIDTH 19 0
BBX 24 25 -5 0
BITMAP
400000
7B800F
73C00E
73C01E
71C01C
E1E01C
E0E03C
40F038
007078
007870
0038E0
003CE0
001DC0
000FC0
000F80
000780
000700
000700
000700
000700
000700
000700
000700
000700
000700
ENDCHAR
STARTCHAR 038F
ENCODING 911
SWIDTH 488 0
DWIDTH 19 0
BBX 22 25 -3 0
BITMAP
000C00
787F80
71FFC0
73E3E0
73C0F0
678070
E70078
670038
0F0038
0F0038
0F0038
0F0038
0F0038
0F0038
070038
070078
070070
078070
038070
0380E0
01C0E0
01C1C0
0FE3FC
0FE3FC
0FE3FC
ENDCHAR
STARTCHAR 0390
ENCODING 912
SWIDTH 488 0
DWIDTH 19 0
BBX 16 27 1 0
BITMAP
0180
01C0
739C
F3BC
771C
0600
0200
0000
0000
7FC0
7FC0
7FC0
03C0
03C0
03C0
03C0
03C0
03C0
03C0
03C0
03C0
03C0
03C0
01C0
01F7
01FF
00FF
ENDCHAR
STARTCHAR 0391
ENCODING 913
SWIDTH 488 0
DWIDTH 19 0
BBX 19 24 0 0
BITMAP
00F000
01F000
01F800
03B800
03B800
039C00
071C00
071C00
070E00
0E0E00
0E0E00
0E0700
0C0700
1C0700
1C0780
1FFF80
3FFF80
3FFF80
3803C0
3801C0
7001C0
7001C0
7001E0
F000E0
ENDCHAR
STARTCHAR 0392
ENCODING 914
SWIDTH 488 0
DWIDTH 19 0
BBX 15 24 2 0
BITMAP
FFE0
FFF8
F1F8
E03C
E01C
E01C
E01C
E01C
E01C
E078
FFF0
FFF0
FFF8
E01C
E00E
E00E
E00E
E00E
E00E
E00E
E01E
FFFC
FFF8
FFE0
ENDCHAR
STARTCHAR 0393
ENCODING 915
SWIDTH 488 0
DWIDTH 19 0
BBX 16 24 2 0
BITMAP
0FFF
0FFF
0FFF
0E00
0E00
0E00
0E00
0E00
0E00
0E00
0E00
0E00
0E00
0E00
0E00
0E00
0E00
0E00
0E00
0E00
0E00
FFF0
FFF0
FFF0
ENDCHAR
STARTCHAR 0394
ENCODING 916
SWIDTH 488 0
DWIDTH 19 0
BBX 19 24 0 0
BITMAP
00F000
01F000
01F800
01F800
03B800
039C00
031C00
071C00
070E00
060E00
0E0E00
0E0700
0E0700
1C0700
1C0700
1C0380
380380
380380
3803C0
3801C0
7001C0
7FFFC0
7FFFE0
FFFFE0
ENDCHAR
STARTCHAR 0395
ENCODING 917
SWIDTH 488 0
DWIDTH 19 0
BBX 14 24 4 0
BITMAP
FFF8
FFF8
FFF8
E000
E000
E000
E000
E000
E000
E000
FFF0
FFF0
FFF0
E000
E000
E000
E000
E000
E000
E000
E000
FFFC
FFFC
FFFC
ENDCHAR
STARTCHAR 0396
ENCODING 918
SWIDTH 488 0
DWIDTH 19 0
BBX 16 24 2 0
BITMAP
7FFE
7FFE
7FFE
001E
003C
0038
0078
00F0
00E0
01E0
01C0
0380
0780
0700
0F00
1E00
1C00
3C00
3800
7800
7000
FFFF
FFFF
FFFF
ENDCHAR
STARTCHAR 0397
ENCODING 919
SWIDTH 488 0
DWIDTH 19 0
BBX 16 24 2 0
BITMAP
E00F
E00F
E00F
E00F
E00F
E00F
E00F
E00F
E00F
E00F
FFFF
FFFF
FFFF
E00F
E00F
E00F
E00F
E00F
E00F
E00F
E00F
E00F
E00F
E00F
ENDCHAR
STARTCHAR 0398
ENCODING 920
SWIDTH 488 0
DWIDTH 19 0
BBX 17 26 1 -1
BITMAP
00C000
07F800
1FFC00
3E3E00
3C0F00
780700
700700
700780
F00380
F00380
E00380
E3F380
E3F380
E3F380
E00380
E00380
F00380
700380
700780
700700
780700
3C0F00
1E3E00
1FFC00
07F800
008000
ENDCHAR
STARTCHAR 0399
ENCODING 921
SWIDTH 488 0
DWIDTH 19 0
BBX 13 24 3 0
BITMAP
FFF8
FFF8
FFF8
0700
0700
0700
0700
0700
0700
0700
0700
0700
0700
0700
0700
0700
0700
0700
0700
0700
0700
FFF8
FFF8
FFF8
ENDCHAR
STARTCHAR 039A
ENCODING 922
SWIDTH 488 0
DWIDTH 19 0
BBX 16 24 2 0
BITMAP
F01E
F01C
F03C
F078
F070
F0F0
F1E0
F3C0
F380
F700
FF00
FE00
FF00
F780
F3C0
F1E0
F0F0
F070
F078
F03C
F01C
F01E
F00E
F00F
ENDCHAR
STARTCHAR 039B
ENCODING 923
SWIDTH 488 0
DWIDTH 19 0
BBX 19 24 0 0
BITMAP
00F000
01F000
01F800
03B800
03B800
039C00
071C00
071C00
070E00
0E0E00
0E0E00
0E0700
0C0700
1C0700
1C0780
1C0380
380380
380380
3803C0
3801C0
7001C0
7001C0
7001E0
F000E0
ENDCHAR
STARTCHAR 039C
ENCODING 924
SWIDTH 488 0
DWIDTH 19 0
BBX 17 24 1 0
BITMAP
380F00
7C0F00
7C1F00
7C1F00
7E1B00
7E1B00
763B00
763300
773300
737300
737380
73E380
73E380
71E380
71C380
700380
700380
700380
700380
E00380
E00380
E00380
E00380
E00380
ENDCHAR
STARTCHAR 039D
ENCODING 925
SWIDTH 488 0
DWIDTH 19 0
BBX 15 24 2 0
BITMAP
F00E
F00E
F80E
F80E
FC0E
FC0E
EE0E
EE0E
E70E
E70E
E38E
E38E
E1CE
E1CE
E0EE
E0EE
E07E
E07E
E03E
E03E
E01E
E01E
E01E
E00E
ENDCHAR
STARTCHAR 039E
ENCODING 926
SWIDTH 488 0
DWIDTH 19 0
BBX 17 24 1 0
BITMAP
7FFF80
7FFF80
7FFF80
000000
000000
000000
000000
000000
000000
000000
3FFE00
3FFE00
3FFE00
000000
000000
000000
000000
000000
000000
000000
000000
FFFF80
FFFF80
FFFF80
ENDCHAR
STARTCHAR 039F
ENCODING 927
SWIDTH 488 0
DWIDTH 19 0
BBX 17 26 1 -1
BITMAP
00C000
07F800
1FFC00
3E3E00
3C0F00
780700
700700
700780
F00380
F00380
E00380
E00380
E00380
E00380
E00380
E00380
F00380
700380
700780
700700
780700
3C0F00
1E3E00
1FFC00
07F800
008000
ENDCHAR
STARTCHAR 03A0
ENCODING 928
SWIDTH 488 0
DWIDTH 19 0
BBX 16 24 2 0
BITMAP
FFFF
FFFF
FFFF
E00F
E00F
E00F
E00F
E00F
E00F
E00F
E00F
E00F
E00F
E00F
E00F
E00F
E00F
E00F
E00F
E00F
E00F
E00F
E00F
E00F
ENDCHAR
STARTCHAR 03A1
ENCODING 929
SWIDTH 488 0
DWIDTH 19 0
BBX 15 24 3 0
BITMAP
FFE0
FFF0
F1F8
E03C
E01C
E01E
E01E
E01E
E01E
E01C
E01C
E07C
FFF8
FFF0
FFC0
E000
E000
E000
E000
E000
E000
E000
E000
E000
ENDCHAR
STARTCHAR 03A3
ENCODING 931
SWIDTH 488 0
DWIDTH 19 0
BBX 15 24 2 0
BITMAP
FFFE
FFFE
FFFE
7800
3800
1C00
1E00
0F00
0700
0380
03C0
01E0
03C0
0380
0700
0E00
1E00
3C00
3800
7000
F000
FFFE
FFFE
FFFE
ENDCHAR
STARTCHAR 03A4
ENCODING 932
SWIDTH 488 0
DWIDTH 19 0
BBX 17 24 1 0
BITMAP
FFFF80
FFFF80
FFFF80
01C000
01C000
01C000
01C000
01C000
01C000
01C000
01C000
01C000
01C000
01C000
01C000
01C000
01C000
01C000
01C000
01C000
01C000
01C000
01C000
01C000
ENDCHAR
STARTCHAR 03A5
ENCODING 933
SWIDTH 488 0
DWIDTH 19 0
BBX 18 24 1 0
BITMAP
E003C0
F00380
F00780
700700
780700
380F00
3C0E00
1C1E00
1E1C00
0E3800
0F3800
077000
03F000
03E000
01E000
01C000
01C000
01C000
01C000
01C000
01C000
01C000
01C000
01C000
ENDCHAR
STARTCHAR 03A6
ENCODING 934
SWIDTH 488 0
DWIDTH 19 0
BBX 16 26 2 0
BITMAP
0180
0180
0180
07E0
1FF8
3FFC
799E
718E
F18F
E187
E187
E187
E187
E187
E187
E187
E187
E18F
718E
799E
3FFC
1FF8
07E0
0180
0180
0180
ENDCHAR
STARTCHAR 03A7
ENCODING 935
SWIDTH 488 0
DWIDTH 19 0
BBX 17 24 1 0
BITMAP
700780
780700
380F00
3C0E00
1C1C00
1E3C00
0E3800
0F7800
077000
03F000
03E000
03E000
03E000
07F000
077800
0E3800
0E3C00
1C1C00
3C1E00
380E00
780F00
700700
700780
F00380
ENDCHAR
STARTCHAR 03A8
ENCODING 936
SWIDTH 488 0
DWIDTH 19 0
BBX 16 24 2 0
BITMAP
E007
E007
E007
E007
E007
E007
E387
E387
E387
E387
E38F
E38F
E38E
F38E
739E
7FFC
3FF8
0FF0
0380
0380
0380
0380
0380
0380
ENDCHAR
STARTCHAR 03A9
ENCODING 937
SWIDTH 488 0
DWIDTH 19 0
BBX 18 25 1 0
BITMAP
00C000
07F800
1FFC00
3E3E00
3C0F00
780700
700780
700380
F00380
F00380
F00380
F00380
F00380
F00380
700380
700780
700700
780700
380700
380E00
1C0E00
1C1C00
FE3FC0
FE3FC0
FE3FC0
ENDCHAR
STARTCHAR 03AA
ENCODING 938
SWIDTH 488 0
DWIDTH 19 0
BBX 13 31 3 0
BITMAP
3860
78F0
78F0
38F0
0000
0000
0000
FFF8
FFF8
FFF8
0700
0700
0700
0700
0700
0700
0700
0700
0700
0700
0700
0700
0700
0700
0700
0700
0700
0700
FFF8
FFF8
FFF8
ENDCHAR
STARTCHAR 03AB
ENCODING 939
SWIDTH 488 0
DWIDTH 19 0
BBX 18 31 1 0
BITMAP
0E1800
1E3C00
1E3C00
0E3C00
000000
000000
000000
E003C0
F00380
F00780
700700
780700
380F00
3C0E00
1C1E00
1E1C00
0E3800
0F3800
077000
03F000
03E000
01E000
01C000
01C000
01C000
01C000
01C000
01C000
01C000
01C000
01C000
ENDCHAR
STARTCHAR 03AC
ENCODING 940
SWIDTH 488 0
DWIDTH 19 0
BBX 16 27 2 0
BITMAP
0040
00F0
00E0
01C0
03C0
0380
0100
0000
0000
0FFC
1FFE
3F3E
781E
701E
F01E
E01E
E01E
E01E
E01E
E01E
E01E
F01E
701E
781E
3EFF
1FFF
0FE3
ENDCHAR
STARTCHAR 03AD
ENCODING 941
SWIDTH 488 0
DWIDTH 19 0
BBX 15 27 3 0
BITMAP
0040
00E0
01E0
01C0
0380
0700
0200
0000
0080
1FFC
3FFC
7C18
F000
F000
F000
7000
7FE0
1FE0
7FE0
F000
E000
E000
E000
F000
FE3E
7FFE
1FFC
ENDCHAR
STARTCHAR 03AE
ENCODING 942
SWIDTH 488 0
DWIDTH 19 0
BBX 14 33 3 -6
BITMAP
0080
01E0
03C0
0380
0700
0E00
0600
0000
0000
FFE0
FFF0
F9F8
E078
E038
E03C
E01C
E01C
E01C
E01C
E01C
E01C
E01C
E01C
E01C
E01C
E01C
E01C
001C
001C
001C
001C
001C
001C
ENDCHAR
STARTCHAR 03AF
ENCODING 943
SWIDTH 488 0
DWIDTH 19 0
BBX 15 27 2 0
BITMAP
00C0
00E0
01C0
03C0
0380
0700
0200
0000
0000
FF80
FF80
FF80
0780
0780
0780
0780
0780
0780
0780
0780
0780
0780
0780
0380
03EE
03FE
01FE
ENDCHAR
STARTCHAR 03B0
ENCODING 944
SWIDTH 488 0
DWIDTH 19 0
BBX 14 27 3 0
BITMAP
0100
0380
E3B8
F73C
E638
0E00
0400
0000
0000
E03C
E03C
E03C
E03C
E03C
E03C
E03C
E03C
E03C
E03C
E03C
E03C
E038
E038
F078
7DF0
3FF0
1FC0
ENDCHAR
STARTCHAR 03B1
ENCODING 945
SWIDTH 488 0
DWIDTH 19 0
BBX 16 18 2 0
BITMAP
0FFC
1FFE
3F3E
781E
701E
F01E
E01E
E01E
E01E
E01E
E01E
E01E
F01E
701E
781E
3EFF
1FFF
0FE3
ENDCHAR
STARTCHAR 03B2
ENCODING 946
SWIDTH 488 0
DWIDTH 19 0
BBX 15 33 3 -6
BITMAP
0F80
3FE0
7FF0
7878
F038
E038
E038
E038
E038
E070
E0F0
E3E0
E3E0
E3F0
E078
E03C
E01C
E01E
E00E
E00E
E01E
E01E
E01C
E03C
FFF8
FFF0
EFE0
E000
E000
E000
E000
E000
E000
ENDCHAR
STARTCHAR 03B3
ENCODING 947
SWIDTH 488 0
DWIDTH 19 0
BBX 17 24 1 -6
BITMAP
F00380
700380
780780
380700
380700
3C0F00
1C0E00
1C0E00
1E1E00
0E1C00
0E1C00
0F3800
073800
077000
07F000
03E000
03E000
03C000
038000
03C000
01C000
01C000
01C000
01C000
ENDCHAR
STARTCHAR 03B4
ENCODING 948
SWIDTH 488 0
DWIDTH 19 0
BBX 16 27 2 0
BITMAP
03F0
0FFC
1FFC
1C04
3C00
3C00
1E00
1F00
0F80
07E0
1FF0
3E78
783C
701E
F00E
E00F
E00F
E007
E007
E007
E00F
E00F
F00E
781E
7CFC
3FF8
0FF0
ENDCHAR
STARTCHAR 03B5
ENCODING 949
SWIDTH 488 0
DWIDTH 19 0
BBX 15 19 3 0
BITMAP
0080
1FFC
3FFC
7C18
F000
F000
F000
7000
7FE0
1FE0
7FE0
F000
E000
E000
E000
F000
FE3E
7FFE
1FFC
ENDCHAR
STARTCHAR 03B6
ENCODING 950
SWIDTH 488 0
DWIDTH 19 0
BBX 15 33 2 -7
BITMAP
7FFE
7FFE
7FFE
003C
0078
00F0
01E0
03C0
0780
0F00
1E00
1C00
3C00
3800
7800
7000
7000
7000
F000
F000
7000
7000
7800
3E00
3FF0
0FFC
01FE
001E
000E
000E
000E
000E
001C
ENDCHAR
STARTCHAR 03B7
ENCODING 951
SWIDTH 488 0
DWIDTH 19 0
BBX 14 24 3 -6
BITMAP
FFE0
FFF0
F9F8
E078
E038
E03C
E01C
E01C
E01C
E01C
E01C
E01C
E01C
E01C
E01C
E01C
E01C
E01C
001C
001C
001C
001C
001C
001C
ENDCHAR
STARTCHAR 03B8
ENCODING 952
SWIDTH 488 0
DWIDTH 19 0
BBX 16 28 2 -1
BITMAP
07C0
0FF0
1FF8
3C38
781C
701C
701E
F00E
E00E
E00E
E00E
E00E
FFFF
FFFF
FFFF
E00F
E00E
E00E
E00E
F00E
700E
701E
701C
383C
3C78
1FF0
0FE0
0100
ENDCHAR
STARTCHAR 03B9
ENCODING 953
SWIDTH 488 0
DWIDTH 19 0
BBX 15 18 2 0
BITMAP
FF80
FF80
FF80
0780
0780
0780
0780
0780
0780
0780
0780
0780
0780
0780
0380
03EE
03FE
01FE
ENDCHAR
STARTCHAR 03BA
ENCODING 954
SWIDTH 488 0
DWIDTH 19 0
BBX 15 18 3 0
BITMAP
E01C
E038
E070
E0E0
E3C0
E780
EF00
FE00
FE00
FF00
E780
E3C0
E1E0
E0F0
E078
E03C
E01E
E01E
ENDCHAR
STARTCHAR 03BB
ENCODING 955
SWIDTH 488 0
DWIDTH 19 0
BBX 17 27 1 0
BITMAP
7C0000
7E0000
3F0000
078000
038000
03C000
01C000
01C000
00E000
01E000
01F000
03F000
03F000
077800
073800
0E3C00
0E1C00
1E1C00
1C1E00
1C0E00
380E00
380F00
380F00
700700
700700
700780
E00780
ENDCHAR
STARTCHAR 03BC
ENCODING 956
SWIDTH 488 0
DWIDTH 19 0
BBX 14 24 3 -6
BITMAP
E03C
E03C
E03C
E03C
E03C
E03C
E03C
E03C
E03C
E03C
E03C
E03C
E03C
F03C
F03C
FEFC
FFFC
FFFC
E000
E000
E000
E000
E000
E000
ENDCHAR
STARTCHAR 03BD
ENCODING 957
SWIDTH 488 0
DWIDTH 19 0
BBX 17 18 1 0
BITMAP
F00380
700780
700780
780700
380F00
380E00
3C0E00
1C1E00
1C1C00
1E1C00
0E3800
0E3800
077800
077000
07F000
03E000
03E000
01C000
ENDCHAR
STARTCHAR 03BE
ENCODING 958
SWIDTH 488 0
DWIDTH 19 0
BBX 16 33 2 -7
BITMAP
01FC
0FFE
1FFC
1E00
3C00
3800
3800
3800
3800
3C00
1E00
0FFC
07FC
0FFC
1F00
3C00
7800
7000
7000
F000
7000
7000
7800
3E00
1FF0
0FFC
01FE
001E
000F
000F
000E
000E
001C
ENDCHAR
STARTCHAR 03BF
ENCODING 959
SWIDTH 488 0
DWIDTH 19 0
BBX 16 18 2 0
BITMAP
0FF0
3FF8
3EFC
781E
F01E
E00E
E00F
E00F
E007
E007
E00F
E00F
E00E
F01E
781E
3EFC
3FF8
0FF0
ENDCHAR
STARTCHAR 03C0
ENCODING 960
SWIDTH 488 0
DWIDTH 19 0
BBX 14 18 3 0
BITMAP
FFFC
FFFC
FFFC
E03C
E03C
E03C
E03C
E03C
E03C
E03C
E03C
E03C
E03C
E03C
E03C
E03C
E03C
E03C
ENDCHAR
STARTCHAR 03C1
ENCODING 961
SWIDTH 488 0
DWIDTH 19 0
BBX 15 24 3 -6
BITMAP
1FE0
3FF0
7CF8
703C
F01C
E01E
E01E
E01E
E00E
E00E
E01E
E01E
E01C
E01C
E03C
FCF8
FFF0
EFE0
E000
E000
E000
E000
E000
E000
ENDCHAR
STARTCHAR 03C2
ENCODING 962
SWIDTH 488 0
DWIDTH 19 0
BBX 15 25 2 -7
BITMAP
0020
07FE
0FFE
1F86
3C00
7800
7000
7000
7000
F000
F000
7000
7000
7000
7800
3E00
1FF0
0FFC
01FE
001E
000E
000E
000E
000E
001C
ENDCHAR
STARTCHAR 03C3
ENCODING 963
SWIDTH 488 0
DWIDTH 19 0
BBX 16 18 2 0
BITMAP
07FF
1FFF
3FFF
7838
701C
F01C
E00E
E00E
E00E
E00E
E00E
E00E
E00E
F01E
783C
7EFC
3FF8
0FE0
ENDCHAR
STARTCHAR 03C4
ENCODING 964
SWIDTH 488 0
DWIDTH 19 0
BBX 15 18 2 0
BITMAP
FFFE
FFFE
FFFE
0E00
0E00
0E00
0E00
0E00
0E00
0E00
0E00
0E00
0F00
0F00
0700
07EE
07FE
01FE
ENDCHAR
STARTCHAR 03C5
ENCODING 965
SWIDTH 488 0
DWIDTH 19 0
BBX 14 18 3 0
BITMAP
E03C
E03C
E03C
E03C
E03C
E03C
E03C
E03C
E03C
E03C
E03C
E03C
E038
E038
F078
7DF0
3FF0
1FC0
ENDCHAR
STARTCHAR 03C6
ENCODING 966
SWIDTH 488 0
DWIDTH 19 0
BBX 17 24 1 -6
BITMAP
07F800
1FFC00
3FFE00
79CF00
71C780
F1C380
E1C380
E1C380
E1C380
E1C380
E1C380
E1C380
F1C380
71C780
79CF00
3FFE00
1FFC00
07F800
01C000
01C000
01C000
01C000
01C000
01C000
ENDCHAR
STARTCHAR 03C7
ENCODING 967
SWIDTH 488 0
DWIDTH 19 0
BBX 17 18 1 0
BITMAP
700700
380F00
3C0E00
1E1C00
0F3C00
077800
07F000
03E000
01E000
03F000
07F000
073800
0E3C00
1E1E00
3C0E00
380F00
700780
F00380
ENDCHAR
STARTCHAR 03C8
ENCODING 968
SWIDTH 488 0
DWIDTH 19 0
BBX 17 24 1 -6
BITMAP
F00380
F00380
F00380
F00380
F1C380
F1C380
F1C380
F1C380
F1C380
F1C380
F1C380
71C380
71C780
71C700
79CF00
3DDE00
1FFE00
0FF800
01C000
01C000
01C000
01C000
01C000
01C000
ENDCHAR
STARTCHAR 03C9
ENCODING 969
SWIDTH 488 0
DWIDTH 19 0
BBX 17 18 1 0
BITMAP
1E1C00
1C1E00
3C0E00
380F00
780700
700700
700780
71C380
71C380
F1C380
F1C380
F1C380
F1C380
71C380
71E780
7FFF00
3F7F00
1E3E00
ENDCHAR
STARTCHAR 03CA
ENCODING 970
SWIDTH 488 0
DWIDTH 19 0
BBX 15 25 2 0
BITMAP
78E0
78F0
78E0
3040
0000
0000
0000
FF80
FF80
FF80
0780
0780
0780
0780
0780
0780
0780
0780
0780
0780
0780
0380
03EE
03FE
01FE
ENDCHAR
STARTCHAR 03CB
ENCODING 971
SWIDTH 488 0
DWIDTH 19 0
BBX 14 25 3 0
BITMAP
38F0
78F0
38F0
1060
0000
0000
0000
E03C
E03C
E03C
E03C
E03C
E03C
E03C
E03C
E03C
E03C
E03C
E03C
E038
E038
F078
7DF0
3FF0
1FC0
ENDCHAR
STARTCHAR 03CC
ENCODING 972
SWIDTH 488 0
DWIDTH 19 0
BBX 16 27 2 0
BITMAP
0040
00F0
01E0
01C0
0380
0700
0300
0000
0000
0FF0
3FF8
3EFC
781E
F01E
E00E
E00F
E00F
E007
E007
E00F
E00F
E00E
F01E
781E
3EFC
3FF8
0FF0
ENDCHAR
STARTCHAR 03CD
ENCODING 973
SWIDTH 488 0
DWIDTH 19 0
BBX 14 27 3 0
BITMAP
0080
01E0
03C0
0380
0700
0E00
0600
0000
0000
E03C
E03C
E03C
E03C
E03C
E03C
E03C
E03C
E03C
E03C
E03C
E03C
E038
E038
F078
7DF0
3FF0
1FC0
ENDCHAR
STARTCHAR 03CE
ENCODING 974
SWIDTH 488 0
DWIDTH 19 0
BBX 17 27 1 0
BITMAP
002000
007800
00F000
00E000
01C000
03C000
018000
000000
000000
1E1C00
1C1E00
3C0E00
380F00
780700
700700
700780
71C380
71C380
F1C380
F1C380
F1C380
F1C380
71C380
71E780
7FFF00
3F7F00
1E3E00
ENDCHAR
STARTCHAR 0400
ENCODING 1024
SWIDTH 488 0
DWIDTH 19 0
BBX 14 32 4 0
BITMAP
0C00
1C00
0E00
0700
0380
0180
0000
0000
FFF8
FFF8
FFF8
E000
E000
E000
E000
E000
E000
E000
FFF0
FFF0
FFF0
E000
E000
E000
E000
E000
E000
E000
E000
FFFC
FFFC
FFFC
ENDCHAR
STARTCHAR 0401
ENCODING 1025
SWIDTH 488 0
DWIDTH 19 0
BBX 14 31 4 0
BITMAP
3060
78F0
78F0
38E0
0000
0000
0000
FFF8
FFF8
FFF8
E000
E000
E000
E000
E000
E000
E000
FFF0
FFF0
FFF0
E000
E000
E000
E000
E000
E000
E000
E000
FFFC
FFFC
FFFC
ENDCHAR
STARTCHAR 0402
ENCODING 1026
SWIDTH 488 0
DWIDTH 19 0
BBX 17 24 1 0
BITMAP
FFFC00
FFFC00
FFFC00
1C0000
1C0000
1C0000
1C0000
1C0000
1C0000
1FF800
1FFC00
1FFE00
1C0F00
1C0700
1C0780
1C0380
1C0380
1C0380
1C0780
1C0780
1C0F00
1CBF00
1CFE00
1CF800
ENDCHAR
STARTCHAR 0403
ENCODING 1027
SWIDTH 488 0
DWIDTH 19 0
BBX 16 32 2 0
BITMAP
0018
003C
0078
0070
00E0
00C0
0000
0000
0FFF
0FFF
0FFF
0E00
0E00
0E00
0E00
0E00
0E00
0E00
0E00
0E00
0E00
0E00
0E00
0E00
0E00
0E00
0E00
0E00
0E00
FFF0
FFF0
FFF0
ENDCHAR
STARTCHAR 0404
ENCODING 1028
SWIDTH 488 0
DWIDTH 19 0
BBX 17 26 1 -1
BITMAP
007800
03FF00
0FFF80
1F8700
1E0000
3C0000
380000
700000
700000
700000
700000
FFF800
FFF800
FFF800
700000
700000
700000
700000
780000
380000
3C0000
1E0000
0F8700
07FF80
03FF00
002000
ENDCHAR
STARTCHAR 0405
ENCODING 1029
SWIDTH 488 0
DWIDTH 19 0
BBX 15 26 2 -1
BITMAP
01C0
0FFC
3FFC
3C3C
7800
7000
7000
7000
7000
7800
3E00
1F80
0FE0
03F8
00FC
003E
001E
000E
000E
000E
000E
401E
787C
FFFC
3FF0
0300
ENDCHAR
STARTCHAR 0406
ENCODING 1030
SWIDTH 488 0
DWIDTH 19 0
BBX 13 24 3 0
BITMAP
FFF8
FFF8
FFF8
0700
0700
0700
0700
0700
0700
0700
0700
0700
0700
0700
0700
0700
0700
0700
0700
0700
0700
FFF8
FFF8
FFF8
ENDCHAR
STARTCHAR 0407
ENCODING 1031
SWIDTH 488 0
DWIDTH 19 0
BBX 13 31 3 0
BITMAP
3860
78F0
78F0
38F0
0000
0000
0000
FFF8
FFF8
FFF8
0700
0700
0700
0700
0700
0700
0700
0700
0700
0700
0700
0700
0700
0700
0700
0700
0700
0700
FFF8
FFF8
FFF8
ENDCHAR
STARTCHAR 0408
ENCODING 1032
SWIDTH 488 0
DWIDTH 19 0
BBX 14 25 2 -1
BITMAP
1FFC
1FFC
1FFC
001C
001C
001C
001C
001C
001C
001C
001C
001C
001C
001C
001C
001C
001C
001C
001C
003C
403C
70F8
FFF0
3FE0
0200
ENDCHAR
STARTCHAR 0409
ENCODING 1033
SWIDTH 488 0
DWIDTH 19 0
BBX 19 24 0 0
BITMAP
1FF000
1FF000
1FF000
1C7000
1C7000
1C7000
1C7000
1C7000
1C7000
1C7F00
1C7F80
1C77C0
1C71C0
1C71C0
1C71E0
1C70E0
1C70E0
1C70E0
1C71C0
3C71C0
3871C0
F877C0
F07F80
607F00
ENDCHAR
STARTCHAR 040A
ENCODING 1034
SWIDTH 488 0
DWIDTH 19 0
BBX 17 24 2 0
BITMAP
E1C000
E1C000
E1C000
E1C000
E1C000
E1C000
E1C000
E1C000
E1C000
FFFC00
FFFE00
FFFF00
E1C700
E1C700
E1C780
E1C380
E1C380
E1C380
E1C700
E1C700
E1C700
E1DF00
E1FE00
E1FC00
ENDCHAR
STARTCHAR 040B
ENCODING 1035
SWIDTH 488 0
DWIDTH 19 0
BBX 16 24 1 0
BITMAP
FFFC
FFFC
FFFC
1C00
1C00
1C00
1C00
1C00
1C00
1FF8
1FFE
1FFE
1C0F
1C07
1C07
1C07
1C07
1C07
1C07
1C07
1C07
1C07
1C07
1C07
ENDCHAR
STARTCHAR 040C
ENCODING 1036
SWIDTH 488 0
DWIDTH 19 0
BBX 17 32 2 0
BITMAP
00C000
00E000
01C000
038000
070000
060000
000000
000000
F00F00
F01E00
F01C00
F03C00
F07800
F0F000
F1E000
F1E000
F3C000
F78000
FF0000
FF0000
FF8000
F7C000
F3E000
F1F000
F0F000
F07800
F03C00
F01E00
F01E00
F00F00
F00700
F00780
ENDCHAR
STARTCHAR 040D
ENCODING 1037
SWIDTH 488 0
DWIDTH 19 0
BBX 15 32 2 0
BITMAP
0200
0700
0780
03C0
01E0
00E0
0000
0000
E00E
E01E
E01E
E03E
E03E
E07E
E0FE
E0EE
E1CE
E1CE
E38E
E38E
E38E
E70E
E70E
EE0E
EE0E
FC0E
FC0E
F80E
F80E
F00E
F00E
F00E
ENDCHAR
STARTCHAR 040E
ENCODING 1038
SWIDTH 488 0
DWIDTH 19 0
BBX 18 31 1 0
BITMAP
0C1C00
0E1C00
0FF800
07F000
00C000
000000
000000
E001C0
E003C0
F00380
700380
780780
380700
3C0700
1C0F00
1E0E00
0E0E00
0F1C00
071C00
079C00
03B800
01F800
01F000
00F000
00E000
00E000
01C000
03C000
6F8000
7F0000
FE0000
ENDCHAR
STARTCHAR 040F
ENCODING 1039
SWIDTH 488 0
DWIDTH 19 0
BBX 16 30 2 -6
BITMAP
E00F
E00F
E00F
E00F
E00F
E00F
E00F
E00F
E00F
E00F
E00F
E00F
E00F
E00F
E00F
E00F
E00F
E00F
E00F
E00F
E00F
FFFF
FFFF
FFFF
0380
0380
0380
0380
0380
0380
ENDCHAR
STARTCHAR 0410
ENCODING 1040
SWIDTH 488 0
DWIDTH 19 0
BBX 19 24 0 0
BITMAP
00F000
01F000
01F800
03B800
03B800
039C00
071C00
071C00
070E00
0E0E00
0E0E00
0E0700
0C0700
1C0700
1C0780
1FFF80
3FFF80
3FFF80
3803C0
3801C0
7001C0
7001C0
7001E0
F000E0
ENDCHAR
STARTCHAR 0411
ENCODING 1041
SWIDTH 488 0
DWIDTH 19 0
BBX 16 24 2 0
BITMAP
FFF8
FFF8
FFF8
E000
E000
E000
E000
E000
E000
FFC0
FFF8
FFFC
E03E
E01E
E00E
E00E
E00F
E00F
E00E
E01E
E03E
FBFC
FFF8
FFE0
ENDCHAR
STARTCHAR 0412
ENCODING 1042
SWIDTH 488 0
DWIDTH 19 0
BBX 16 24 2 0
BITMAP
FFE0
FFF8
F1F8
E03C
E01C
E01C
E01C
E01C
E03C
E078
FFF0
FFF0
FFFC
E03C
E00E
E00E
E00F
E00F
E00E
E00E
E01E
FFFC
FFF8
FFE0
ENDCHAR
STARTCHAR 0413
ENCODING 1043
SWIDTH 488 0
DWIDTH 19 0
BBX 16 24 2 0
BITMAP
0FFF
0FFF
0FFF
0E00
0E00
0E00
0E00
0E00
0E00
0E00
0E00
0E00
0E00
0E00
0E00
0E00
0E00
0E00
0E00
0E00
0E00
FFF0
FFF0
FFF0
ENDCHAR
STARTCHAR 0414
ENCODING 1044
SWIDTH 488 0
DWIDTH 19 0
BBX 17 30 1 -6
BITMAP
07FF00
07FF00
07FF00
070700
070700
070700
070700
070700
070700
070700
0F0700
0F0700
0E0700
0E0700
0E0700
0E0700
1E0700
1C0700
1C0700
3C0700
380700
FFFF80
FFFF80
FFFF80
E00380
E00380
E00380
E00380
E00380
E00380
ENDCHAR
STARTCHAR 0415
ENCODING 1045
SWIDTH 488 0
DWIDTH 19 0
BBX 14 24 4 0
BITMAP
FFF8
FFF8
FFF8
E000
E000
E000
E000
E000
E000
E000
FFF0
FFF0
FFF0
E000
E000
E000
E000
E000
E000
E000
E000
FFFC
FFFC
FFFC
ENDCHAR
STARTCHAR 0416
ENCODING 1046
SWIDTH 488 0
DWIDTH 19 0
BBX 19 24 0 0
BITMAP
70E1E0
70E1C0
38E1C0
38E380
1CE380
1CE700
0CE700
0EE600
06EE00
07EC00
03FC00
03FC00
07FC00
0EEE00
0EE700
1CE700
1CE780
3CE380
38E380
38E1C0
70E1C0
70E1E0
70E0E0
F0E0E0
ENDCHAR
STARTCHAR 0417
ENCODING 1047
SWIDTH 488 0
DWIDTH 19 0
BBX 16 25 2 0
BITMAP
0100
7FF0
7FF8
787C
001E
000E
000E
000E
001E
003C
00F8
1FF0
1FF0
1FFC
003E
000E
0007
0007
0007
0007
000F
800E
F07E
FFFC
7FF0
ENDCHAR
STARTCHAR 0418
ENCODING 1048
SWIDTH 488 0
DWIDTH 19 0
BBX 15 24 2 0
BITMAP
E00E
E01E
E01E
E03E
E03E
E07E
E0FE
E0EE
E1CE
E1CE
E38E
E38E
E38E
E70E
E70E
EE0E
EE0E
FC0E
FC0E
F80E
F80E
F00E
F00E
F00E
ENDCHAR
STARTCHAR 0419
ENCODING 1049
SWIDTH 488 0
DWIDTH 19 0
BBX 15 31 2 0
BITMAP
1838
1C38
1FF0
0FE0
0180
0000
0000
E00E
E01E
E01E
E03E
E03E
E07E
E0FE
E0EE
E1CE
E1CE
E38E
E38E
E38E
E70E
E70E
EE0E
EE0E
FC0E
FC0E
F80E
F80E
F00E
F00E
F00E
ENDCHAR
STARTCHAR 041A
ENCODING 1050
SWIDTH 488 0
DWIDTH 19 0
BBX 17 24 2 0
BITMAP
F00F00
F01E00
F01C00
F03C00
F07800
F0F000
F1E000
F1E000
F3C000
F78000
FF0000
FF0000
FF8000
F7C000
F3E000
F1F000
F0F000
F07800
F03C00
F01E00
F01E00
F00F00
F00700
F00780
ENDCHAR
STARTCHAR 041B
ENCODING 1051
SWIDTH 488 0
DWIDTH 19 0
BBX 17 24 1 0
BITMAP
07FF80
07FF80
07FF80
070780
070780
070780
070780
070780
070780
070780
070780
070780
070780
0F0780
0E0780
0E0780
0E0780
1E0780
1C0780
3C0780
380780
F80780
F00780
E00780
ENDCHAR
STARTCHAR 041C
ENCODING 1052
SWIDTH 488 0
DWIDTH 19 0
BBX 17 24 1 0
BITMAP
380F00
380F00
3C0F00
3C1F00
7C1B00
7E1B00
763B00
763B00
773300
737300
737380
73E380
71E380
71E380
71C380
700380
700380
600380
E00380
E00380
E00380
E00380
E00380
E00380
ENDCHAR
STARTCHAR 041D
ENCODING 1053
SWIDTH 488 0
DWIDTH 19 0
BBX 16 24 2 0
BITMAP
E00F
E00F
E00F
E00F
E00F
E00F
E00F
E00F
E00F
E00F
FFFF
FFFF
FFFF
E00F
E00F
E00F
E00F
E00F
E00F
E00F
E00F
E00F
E00F
E00F
ENDCHAR
STARTCHAR 041E
ENCODING 1054
SWIDTH 488 0
DWIDTH 19 0
BBX 17 26 1 -1
BITMAP
00C000
07F800
1FFC00
3E3E00
3C0F00
780700
700700
700780
F00380
F00380
E00380
E00380
E00380
E00380
E00380
E00380
F00380
700380
700780
700700
780700
3C0F00
1E3E00
1FFC00
07F800
008000
ENDCHAR
STARTCHAR 041F
ENCODING 1055
SWIDTH 488 0
DWIDTH 19 0
BBX 16 24 2 0
BITMAP
FFFF
FFFF
FFFF
E00F
E00F
E00F
E00F
E00F
E00F
E00F
E00F
E00F
E00F
E00F
E00F
E00F
E00F
E00F
E00F
E00F
E00F
E00F
E00F
E00F
ENDCHAR
STARTCHAR 0420
ENCODING 1056
SWIDTH 488 0
DWIDTH 19 0
BBX 15 24 3 0
BITMAP
FFE0
FFF0
F1F8
E03C
E01C
E01E
E01E
E01E
E01E
E01C
E01C
E07C
FFF8
FFF0
FFC0
E000
E000
E000
E000
E000
E000
E000
E000
E000
ENDCHAR
STARTCHAR 0421
ENCODING 1057
SWIDTH 488 0
DWIDTH 19 0
BBX 16 26 2 -1
BITMAP
0060
07FE
0FFF
1F0E
3C02
7800
7800
7000
F000
E000
E000
E000
E000
E000
E000
E000
E000
F000
7000
7000
7800
3C00
1F9E
0FFF
07FE
0040
ENDCHAR
STARTCHAR 0422
ENCODING 1058
SWIDTH 488 0
DWIDTH 19 0
BBX 16 24 2 0
BITMAP
FFFF
FFFF
FFFF
0380
0380
0380
0380
0380
0380
0380
0380
0380
0380
0380
0380
0380
0380
0380
0380
0380
0380
0380
0380
0380
ENDCHAR
STARTCHAR 0423
ENCODING 1059
SWIDTH 488 0
DWIDTH 19 0
BBX 18 24 1 0
BITMAP
E001C0
E003C0
F00380
700380
780780
380700
3C0700
1C0F00
1E0E00
0E0E00
0F1C00
071C00
079C00
03B800
01F800
01F000
00F000
00E000
00E000
01C000
03C000
6F8000
7F0000
FE0000
ENDCHAR
STARTCHAR 0424
ENCODING 1060
SWIDTH 488 0
DWIDTH 19 0
BBX 16 26 2 0
BITMAP
0180
0180
0180
07E0
1FF8
3FFC
799E
718E
F18F
E187
E187
E187
E187
E187
E187
E187
E187
E18F
718E
799E
3FFC
1FF8
07E0
0180
0180
0180
ENDCHAR
STARTCHAR 0425
ENCODING 1061
SWIDTH 488 0
DWIDTH 19 0
BBX 17 24 1 0
BITMAP
700780
780700
380F00
3C0E00
1C1E00
1E1C00
0E3800
077800
077000
03F000
03E000
03E000
03F000
07F000
077800
0F3800
0E3C00
1C1C00
1C1E00
380E00
380F00
780700
700780
F00380
ENDCHAR
STARTCHAR 0426
ENCODING 1062
SWIDTH 488 0
DWIDTH 19 0
BBX 16 30 2 -6
BITMAP
E00E
E00E
E00E
E00E
E00E
E00E
E00E
E00E
E00E
E00E
E00E
E00E
E00E
E00E
E00E
E00E
E00E
E00E
E00E
E00E
E00E
FFFF
FFFF
FFFF
0007
0007
0007
0007
0007
0007
ENDCHAR
STARTCHAR 0427
ENCODING 1063
SWIDTH 488 0
DWIDTH 19 0
BBX 15 24 2 0
BITMAP
E00E
E00E
E00E
E00E
E00E
E00E
E00E
E00E
E00E
F00E
F00E
700E
7C1E
3FFE
1FFE
018E
000E
000E
000E
000E
000E
000E
000E
000E
ENDCHAR
STARTCHAR 0428
ENCODING 1064
SWIDTH 488 0
DWIDTH 19 0
BBX 16 24 2 0
BITMAP
E007
E007
E007
E007
E007
E007
E007
E007
E007
E387
E387
E387
E387
E387
E387
E387
E387
E387
E387
E387
E387
FFFF
FFFF
FFFF
ENDCHAR
STARTCHAR 0429
ENCODING 1065
SWIDTH 488 0
DWIDTH 19 0
BBX 16 30 2 -6
BITMAP
E00E
E00E
E00E
E00E
E00E
E00E
E00E
E00E
E00E
E38E
E38E
E38E
E38E
E38E
E38E
E38E
E38E
E38E
E38E
E38E
E38E
FFFF
FFFF
FFFF
0007
0007
0007
0007
0007
0007
ENDCHAR
STARTCHAR 042A
ENCODING 1066
SWIDTH 488 0
DWIDTH 19 0
BBX 17 24 1 0
BITMAP
FE0000
FE0000
FE0000
1E0000
1E0000
1E0000
1E0000
1E0000
1E0000
1FF800
1FFE00
1E3F00
1E0F00
1E0700
1E0780
1E0380
1E0380
1E0380
1E0780
1E0700
1E0F00
1E7E00
1FFE00
1FF800
ENDCHAR
STARTCHAR 042B
ENCODING 1067
SWIDTH 488 0
DWIDTH 19 0
BBX 17 24 1 0
BITMAP
E00380
E00380
E00380
E00380
E00380
E00380
E00380
E00380
E00380
FF8380
FFC380
E3E380
E0E380
E0E380
E0F380
E07380
E07380
E0F380
E0F380
E0E380
E0E380
F7E380
FFC380
FF0380
ENDCHAR
STARTCHAR 042C
ENCODING 1068
SWIDTH 488 0
DWIDTH 19 0
BBX 16 24 2 0
BITMAP
E000
E000
E000
E000
E000
E000
E000
E000
E000
FFF0
FFF8
E0FC
E01E
E00E
E00F
E007
E007
E007
E00F
E00E
E01E
F1FC
FFF8
FFE0
ENDCHAR
STARTCHAR 042D
ENCODING 1069
SWIDTH 488 0
DWIDTH 19 0
BBX 16 26 2 -1
BITMAP
0F00
7FE0
FFF0
E0F8
003C
001E
000E
000F
0007
0007
0007
0FFF
0FFF
0FFF
0007
0007
0007
000F
000E
000E
001E
003C
F0F8
FFF0
7FE0
0600
ENDCHAR
STARTCHAR 042E
ENCODING 1070
SWIDTH 488 0
DWIDTH 19 0
BBX 16 26 2 -1
BITMAP
0030
E0FC
E1FC
E3CE
E38E
E387
E387
E707
E707
E707
E707
FF07
FF07
FF07
E707
E707
E707
E707
E787
E387
E387
E38E
E3CE
E1FC
E0FC
0020
ENDCHAR
STARTCHAR 042F
ENCODING 1071
SWIDTH 488 0
DWIDTH 19 0
BBX 16 24 2 0
BITMAP
07FF
0FFF
1F9F
3C07
3807
7807
7007
7007
7807
7807
3807
1E07
1FFF
07FF
07FF
0707
0E07
1E07
1C07
3C07
3807
7807
7007
F007
ENDCHAR
STARTCHAR 0430
ENCODING 1072
SWIDTH 488 0
DWIDTH 19 0
BBX 15 18 2 0
BITMAP
3FF0
3FF8
307C
001C
001E
000E
000E
0FFE
3FFE
7FFE
780E
F00E
F00E
F00E
F00E
7C1E
3FFE
1FFE
ENDCHAR
STARTCHAR 0431
ENCODING 1073
SWIDTH 488 0
DWIDTH 19 0
BBX 16 27 2 0
BITMAP
000E
01FE
07FE
0FC0
1E00
3C00
7800
7000
7000
E1C0
EFF8
FFFC
F83E
F01E
E00E
E00F
E00F
E007
E007
E007
E00F
F00E
700E
781E
3C7C
3FF8
0FF0
ENDCHAR
STARTCHAR 0432
ENCODING 1074
SWIDTH 488 0
DWIDTH 19 0
BBX 15 19 3 0
BITMAP
0400
FFE0
FFF8
E078
E03C
E01C
E03C
E038
FFF0
FFF0
FFF8
E03C
E01C
E01E
E01E
E01C
E07C
FFF8
FFE0
ENDCHAR
STARTCHAR 0433
ENCODING 1075
SWIDTH 488 0
DWIDTH 19 0
BBX 13 18 4 0
BITMAP
FFF8
FFF8
FFF8
E000
E000
E000
E000
E000
E000
E000
E000
E000
E000
E000
E000
E000
E000
E000
ENDCHAR
STARTCHAR 0434
ENCODING 1076
SWIDTH 488 0
DWIDTH 19 0
BBX 17 23 1 -5
BITMAP
07FF00
07FF00
07FF00
070F00
070F00
070F00
0F0F00
0F0F00
0E0F00
0E0F00
0E0F00
1E0F00
1C0F00
1C0F00
380F00
FFFF80
FFFF80
FFFF80
E00380
E00380
E00380
E00380
E00380
ENDCHAR
STARTCHAR 0435
ENCODING 1077
SWIDTH 488 0
DWIDTH 19 0
BBX 16 18 2 0
BITMAP
0FF0
1FF8
3E7C
781E
F00E
E00E
E00F
FFFF
FFFF
FFFF
E000
E000
E000
F000
7800
3FBC
1FFC
0FFC
ENDCHAR
STARTCHAR 0436
ENCODING 1078
SWIDTH 488 0
DWIDTH 19 0
BBX 19 18 0 0
BITMAP
78E1C0
38E380
1CE380
1CE700
0EE700
0EEE00
07EC00
03FC00
03F800
07FC00
07EE00
0EEE00
1CE700
1CE380
38E380
78E1C0
70E1C0
F0E0E0
ENDCHAR
STARTCHAR 0437
ENCODING 1079
SWIDTH 488 0
DWIDTH 19 0
BBX 14 18 3 1
BITMAP
FFE0
7FF8
70F8
003C
003C
003C
0038
1FF0
1FE0
1FF8
003C
001C
001C
001C
003C
F8FC
FFF8
FFE0
ENDCHAR
STARTCHAR 0438
ENCODING 1080
SWIDTH 488 0
DWIDTH 19 0
BBX 15 18 2 0
BITMAP
F00E
F01E
F03E
F07E
F07E
F0EE
F1CE
F1CE
F38E
F30E
F70E
FE0E
FE0E
FC0E
F80E
F80E
F00E
F00E
ENDCHAR
STARTCHAR 0439
ENCODING 1081
SWIDTH 488 0
DWIDTH 19 0
BBX 15 26 2 0
BITMAP
0C10
1C38
1E78
0FF0
03E0
0000
0000
0000
F00E
F01E
F03E
F07E
F07E
F0EE
F1CE
F1CE
F38E
F30E
F70E
FE0E
FE0E
FC0E
F80E
F80E
F00E
F00E
ENDCHAR
STARTCHAR 043A
ENCODING 1082
SWIDTH 488 0
DWIDTH 19 0
BBX 15 18 3 0
BITMAP
E01C
E038
E070
E0E0
E3C0
E780
EF00
FE00
FE00
FF00
E780
E3C0
E1E0
E0F0
E078
E03C
E01E
E01E
ENDCHAR
STARTCHAR 043B
ENCODING 1083
SWIDTH 488 0
DWIDTH 19 0
BBX 16 18 1 0
BITMAP
07FF
07FF
07FF
070F
070F
070F
070F
070F
070F
070F
0E0F
0E0F
0E0F
1E0F
3C0F
F80F
F00F
E00F
ENDCHAR
STARTCHAR 043C
ENCODING 1084
SWIDTH 488 0
DWIDTH 19 0
BBX 17 18 1 0
BITMAP
780700
780F00
780F00
7C0F00
7C1F80
7C1B80
6E1B80
663B80
673380
E77380
E37380
E3E380
E3E380
E1E380
E00380
E00380
E00380
E00380
ENDCHAR
STARTCHAR 043D
ENCODING 1085
SWIDTH 488 0
DWIDTH 19 0
BBX 14 18 3 0
BITMAP
E03C
E03C
E03C
E03C
E03C
E03C
E03C
FFFC
FFFC
FFFC
E03C
E03C
E03C
E03C
E03C
E03C
E03C
E03C
ENDCHAR
STARTCHAR 043E
ENCODING 1086
SWIDTH 488 0
DWIDTH 19 0
BBX 16 18 2 0
BITMAP
0FF0
3FF8
3EFC
781E
F01E
E00E
E00F
E00F
E007
E007
E00F
E00F
E00E
F01E
781E
3EFC
3FF8
0FF0
ENDCHAR
STARTCHAR 043F
ENCODING 1087
SWIDTH 488 0
DWIDTH 19 0
BBX 14 18 3 0
BITMAP
FFFC
FFFC
FFFC
E03C
E03C
E03C
E03C
E03C
E03C
E03C
E03C
E03C
E03C
E03C
E03C
E03C
E03C
E03C
ENDCHAR
STARTCHAR 0440
ENCODING 1088
SWIDTH 488 0
DWIDTH 19 0
BBX 15 24 3 -6
BITMAP
FFC0
FFF0
F9F8
E07C
E03C
E01C
E01E
E01E
E00E
E00E
E01E
E01E
E01C
E01C
E03C
FFF8
FFF0
FFE0
E000
E000
E000
E000
E000
E000
ENDCHAR
STARTCHAR 0441
ENCODING 1089
SWIDTH 488 0
DWIDTH 19 0
BBX 16 18 2 0
BITMAP
07FE
1FFE
3F8E
7C00
7800
F000
F000
E000
E000
E000
E000
F000
F000
7800
7C00
3FDE
1FFE
07FF
ENDCHAR
STARTCHAR 0442
ENCODING 1090
SWIDTH 488 0
DWIDTH 19 0
BBX 15 18 2 0
BITMAP
FFFE
FFFE
FFFE
0380
0380
0380
0380
0380
0380
0380
0380
0380
0380
0380
0380
0380
0380
0380
ENDCHAR
STARTCHAR 0443
ENCODING 1091
SWIDTH 488 0
DWIDTH 19 0
BBX 16 25 2 -7
BITMAP
E00F
F00F
700E
700E
781E
381C
381C
3C1C
1C3C
1C38
1E38
0E78
0F70
0770
07E0
03E0
03E0
01C0
01C0
0380
0380
0F00
FE00
FC00
4000
ENDCHAR
STARTCHAR 0444
ENCODING 1092
SWIDTH 488 0
DWIDTH 19 0
BBX 17 33 1 -6
BITMAP
00C000
01C000
01C000
01C000
01C000
01C000
01C000
01C000
01C000
0FF800
1FFC00
3FFE00
79CF00
71C780
F1C380
E1C380
E1C380
E1C380
E1C380
E1C380
E1C380
F1C380
71C780
79CF00
3FFE00
1FFC00
07F800
01C000
01C000
01C000
01C000
01C000
01C000
ENDCHAR
STARTCHAR 0445
ENCODING 1093
SWIDTH 488 0
DWIDTH 19 0
BBX 17 18 1 0
BITMAP
700700
380F00
3C0E00
1E1C00
0F3C00
077800
07F000
03E000
01E000
03F000
07F000
073800
0E3C00
1E1E00
3C0E00
380F00
700780
F00380
ENDCHAR
STARTCHAR 0446
ENCODING 1094
SWIDTH 488 0
DWIDTH 19 0
BBX 15 23 3 -5
BITMAP
E03C
E03C
E03C
E03C
E03C
E03C
E03C
E03C
E03C
E03C
E03C
E03C
E03C
E03C
E03C
FFFE
FFFE
FFFE
000E
000E
000E
000E
000E
ENDCHAR
STARTCHAR 0447
ENCODING 1095
SWIDTH 488 0
DWIDTH 19 0
BBX 15 18 2 0
BITMAP
E01E
E01E
E01E
E01E
E01E
E01E
E01E
F01E
781E
7FFE
3FFE
039E
001E
001E
001E
001E
001E
001E
ENDCHAR
STARTCHAR 0448
ENCODING 1096
SWIDTH 488 0
DWIDTH 19 0
BBX 16 18 2 0
BITMAP
E007
E007
E007
E007
E387
E387
E387
E387
E387
E387
E387
E387
E387
E387
E387
FFFF
FFFF
FFFF
ENDCHAR
STARTCHAR 0449
ENCODING 1097
SWIDTH 488 0
DWIDTH 19 0
BBX 16 23 2 -5
BITMAP
E00E
E00E
E00E
E00E
E38E
E38E
E38E
E38E
E38E
E38E
E38E
E38E
E38E
E38E
E38E
FFFF
FFFF
FFFF
0007
0007
0007
0007
0007
ENDCHAR
STARTCHAR 044A
ENCODING 1098
SWIDTH 488 0
DWIDTH 19 0
BBX 17 18 1 0
BITMAP
FC0000
FC0000
FC0000
1C0000
1C0000
1C0000
1C6000
1FFE00
1FFF00
1C0F00
1C0780
1C0380
1C0380
1C0380
1C0780
1C0F00
1FFF00
1FFC00
ENDCHAR
STARTCHAR 044B
ENCODING 1099
SWIDTH 488 0
DWIDTH 19 0
BBX 16 18 2 0
BITMAP
E007
E007
E007
E007
E007
E007
E407
FF87
FFC7
E3C7
E1E7
E0E7
E0E7
E0E7
E1E7
E3C7
FFC7
FF87
ENDCHAR
STARTCHAR 044C
ENCODING 1100
SWIDTH 488 0
DWIDTH 19 0
BBX 15 18 3 0
BITMAP
E000
E000
E000
E000
E000
E000
E300
FFF0
FFF8
E03C
E01E
E00E
E00E
E01E
E01E
E07C
FFF8
FFF0
ENDCHAR
STARTCHAR 044D
ENCODING 1101
SWIDTH 488 0
DWIDTH 19 0
BBX 16 18 2 0
BITMAP
7FE0
7FF8
61FC
003C
001E
000E
000F
0FFF
0FFF
0FFF
0007
000F
000E
001E
003C
71FC
FFF8
FFE0
ENDCHAR
STARTCHAR 044E
ENCODING 1102
SWIDTH 488 0
DWIDTH 19 0
BBX 16 18 2 0
BITMAP
E0FC
E1FE
E1CE
E387
E387
E387
E387
E387
FF87
FF87
E387
E387
E387
E387
E387
E1EE
E1FE
E0FC
ENDCHAR
STARTCHAR 044F
ENCODING 1103
SWIDTH 488 0
DWIDTH 19 0
BBX 15 19 2 0
BITMAP
00C0
0FFE
3FFE
7C1E
701E
701E
701E
701E
781E
7E1E
3FFE
0FFE
1C1E
3C1E
381E
781E
701E
F01E
E01E
ENDCHAR
STARTCHAR 0450
ENCODING 1104
SWIDTH 488 0
DWIDTH 19 0
BBX 16 27 2 0
BITMAP
0200
0700
0700
0380
01C0
00E0
0040
0000
0000
0FF0
1FF8
3E7C
781E
F00E
E00E
E00F
FFFF
FFFF
FFFF
E000
E000
E000
F000
7800
3FBC
1FFC
0FFC
ENDCHAR
STARTCHAR 0451
ENCODING 1105
SWIDTH 488 0
DWIDTH 19 0
BBX 16 25 2 0
BITMAP
1E38
1E7C
1E38
0810
0000
0000
0000
0FF0
1FF8
3E7C
781E
F00E
E00E
E00F
FFFF
FFFF
FFFF
E000
E000
E000
F000
7800
3FBC
1FFC
0FFC
ENDCHAR
STARTCHAR 0452
ENCODING 1106
SWIDTH 488 0
DWIDTH 19 0
BBX 16 34 1 -7
BITMAP
1C00
3C00
3C00
FFF0
FFF0
FFF0
3C00
3C00
3C00
3FF8
3FFC
3F7E
3C1E
3C0E
3C0F
3C07
3C07
3C07
3C07
3C07
3C07
3C07
3C07
3C07
3C07
3C07
3C07
0007
0007
000F
000E
007E
007C
0020
ENDCHAR
STARTCHAR 0453
ENCODING 1107
SWIDTH 488 0
DWIDTH 19 0
BBX 13 27 4 0
BITMAP
0040
00E0
01E0
03C0
0780
0700
0200
0000
0000
FFF8
FFF8
FFF8
E000
E000
E000
E000
E000
E000
E000
E000
E000
E000
E000
E000
E000
E000
E000
ENDCHAR
STARTCHAR 0454
ENCODING 1108
SWIDTH 488 0
DWIDTH 19 0
BBX 16 18 2 0
BITMAP
07FE
1FFE
3F0E
7C00
7800
F000
E000
FFE0
FFE0
FFE0
E000
E000
F000
7800
7C00
3F9E
1FFE
07FF
ENDCHAR
STARTCHAR 0455
ENCODING 1109
SWIDTH 488 0
DWIDTH 19 0
BBX 14 18 3 0
BITMAP
3FF8
7FF8
F838
E000
E000
E000
F800
7E00
3FC0
0FF0
01F8
007C
003C
001C
803C
F8F8
FFF8
FFE0
ENDCHAR
STARTCHAR 0456
ENCODING 1110
SWIDTH 488 0
DWIDTH 19 0
BBX 15 26 2 0
BITMAP
0700
0F00
0F80
0F00
0F00
0000
0000
0000
FF80
FF80
FF80
0780
0780
0780
0780
0780
0780
0780
0780
0780
0780
0780
0380
03EE
03FE
01FE
ENDCHAR
STARTCHAR 0457
ENCODING 1111
SWIDTH 488 0
DWIDTH 19 0
BBX 15 25 2 0
BITMAP
78E0
78F0
78E0
3040
0000
0000
0000
FF80
FF80
FF80
0780
0780
0780
0780
0780
0780
0780
0780
0780
0780
0780
0380
03EE
03FE
01FE
ENDCHAR
STARTCHAR 0458
ENCODING 1112
SWIDTH 488 0
DWIDTH 19 0
BBX 12 33 3 -7
BITMAP
01E0
01E0
03E0
01E0
01E0
0000
0000
0000
7FF0
7FF0
7FF0
0070
0070
0070
0070
0070
0070
0070
0070
0070
0070
0070
0070
0070
0070
0070
0070
0070
00F0
F1E0
FFE0
FFC0
0400
ENDCHAR
STARTCHAR 0459
ENCODING 1113
SWIDTH 488 0
DWIDTH 19 0
BBX 18 18 1 0
BITMAP
1FE000
1FE000
1FE000
1CE000
1CE000
1CE000
1CE800
1CFF00
1CFF80
1CE380
18E380
38E1C0
38E1C0
38E3C0
78E380
F0E780
F0FF80
C0FF00
ENDCHAR
STARTCHAR 045A
ENCODING 1114
SWIDTH 488 0
DWIDTH 19 0
BBX 17 18 2 0
BITMAP
E1C000
E1C000
E1C000
E1C000
E1C000
E1C000
E1D000
FFFE00
FFFF00
FFC700
E1C700
E1C380
E1C380
E1C780
E1C700
E1CF00
E1FF00
E1FE00
ENDCHAR
STARTCHAR 045B
ENCODING 1115
SWIDTH 488 0
DWIDTH 19 0
BBX 16 27 1 0
BITMAP
1C00
3C00
3C00
FFF0
FFF0
FFF0
3C00
3C00
3C00
3FF8
3FFC
3F7E
3C1E
3C0E
3C0F
3C07
3C07
3C07
3C07
3C07
3C07
3C07
3C07
3C07
3C07
3C07
3C07
ENDCHAR
STARTCHAR 045C
ENCODING 1116
SWIDTH 488 0
DWIDTH 19 0
BBX 15 27 3 0
BITMAP
0040
00E0
01E0
01C0
0380
0700
0200
0000
0000
E01C
E038
E070
E0E0
E3C0
E780
EF00
FE00
FE00
FF00
E780
E3C0
E1E0
E0F0
E078
E03C
E01E
E01E
ENDCHAR
STARTCHAR 045D
ENCODING 1117
SWIDTH 488 0
DWIDTH 19 0
BBX 15 27 2 0
BITMAP
0200
0700
0780
0380
01C0
00E0
0040
0000
0000
F00E
F01E
F03E
F07E
F07E
F0EE
F1CE
F1CE
F38E
F30E
F70E
FE0E
FE0E
FC0E
F80E
F80E
F00E
F00E
ENDCHAR
STARTCHAR 045E
ENCODING 1118
SWIDTH 488 0
DWIDTH 19 0
BBX 16 33 2 -7
BITMAP
0C10
1C18
0E78
0FF0
03E0
0000
0000
0000
E00F
F00F
700E
700E
781E
381C
381C
3C1C
1C3C
1C38
1E38
0E78
0F70
0770
07E0
03E0
03E0
01C0
01C0
0380
0380
0F00
FE00
FC00
4000
ENDCHAR
STARTCHAR 045F
ENCODING 1119
SWIDTH 488 0
DWIDTH 19 0
BBX 14 23 3 -5
BITMAP
E03C
E03C
E03C
E03C
E03C
E03C
E03C
E03C
E03C
E03C
E03C
E03C
E03C
E03C
E03C
FFFC
FFFC
FFFC
0700
0700
0700
0700
0700
ENDCHAR
STARTCHAR 0462
ENCODING 1122
SWIDTH 488 0
DWIDTH 19 0
BBX 17 26 1 0
BITMAP
1C0000
1C0000
1C0000
FFF800
FFF800
FFF800
1C0000
1C0000
1C0000
1C0000
1C0000
1FF000
1FFE00
1FFF00
1C0F00
1C0780
1C0380
1C0380
1C0380
1C0380
1C0380
1C0780
1C0F00
1F7F00
1FFE00
1FF800
ENDCHAR
STARTCHAR 0463
ENCODING 1123
SWIDTH 488 0
DWIDTH 19 0
BBX 17 27 1 0
BITMAP
0C0000
1C0000
1C0000
1C0000
1C0000
1C0000
1C0000
1C0000
1C0000
FFF800
FFF800
FFF800
1C0000
1C0000
1C0000
1C4000
1FFC00
1FFF00
1C0F00
1C0780
1C0380
1C0380
1C0380
1C0780
1C0F00
1FFE00
1FFC00
ENDCHAR
STARTCHAR 0472
ENCODING 1138
SWIDTH 488 0
DWIDTH 19 0
BBX 17 26 1 -1
BITMAP
00C000
07F800
1FFC00
3E3E00
380F00
780700
700700
700780
F00380
F00380
E00380
EF8380
FFC380
F9FF80
F07F80
E01B80
F00380
700380
700780
700700
780700
3C0F00
1E3E00
1FFC00
07F800
008000
ENDCHAR
STARTCHAR 0473
ENCODING 1139
SWIDTH 488 0
DWIDTH 19 0
BBX 16 18 2 0
BITMAP
0FF0
3FF8
3EFC
781E
F01E
E00E
E00F
FF0F
FFFF
F1FF
E07F
E00F
E00E
F01E
781E
3EFC
3FF8
0FF0
ENDCHAR
STARTCHAR 0474
ENCODING 1140
SWIDTH 488 0
DWIDTH 19 0
BBX 18 24 1 0
BITMAP
E007C0
E007C0
F00F40
F00E00
700E00
701E00
701C00
781C00
381C00
381C00
383800
3C3800
1C3800
1C3800
1C7000
0C7000
0E7000
0E7000
0EE000
07E000
07E000
07E000
03C000
03C000
ENDCHAR
STARTCHAR 0475
ENCODING 1141
SWIDTH 488 0
DWIDTH 19 0
BBX 18 18 1 1
BITMAP
F007C0
700FC0
701E00
701C00
781C00
383800
383800
3C3800
1C7000
1C7000
1C7000
0EE000
0EE000
0EE000
07C000
07C000
07C000
038000
ENDCHAR
STARTCHAR 048A
ENCODING 1162
SWIDTH 488 0
DWIDTH 19 0
BBX 17 38 2 -7
BITMAP
383800
1C3800
1FF000
0FE000
018000
000000
000000
E01E00
E01E00
E03E00
E03E00
E07E00
E07E00
E0EE00
E0EE00
E1CE00
E1CE00
E18E00
E38E00
E30E00
E70E00
E70E00
EE0E00
EE0E00
EC0E00
FC0E00
F80E00
F80E00
F80F80
F00F80
F00F00
000700
000700
000E00
001E00
001C00
001800
000800
ENDCHAR
STARTCHAR 048B
ENCODING 1163
SWIDTH 488 0
DWIDTH 19 0
BBX 17 31 2 -6
BITMAP
0C1000
1C3800
0E7800
0FF000
03E000
000000
000000
000000
F00E00
F01E00
F03E00
F03E00
F07E00
F0EE00
F0CE00
F1CE00
F38E00
F30E00
F70E00
FE0E00
FE0E00
FC0E00
F80E00
F80F80
F00F80
F00F80
000700
000700
000F00
000E00
001C00
ENDCHAR
STARTCHAR 048C
ENCODING 1164
SWIDTH 488 0
DWIDTH 19 0
BBX 17 24 1 0
BITMAP
3C0000
3C0000
3C0000
FFC000
FFC000
3C0000
3C0000
3C0000
3C0000
3FF000
3FFC00
3FFF00
3C0F00
3C0780
3C0380
3C0380
3C0380
3C0380
3C0380
3C0780
3C0F00
3EFF00
3FFE00
3FF800
ENDCHAR
STARTCHAR 048D
ENCODING 1165
SWIDTH 488 0
DWIDTH 19 0
BBX 17 19 1 0
BITMAP
3C0000
3C0000
FFF000
FFF000
FFF000
3C0000
3C0000
3C4000
3FFC00
3FFF00
3C0F00
3C0780
3C0380
3C0380
3C0380
3C0780
3C1F00
3FFE00
3FFC00
ENDCHAR
STARTCHAR 048E
ENCODING 1166
SWIDTH 488 0
DWIDTH 19 0
BBX 15 24 3 0
BITMAP
FFE0
FFF0
F1F8
E03C
E01C
E01E
E01E
E01E
E11E
E71C
E39C
E1FC
FFF8
FFF0
FFE0
E070
E070
E038
E018
E000
E000
E000
E000
E000
ENDCHAR
STARTCHAR 048F
ENCODING 1167
SWIDTH 488 0
DWIDTH 19 0
BBX 15 24 3 -6
BITMAP
FFC0
FFF0
F9F8
E07C
E03C
E01C
E01E
E01E
E00E
E00E
E01E
E19E
E39C
E1DC
E1FC
FEF8
FFF0
FFF0
E038
E038
E018
E010
E000
E000
ENDCHAR
STARTCHAR 0490
ENCODING 1168
SWIDTH 488 0
DWIDTH 19 0
BBX 16 29 2 0
BITMAP
0007
0007
0007
0007
0007
0FFF
0FFF
0FFF
0E00
0E00
0E00
0E00
0E00
0E00
0E00
0E00
0E00
0E00
0E00
0E00
0E00
0E00
0E00
0E00
0E00
0E00
FFF0
FFF0
FFF0
ENDCHAR
STARTCHAR 0491
ENCODING 1169
SWIDTH 488 0
DWIDTH 19 0
BBX 13 23 4 0
BITMAP
0038
0038
0038
0038
0038
FFF8
FFF8
FFF8
E000
E000
E000
E000
E000
E000
E000
E000
E000
E000
E000
E000
E000
E000
E000
ENDCHAR
STARTCHAR 0492
ENCODING 1170
SWIDTH 488 0
DWIDTH 19 0
BBX 16 24 2 0
BITMAP
0FFF
0FFF
0FFF
0E00
0E00
0E00
0E00
0E00
0E00
0E00
FFF0
FFF0
FFF0
0E00
0E00
0E00
0E00
0E00
0E00
0E00
0E00
FFF0
FFF0
FFF0
ENDCHAR
STARTCHAR 0493
ENCODING 1171
SWIDTH 488 0
DWIDTH 19 0
BBX 16 18 1 0
BITMAP
1FFF
1FFF
1FFF
1C00
1C00
1C00
1C00
1C00
FFF8
FFF8
FFF8
1C00
1C00
1C00
1C00
1C00
1C00
1C00
ENDCHAR
STARTCHAR 0494
ENCODING 1172
SWIDTH 488 0
DWIDTH 19 0
BBX 16 30 2 -6
BITMAP
FFFC
FFFC
FFFC
E000
E000
E000
E000
E000
E000
FFE0
FFF0
FFFC
E03C
E01E
E00E
E00F
E00F
E007
E007
E007
E007
E007
E00F
E00F
000E
001E
003C
00FC
07F8
07E0
ENDCHAR
STARTCHAR 0495
ENCODING 1173
SWIDTH 488 0
DWIDTH 19 0
BBX 15 24 3 -6
BITMAP
FFF0
FFF0
FFF0
E000
E000
E000
E000
FFE0
FFF0
FFF8
E03C
E01C
E01E
E00E
E00E
E00E
E00E
E00E
001E
001C
003C
0078
03F8
03E0
ENDCHAR
STARTCHAR 0496
ENCODING 1174
SWIDTH 488 0
DWIDTH 19 0
BBX 19 30 0 -6
BITMAP
70C1C0
70C380
78C380
38C700
38C700
1CC600
1CCE00
0CCE00
0EDC00
06DC00
07F800
07F800
0EDC00
0EDC00
1CCE00
1CCE00
1CC700
38C700
38C780
78C380
70C380
70C3E0
70C1E0
E0C1E0
0000E0
0000E0
0000E0
0000E0
0000E0
0000E0
ENDCHAR
STARTCHAR 0497
ENCODING 1175
SWIDTH 488 0
DWIDTH 19 0
BBX 19 23 0 -5
BITMAP
70E380
38E380
38E700
1CE700
0CEE00
0EEC00
06FC00
07F800
03F000
07F800
0EFC00
0EEE00
1CEE00
38E700
38E380
78E3E0
70E1E0
F0E1E0
0000E0
0000E0
0000E0
0000E0
0000E0
ENDCHAR
STARTCHAR 0498
ENCODING 1176
SWIDTH 488 0
DWIDTH 19 0
BBX 16 32 2 -7
BITMAP
0100
7FF0
7FF8
787C
001E
000E
000E
000E
001E
003C
00F8
1FF0
1FF0
1FFC
003E
000E
0007
0007
0007
0007
000F
800E
F07E
FFFC
7FF0
0300
0300
0380
01C0
0FC0
1F80
0600
ENDCHAR
STARTCHAR 0499
ENCODING 1177
SWIDTH 488 0
DWIDTH 19 0
BBX 14 25 3 -6
BITMAP
FFE0
7FF8
70F8
003C
003C
003C
0038
1FF0
1FE0
1FF8
003C
001C
001C
001C
003C
F8FC
FFF8
FFE0
0600
0600
0700
0380
1F80
3F00
0C00
ENDCHAR
STARTCHAR 049A
ENCODING 1178
SWIDTH 488 0
DWIDTH 19 0
BBX 16 30 2 -6
BITMAP
F00F
F01E
F01C
F03C
F078
F0F0
F1E0
F1E0
F3C0
F780
FF00
FF00
FF80
F7C0
F3C0
F1E0
F0F0
F078
F078
F03C
F01C
F01F
F00F
F00F
0007
0007
0007
0007
0007
0007
ENDCHAR
STARTCHAR 049B
ENCODING 1179
SWIDTH 488 0
DWIDTH 19 0
BBX 15 23 3 -5
BITMAP
E01C
E038
E070
E0E0
E3C0
E780
EF00
FE00
FE00
FF00
E780
E3C0
E1E0
E0F0
E078
E03E
E01E
E01E
000E
000E
000E
000E
000E
ENDCHAR
STARTCHAR 049C
ENCODING 1180
SWIDTH 488 0
DWIDTH 19 0
BBX 17 24 2 0
BITMAP
E00F00
E00F00
E00E00
E01E00
E01C00
E63C00
E63800
E67800
E6F000
E6E000
FFE000
FFC000
FFE000
E6F000
E67000
E67800
E63C00
E63C00
E01E00
E01E00
E00F00
E00F00
E00700
E00780
ENDCHAR
STARTCHAR 049D
ENCODING 1181
SWIDTH 488 0
DWIDTH 19 0
BBX 16 18 2 0
BITMAP
E00F
E01E
E03C
E638
E678
E6F0
E7E0
FFC0
FFC0
FFE0
E6F0
E678
E638
E63C
E01E
E01E
E00F
E00F
ENDCHAR
STARTCHAR 049E
ENCODING 1182
SWIDTH 488 0
DWIDTH 19 0
BBX 18 24 1 0
BITMAP
3C0780
3C0700
3C0F00
FF1E00
FF1C00
3C3C00
3C7800
3CF000
3CE000
3DE000
3FC000
3FC000
3FE000
3DF000
3CF000
3C7800
3C3C00
3C1E00
3C1E00
3C0F00
3C0700
3C0780
3C0380
3C03C0
ENDCHAR
STARTCHAR 049F
ENCODING 1183
SWIDTH 488 0
DWIDTH 19 0
BBX 17 19 1 0
BITMAP
3C0000
3C0700
FF0F00
FF1E00
FF3C00
3C7800
3CF000
3DE000
3FC000
3F8000
3FE000
3DF000
3CF800
3C7800
3C3C00
3C1E00
3C0F00
3C0780
3C0780
ENDCHAR
STARTCHAR 04A0
ENCODING 1184
SWIDTH 488 0
DWIDTH 19 0
BBX 18 24 1 0
BITMAP
FE0780
FE0700
FE0F00
1E0E00
1E1E00
1E3C00
1E3800
1E7800
1EF000
1FE000
1FC000
1FC000
1FE000
1EF000
1E7800
1E3800
1E1C00
1E1E00
1E0E00
1E0F00
1E0700
1E0780
1E0380
1E03C0
ENDCHAR
STARTCHAR 04A1
ENCODING 1185
SWIDTH 488 0
DWIDTH 19 0
BBX 17 18 1 0
BITMAP
FC0700
FC0F00
FC1E00
1C3C00
1C7800
1CF000
1DE000
1FC000
1FC000
1DE000
1CF000
1C7800
1C3C00
1C1E00
1C1E00
1C0F00
1C0780
1C0780
ENDCHAR
STARTCHAR 04A2
ENCODING 1186
SWIDTH 488 0
DWIDTH 19 0
BBX 16 30 2 -6
BITMAP
E00E
E00E
E00E
E00E
E00E
E00E
E00E
E00E
E00E
E00E
FFFE
FFFE
FFFE
E00E
E00E
E00E
E00E
E00E
E00E
E00E
E00E
E00F
E00F
E00F
0007
0007
0007
0007
0007
0007
ENDCHAR
STARTCHAR 04A3
ENCODING 1187
SWIDTH 488 0
DWIDTH 19 0
BBX 15 23 3 -5
BITMAP
E03C
E03C
E03C
E03C
E03C
E03C
E03C
FFFC
FFFC
FFFC
E03C
E03C
E03C
E03C
E03C
E03E
E03E
E03E
000E
000E
000E
000E
000E
ENDCHAR
STARTCHAR 04A4
ENCODING 1188
SWIDTH 488 0
DWIDTH 19 0
BBX 17 24 2 0
BITMAP
E03F80
E03F80
E03F80
E03800
E03800
E03800
E03800
E03800
E03800
E03800
FFF800
FFF800
FFF800
E03800
E03800
E03800
E03800
E03800
E03800
E03800
E03800
E03800
E03800
E03800
ENDCHAR
STARTCHAR 04A5
ENCODING 1189
SWIDTH 488 0
DWIDTH 19 0
BBX 16 18 3 0
BITMAP
E07F
E07F
E07F
E070
E070
E070
E070
FFF0
FFF0
FFF0
E070
E070
E070
E070
E070
E070
E070
E070
ENDCHAR
STARTCHAR 04A6
ENCODING 1190
SWIDTH 488 0
DWIDTH 19 0
BBX 16 30 2 -6
BITMAP
FF80
FF80
FF80
E380
E380
E380
E380
E380
E380
E3F8
E3FC
E39E
E38E
E38F
E387
E387
E387
E387
E387
E387
E387
E387
E387
E387
0007
000E
000E
001E
007C
0078
ENDCHAR
STARTCHAR 04A7
ENCODING 1191
SWIDTH 488 0
DWIDTH 19 0
BBX 16 24 2 -6
BITMAP
FF80
FF80
FF80
E380
E380
E380
E380
E3F8
E3FC
E3FE
E38E
E387
E387
E387
E387
E387
E387
E387
0007
0007
000E
001E
007C
0078
ENDCHAR
STARTCHAR 04A8
ENCODING 1192
SWIDTH 488 0
DWIDTH 19 0
BBX 17 31 1 -6
BITMAP
007000
03FE00
0FFE00
1F0600
3E0000
3C0000
780000
703C00
707F00
F0FF00
E0E380
E1E380
E1C380
E1C380
E1C380
E1C380
F1C380
71C380
71C380
71C780
39C700
3DCF00
1FFE00
0FFC00
07F800
007000
007000
003800
003F00
001F00
000700
ENDCHAR
STARTCHAR 04A9
ENCODING 1193
SWIDTH 488 0
DWIDTH 19 0
BBX 16 23 2 -5
BITMAP
0FE0
1FE0
3C00
7800
F030
E0FC
E1FE
E1C7
E387
E387
E387
E387
E387
F387
738E
3D9E
3FFC
0FF8
00E0
00F0
007E
003E
000E
ENDCHAR
STARTCHAR 04AA
ENCODING 1194
SWIDTH 488 0
DWIDTH 19 0
BBX 16 32 2 -7
BITMAP
0060
07FE
0FFF
1F0E
3C02
7800
7800
7000
F000
E000
E000
E000
E000
E000
E000
E000
E000
F000
7000
7000
7800
3C00
1F9E
0FFF
07FE
00E0
00E0
00F0
0070
03F0
03F0
0080
ENDCHAR
STARTCHAR 04AB
ENCODING 1195
SWIDTH 488 0
DWIDTH 19 0
BBX 16 25 2 -7
BITMAP
07FE
1FFE
3F8E
7C00
7800
F000
F000
E000
E000
E000
E000
F000
F000
7800
7C00
3FDE
1FFE
07FF
00C0
01C0
01E0
00E0
07E0
07E0
0100
ENDCHAR
STARTCHAR 04AC
ENCODING 1196
SWIDTH 488 0
DWIDTH 19 0
BBX 16 30 2 -6
BITMAP
FFFF
FFFF
FFFF
0380
0380
0380
0380
0380
0380
0380
0380
0380
0380
0380
0380
0380
0380
0380
0380
0380
0380
03E0
03E0
03E0
00E0
00E0
00E0
00E0
00E0
00E0
ENDCHAR
STARTCHAR 04AD
ENCODING 1197
SWIDTH 488 0
DWIDTH 19 0
BBX 15 23 2 -5
BITMAP
FFFE
FFFE
FFFE
0380
0380
0380
0380
0380
0380
0380
0380
0380
0380
0380
0380
03E0
03E0
03E0
00E0
00E0
00E0
00E0
00E0
ENDCHAR
STARTCHAR 04AE
ENCODING 1198
SWIDTH 488 0
DWIDTH 19 0
BBX 18 24 1 0
BITMAP
E003C0
F00380
F00780
700700
780700
380F00
3C0E00
1C1E00
1E1C00
0E3800
0F3800
077000
03F000
03E000
01E000
01C000
01C000
01C000
01C000
01C000
01C000
01C000
01C000
01C000
ENDCHAR
STARTCHAR 04AF
ENCODING 1199
SWIDTH 488 0
DWIDTH 19 0
BBX 17 24 1 -6
BITMAP
F00380
700780
700780
780700
380700
380F00
3C0E00
1C0E00
1C1C00
1E1C00
0E3800
0F3800
073800
077000
03F000
03E000
01E000
01C000
01C000
01C000
01C000
01C000
01C000
01C000
ENDCHAR
STARTCHAR 04B0
ENCODING 1200
SWIDTH 488 0
DWIDTH 19 0
BBX 18 24 1 0
BITMAP
E003C0
F00380
700780
780700
380F00
3C0E00
1C0E00
1C1C00
0E1C00
0F3800
073800
07F000
03E000
01E000
3FFE00
3FFE00
3FFE00
01C000
01C000
01C000
01C000
01C000
01C000
01C000
ENDCHAR
STARTCHAR 04B1
ENCODING 1201
SWIDTH 488 0
DWIDTH 19 0
BBX 17 24 1 -6
BITMAP
F00380
700780
700780
780700
380700
380E00
3C0E00
1C0E00
1C1C00
1E1C00
0E3C00
0F3800
073800
077000
03F000
03E000
3FFE00
3FFE00
01C000
01C000
01C000
01C000
01C000
01C000
ENDCHAR
STARTCHAR 04B2
ENCODING 1202
SWIDTH 488 0
DWIDTH 19 0
BBX 17 30 1 -6
BITMAP
700780
780700
380F00
3C0E00
1C1C00
1E3C00
0E3800
0F7800
077000
03F000
03E000
03E000
03E000
07F000
077000
0E3800
0E3C00
1C1C00
1C1E00
380E00
380E00
780F80
700780
F00780
000380
000380
000380
000380
000380
000380
ENDCHAR
STARTCHAR 04B3
ENCODING 1203
SWIDTH 488 0
DWIDTH 19 0
BBX 17 23 1 -5
BITMAP
700700
380F00
3C1E00
1E1C00
0E3800
077800
07F000
03E000
01E000
03F000
07F000
0F7800
0E3C00
1C1C00
3C1E00
380F80
700780
F00780
000380
000380
000380
000380
000380
ENDCHAR
STARTCHAR 04B4
ENCODING 1204
SWIDTH 488 0
DWIDTH 19 0
BBX 17 30 1 -6
BITMAP
FFC700
FFC700
FFC700
1C0700
1C0700
1C0700
1C0700
1C0700
1C0700
1C0700
1C0700
1C0700
1C0700
1C0700
1C0700
1C0700
1C0700
1C0700
1C0700
1C0700
1C0700
1FFF80
1FFF80
1FFF80
000380
000380
000380
000380
000380
000380
ENDCHAR
STARTCHAR 04B5
ENCODING 1205
SWIDTH 488 0
DWIDTH 19 0
BBX 17 23 1 -5
BITMAP
FFCF00
FFCF00
FFCF00
1C0F00
1C0F00
1C0F00
1C0F00
1C0F00
1C0F00
1C0F00
1C0F00
1C0F00
1C0F00
1C0F00
1C0F00
1FFF80
1FFF80
1FFF80
000380
000380
000380
000380
000380
ENDCHAR
STARTCHAR 04B6
ENCODING 1206
SWIDTH 488 0
DWIDTH 19 0
BBX 16 30 2 -6
BITMAP
E00E
E00E
E00E
E00E
E00E
E00E
E00E
E00E
E00E
E00E
F00E
700E
7C3E
3FFE
1FFE
030E
000E
000E
000E
000E
000E
000F
000F
000F
0007
0007
0007
0007
0007
0007
ENDCHAR
STARTCHAR 04B7
ENCODING 1207
SWIDTH 488 0
DWIDTH 19 0
BBX 16 23 2 -5
BITMAP
E01E
E01E
E01E
E01E
E01E
E01E
E01E
F01E
781E
7FFE
3FFE
031E
001E
001E
001E
001F
001F
001F
0007
0007
0007
0007
0007
ENDCHAR
STARTCHAR 04B8
ENCODING 1208
SWIDTH 488 0
DWIDTH 19 0
BBX 15 24 2 0
BITMAP
E00E
E00E
E00E
E00E
E00E
E00E
E00E
E00E
E18E
F18E
F18E
718E
7D9E
3FFE
1FFE
018E
018E
018E
018E
018E
000E
000E
000E
000E
ENDCHAR
STARTCHAR 04B9
ENCODING 1209
SWIDTH 488 0
DWIDTH 19 0
BBX 15 18 2 0
BITMAP
E01E
E01E
E01E
E01E
E01E
E01E
E39E
F39E
7B9E
7FFE
3FFE
079E
039E
039E
039E
001E
001E
001E
ENDCHAR
STARTCHAR 04BA
ENCODING 1210
SWIDTH 488 0
DWIDTH 19 0
BBX 16 24 2 0
BITMAP
E000
E000
E000
E000
E000
E000
E000
E000
FFE0
FFF8
FFFC
E03E
E01E
E00E
E00E
E00F
E00F
E00F
E00F
E00F
E00F
E00F
E00F
E00F
ENDCHAR
STARTCHAR 04BB
ENCODING 1211
SWIDTH 488 0
DWIDTH 19 0
BBX 14 27 3 0
BITMAP
E000
E000
E000
E000
E000
E000
E000
E000
E000
FFE0
FFF0
FDF8
E078
E038
E03C
E03C
E01C
E01C
E01C
E01C
E01C
E01C
E01C
E01C
E01C
E01C
E01C
ENDCHAR
STARTCHAR 04BC
ENCODING 1212
SWIDTH 488 0
DWIDTH 19 0
BBX 17 26 1 -1
BITMAP
003800
00FC00
01FE00
01CF00
03C700
038380
038380
C78380
C70380
E70380
E70380
7FFF80
7FFF80
0FFF80
070000
070000
070000
078000
078000
038000
038000
03C000
01E180
00FF80
007F80
000800
ENDCHAR
STARTCHAR 04BD
ENCODING 1213
SWIDTH 488 0
DWIDTH 19 0
BBX 17 18 1 0
BITMAP
00FC00
01FE00
03CE00
E38700
C78700
E70700
E70780
FFFF80
7FFF80
0FFF80
070000
070000
070000
078000
03C000
03FE00
01FE00
00FE00
ENDCHAR
STARTCHAR 04BE
ENCODING 1214
SWIDTH 488 0
DWIDTH 19 0
BBX 17 31 1 -6
BITMAP
003800
00FC00
01FE00
01CF00
03C700
038380
038380
C78380
C70380
E70380
E70380
7FFF80
7FFF80
0FFF80
070000
070000
070000
078000
078000
038000
038000
03C000
01E180
00FF80
007F80
001C00
001C00
001C00
001C00
001C00
001C00
ENDCHAR
STARTCHAR 04BF
ENCODING 1215
SWIDTH 488 0
DWIDTH 19 0
BBX 17 23 1 -5
BITMAP
00FC00
01FE00
03CE00
E38700
C78700
E70700
E70780
FFFF80
7FFF80
0FFF80
070000
070000
070000
078000
03C000
03FE00
01FE00
00FE00
003800
003800
003800
003800
003800
ENDCHAR
STARTCHAR 04C0
ENCODING 1216
SWIDTH 488 0
DWIDTH 19 0
BBX 13 24 3 0
BITMAP
FFF8
FFF8
FFF8
0700
0700
0700
0700
0700
0700
0700
0700
0700
0700
0700
0700
0700
0700
0700
0700
0700
0700
FFF8
FFF8
FFF8
ENDCHAR
STARTCHAR 04C1
ENCODING 1217
SWIDTH 488 0
DWIDTH 19 0
BBX 19 31 0 0
BITMAP
060E00
070E00
07FC00
03F800
006000
000000
000000
70E1E0
70E1C0
38E1C0
38E380
1CE380
1CE700
0CE700
0EE600
06EE00
07EC00
03FC00
03FC00
07FC00
0EEE00
0EE700
1CE700
1CE780
3CE380
38E380
38E1C0
70E1C0
70E1E0
70E0E0
F0E0E0
ENDCHAR
STARTCHAR 04C2
ENCODING 1218
SWIDTH 488 0
DWIDTH 19 0
BBX 19 26 0 0
BITMAP
020C00
070E00
079C00
03FC00
01F000
000000
000000
000000
78E1C0
38E380
1CE380
1CE700
0EE700
0EEE00
07EC00
03FC00
03F800
07FC00
07EE00
0EEE00
1CE700
1CE380
38E380
78E1C0
70E1C0
F0E0E0
ENDCHAR
STARTCHAR 04C3
ENCODING 1219
SWIDTH 488 0
DWIDTH 19 0
BBX 16 30 2 -6
BITMAP
E00F
E01E
E03C
E03C
E078
E0F0
E1E0
E3C0
E780
EF00
FE00
FFE0
FFF8
E07C
E03E
E01E
E00F
E00F
E007
E007
E007
E007
E007
E00F
000E
000E
001E
007C
03F8
03F0
ENDCHAR
STARTCHAR 04C4
ENCODING 1220
SWIDTH 488 0
DWIDTH 19 0
BBX 15 24 3 -6
BITMAP
E01C
E038
E070
E0E0
E1C0
E780
EF00
FF00
FFE0
FFF0
E078
E03C
E01C
E01C
E01E
E01E
E01E
E01E
001C
001C
003C
0078
03F0
03E0
ENDCHAR
STARTCHAR 04C5
ENCODING 1221
SWIDTH 488 0
DWIDTH 19 0
BBX 18 31 1 -7
BITMAP
07FF00
07FF00
07FF00
070700
070700
070700
070700
070700
070700
070700
070700
070700
070700
0F0700
0E0700
0E0700
0E0700
1E0700
1C0700
3C0700
380700
F807C0
F007C0
E00780
000380
000380
000700
000F00
000E00
000C00
000400
ENDCHAR
STARTCHAR 04C6
ENCODING 1222
SWIDTH 488 0
DWIDTH 19 0
BBX 18 23 1 -6
BITMAP
07FF00
07FF00
07FF00
070700
070700
070700
070700
070700
070700
070700
0E0700
0E0700
0E0700
1E0700
3C0700
F807C0
F007C0
E007C0
000380
000380
000780
000700
000E00
ENDCHAR
STARTCHAR 04C7
ENCODING 1223
SWIDTH 488 0
DWIDTH 19 0
BBX 16 31 2 -7
BITMAP
E00F
E00F
E00F
E00F
E00F
E00F
E00F
E00F
E00F
E00F
FFFF
FFFF
FFFF
E00F
E00F
E00F
E00F
E00F
E00F
E00F
E00F
E00F
E00F
E00F
000F
000F
000F
001E
007E
00FC
0020
ENDCHAR
STARTCHAR 04C8
ENCODING 1224
SWIDTH 488 0
DWIDTH 19 0
BBX 14 25 3 -7
BITMAP
E03C
E03C
E03C
E03C
E03C
E03C
E03C
FFFC
FFFC
FFFC
E03C
E03C
E03C
E03C
E03C
E03C
E03C
E03C
003C
003C
003C
0078
01F8
03F0
0080
ENDCHAR
STARTCHAR 04C9
ENCODING 1225
SWIDTH 488 0
DWIDTH 19 0
BBX 17 31 2 -7
BITMAP
E00E00
E00E00
E00E00
E00E00
E00E00
E00E00
E00E00
E00E00
E00E00
E00E00
FFFE00
FFFE00
FFFE00
E00E00
E00E00
E00E00
E00E00
E00E00
E00E00
E00E00
E00E00
E00F80
E00F80
E00F00
000700
000700
000E00
001E00
001C00
001800
000800
ENDCHAR
STARTCHAR 04CA
ENCODING 1226
SWIDTH 488 0
DWIDTH 19 0
BBX 16 23 3 -6
BITMAP
E01C
E01C
E01C
E01C
E01C
E01C
E01C
FFFC
FFFC
FFFC
E01C
E01C
E01C
E01C
E01C
E01F
E01F
E01F
000E
000E
001E
001C
0038
ENDCHAR
STARTCHAR 04CB
ENCODING 1227
SWIDTH 488 0
DWIDTH 19 0
BBX 15 30 2 -6
BITMAP
E00E
E00E
E00E
E00E
E00E
E00E
E00E
E00E
E00E
F00E
F00E
700E
7C1E
3FFE
1FFE
018E
000E
000E
000E
000E
000E
001E
001E
001E
001C
001C
001C
001C
001C
001C
ENDCHAR
STARTCHAR 04CC
ENCODING 1228
SWIDTH 488 0
DWIDTH 19 0
BBX 15 23 2 -5
BITMAP
E01E
E01E
E01E
E01E
E01E
E01E
E01E
F01E
781E
7FFE
3FFE
039E
001E
001E
001E
003E
003E
003E
0038
0038
0038
0038
0038
ENDCHAR
STARTCHAR 04CD
ENCODING 1229
SWIDTH 488 0
DWIDTH 19 0
BBX 18 31 1 -7
BITMAP
381E00
381E00
3C1E00
3C1E00
7C3E00
7E3600
763600
767600
766600
776700
736700
73E700
73C700
71C700
71C700
700700
700700
600700
E00700
E00700
E00700
E007C0
E007C0
E00780
000380
000380
000700
000F00
000E00
000C00
000400
ENDCHAR
STARTCHAR 04CE
ENCODING 1230
SWIDTH 488 0
DWIDTH 19 0
BBX 18 23 1 -6
BITMAP
780E00
781E00
781E00
7C1E00
7C3E00
7C3700
6E3700
6E7700
667700
E76700
E7E700
E3E700
E3C700
E3C700
E00700
E007C0
E007C0
E007C0
000380
000380
000780
000700
000E00
ENDCHAR
STARTCHAR 04CF
ENCODING 1231
SWIDTH 488 0
DWIDTH 19 0
BBX 13 24 3 0
BITMAP
FFF8
FFF8
FFF8
0700
0700
0700
0700
0700
0700
0700
0700
0700
0700
0700
0700
0700
0700
0700
0700
0700
0700
FFF8
FFF8
FFF8
ENDCHAR
STARTCHAR 04D0
ENCODING 1232
SWIDTH 488 0
DWIDTH 19 0
BBX 19 31 0 0
BITMAP
060E00
070E00
07FC00
03F800
006000
000000
000000
00F000
01F000
01F800
03B800
03B800
039C00
071C00
071C00
070E00
0E0E00
0E0E00
0E0700
0C0700
1C0700
1C0780
1FFF80
3FFF80
3FFF80
3803C0
3801C0
7001C0
7001C0
7001E0
F000E0
ENDCHAR
STARTCHAR 04D1
ENCODING 1233
SWIDTH 488 0
DWIDTH 19 0
BBX 15 26 2 0
BITMAP
0830
1C38
1E70
0FF0
07C0
0000
0000
0000
3FF0
3FF8
307C
001C
001E
000E
000E
0FFE
3FFE
7FFE
780E
F00E
F00E
F00E
F00E
7C1E
3FFE
1FFE
ENDCHAR
STARTCHAR 04D2
ENCODING 1234
SWIDTH 488 0
DWIDTH 19 0
BBX 19 31 0 0
BITMAP
070C00
0F1E00
0F1E00
071E00
000000
000000
000000
00F000
01F000
01F800
03B800
03B800
039C00
071C00
071C00
070E00
0E0E00
0E0E00
0E0700
0C0700
1C0700
1C0780
1FFF80
3FFF80
3FFF80
3803C0
3801C0
7001C0
7001C0
7001E0
F000E0
ENDCHAR
STARTCHAR 04D3
ENCODING 1235
SWIDTH 488 0
DWIDTH 19 0
BBX 15 25 2 0
BITMAP
1C78
3C78
1C78
0830
0000
0000
0000
3FF0
3FF8
307C
001C
001E
000E
000E
0FFE
3FFE
7FFE
780E
F00E
F00E
F00E
F00E
7C1E
3FFE
1FFE
ENDCHAR
STARTCHAR 04D4
ENCODING 1236
SWIDTH 488 0
DWIDTH 19 0
BBX 18 24 1 0
BITMAP
01FF80
01FF80
01FF80
03F000
037000
077000
077000
077000
0E7000
0E7000
0E7F00
0C7F00
1C7F00
1C7000
1C7000
3FF000
3FF000
3FF000
707000
707000
707000
707FC0
F07FC0
E07FC0
ENDCHAR
STARTCHAR 04D5
ENCODING 1237
SWIDTH 488 0
DWIDTH 19 0
BBX 18 18 1 0
BITMAP
7F3E00
3FBF00
23F780
01E380
01E380
01E180
01C180
1FFFC0
3FFFC0
7FFFC0
71C000
E1C000
E0E000
E0E000
F0F000
7BFF80
7FFF80
3F9F80
ENDCHAR
STARTCHAR 04D6
ENCODING 1238
SWIDTH 488 0
DWIDTH 19 0
BBX 14 31 4 0
BITMAP
7070
78E0
3FE0
1FC0
0600
0000
0000
FFF8
FFF8
FFF8
E000
E000
E000
E000
E000
E000
E000
FFF0
FFF0
FFF0
E000
E000
E000
E000
E000
E000
E000
E000
FFFC
FFFC
FFFC
ENDCHAR
STARTCHAR 04D7
ENCODING 1239
SWIDTH 488 0
DWIDTH 19 0
BBX 16 26 2 0
BITMAP
0830
1C38
1E70
0FF0
07C0
0000
0000
0000
0FF0
1FF8
3E7C
781E
F00E
E00E
E00F
FFFF
FFFF
FFFF
E000
E000
E000
F000
7800
3FBC
1FFC
0FFC
ENDCHAR
STARTCHAR 04D8
ENCODING 1240
SWIDTH 488 0
DWIDTH 19 0
BBX 17 26 1 -1
BITMAP
038000
3FF000
3FFC00
387E00
001E00
000F00
000700
000780
000380
000380
000380
000380
FFFF80
FFFF80
FFFF80
E00380
E00380
E00380
F00780
700700
700F00
781E00
3E3E00
1FFC00
0FF000
008000
ENDCHAR
STARTCHAR 04D9
ENCODING 1241
SWIDTH 488 0
DWIDTH 19 0
BBX 16 18 2 0
BITMAP
7FE0
7FF8
79FC
003E
001E
000E
000F
000F
FFFF
FFFF
FFFF
E00F
E00E
F01E
701C
7CFC
3FF8
1FE0
ENDCHAR
STARTCHAR 04DA
ENCODING 1242
SWIDTH 488 0
DWIDTH 19 0
BBX 17 32 1 -1
BITMAP
0C3000
1E7800
1E7800
1C3800
000000
000000
038000
3FF000
3FFC00
387E00
001E00
000F00
000700
000780
000380
000380
000380
000380
FFFF80
FFFF80
FFFF80
E00380
E00380
E00380
F00780
700700
700F00
781E00
3E3E00
1FFC00
0FF000
008000
ENDCHAR
STARTCHAR 04DB
ENCODING 1243
SWIDTH 488 0
DWIDTH 19 0
BBX 16 25 2 0
BITMAP
3C70
3C78
3C78
0820
0000
0000
0000
7FE0
7FF8
79FC
003E
001E
000E
000F
000F
FFFF
FFFF
FFFF
E00F
E00E
F01E
701C
7CFC
3FF8
1FE0
ENDCHAR
STARTCHAR 04DC
ENCODING 1244
SWIDTH 488 0
DWIDTH 19 0
BBX 19 31 0 0
BITMAP
070C00
0F1E00
0F1E00
071E00
000000
000000
000000
70E1E0
70E1C0
38E1C0
38E380
1CE380
1CE700
0CE700
0EE600
06EE00
07EC00
03FC00
03FC00
07FC00
0EEE00
0EE700
1CE700
1CE780
3CE380
38E380
38E1C0
70E1C0
70E1E0
70E0E0
F0E0E0
ENDCHAR
STARTCHAR 04DD
ENCODING 1245
SWIDTH 488 0
DWIDTH 19 0
BBX 19 25 0 0
BITMAP
071E00
0F1E00
071E00
020C00
000000
000000
000000
78E1C0
38E380
1CE380
1CE700
0EE700
0EEE00
07EC00
03FC00
03F800
07FC00
07EE00
0EEE00
1CE700
1CE380
38E380
78E1C0
70E1C0
F0E0E0
ENDCHAR
STARTCHAR 04DE
ENCODING 1246
SWIDTH 488 0
DWIDTH 19 0
BBX 16 31 2 0
BITMAP
1830
3C78
3C78
1C70
0000
0000
0100
7FF0
7FF8
787C
001E
000E
000E
000E
001E
003C
00F8
1FF0
1FF0
1FFC
003E
000E
0007
0007
0007
0007
000F
800E
F07E
FFFC
7FF0
ENDCHAR
STARTCHAR 04DF
ENCODING 1247
SWIDTH 488 0
DWIDTH 19 0
BBX 14 25 3 0
BITMAP
78E0
78F0
78F0
1040
0000
0000
0000
FFE0
7FF8
70F8
003C
003C
003C
0038
1FF0
1FE0
1FF8
003C
001C
001C
001C
003C
F8FC
FFF8
FFE0
ENDCHAR
STARTCHAR 04E0
ENCODING 1248
SWIDTH 488 0
DWIDTH 19 0
BBX 17 25 1 -1
BITMAP
7FFF00
7FFF00
7FFF00
001E00
001C00
003C00
007800
00F000
01E000
03C000
07E000
07FC00
01FE00
000F00
000780
000380
000380
000380
000380
000780
400F00
F87F00
FFFE00
3FF800
030000
ENDCHAR
STARTCHAR 04E1
ENCODING 1249
SWIDTH 488 0
DWIDTH 19 0
BBX 15 24 2 -6
BITMAP
FFFC
FFFC
FFFC
0078
0070
00E0
01E0
03C0
0380
0700
0F80
0FF0
07F8
003C
001C
001E
001E
001E
001E
001C
003C
F1F8
FFF0
FFE0
ENDCHAR
STARTCHAR 04E2
ENCODING 1250
SWIDTH 488 0
DWIDTH 19 0
BBX 15 30 2 0
BITMAP
1FF8
1FF8
0000
0000
0000
0000
E00E
E01E
E01E
E03E
E03E
E07E
E0FE
E0EE
E1CE
E1CE
E38E
E38E
E38E
E70E
E70E
EE0E
EE0E
FC0E
FC0E
F80E
F80E
F00E
F00E
F00E
ENDCHAR
STARTCHAR 04E3
ENCODING 1251
SWIDTH 488 0
DWIDTH 19 0
BBX 15 25 2 0
BITMAP
1FF8
1FF8
1FF8
0000
0000
0000
0000
F00E
F01E
F03E
F07E
F07E
F0EE
F1CE
F1CE
F38E
F30E
F70E
FE0E
FE0E
FC0E
F80E
F80E
F00E
F00E
ENDCHAR
STARTCHAR 04E4
ENCODING 1252
SWIDTH 488 0
DWIDTH 19 0
BBX 15 31 2 0
BITMAP
1C30
3C78
3C78
1C78
0000
0000
0000
E00E
E01E
E01E
E03E
E03E
E07E
E0FE
E0EE
E1CE
E1CE
E38E
E38E
E38E
E70E
E70E
EE0E
EE0E
FC0E
FC0E
F80E
F80E
F00E
F00E
F00E
ENDCHAR
STARTCHAR 04E5
ENCODING 1253
SWIDTH 488 0
DWIDTH 19 0
BBX 15 25 2 0
BITMAP
1C78
3C78
1C78
0830
0000
0000
0000
F00E
F01E
F03E
F07E
F07E
F0EE
F1CE
F1CE
F38E
F30E
F70E
FE0E
FE0E
FC0E
F80E
F80E
F00E
F00E
ENDCHAR
STARTCHAR 04E6
ENCODING 1254
SWIDTH 488 0
DWIDTH 19 0
BBX 17 32 1 -1
BITMAP
0E1800
1E3C00
1E3C00
0E3C00
000000
000000
00C000
07F800
1FFC00
3E3E00
3C0F00
780700
700700
700780
F00380
F00380
E00380
E00380
E00380
E00380
E00380
E00380
F00380
700380
700780
700700
780700
3C0F00
1E3E00
1FFC00
07F800
008000
ENDCHAR
STARTCHAR 04E7
ENCODING 1255
SWIDTH 488 0
DWIDTH 19 0
BBX 16 25 2 0
BITMAP
1C78
3C78
1C78
0830
0000
0000
0000
0FF0
3FF8
3EFC
781E
F01E
E00E
E00F
E00F
E007
E007
E00F
E00F
E00E
F01E
781E
3EFC
3FF8
0FF0
ENDCHAR
STARTCHAR 04E8
ENCODING 1256
SWIDTH 488 0
DWIDTH 19 0
BBX 17 26 1 -1
BITMAP
00C000
07F800
1FFC00
3E3E00
3C0F00
780700
700700
700780
F00380
F00380
E00380
E00380
FFFF80
FFFF80
E00380
E00380
F00380
700380
700780
700700
780700
3C0F00
1E3E00
1FFC00
07F800
008000
ENDCHAR
STARTCHAR 04E9
ENCODING 1257
SWIDTH 488 0
DWIDTH 19 0
BBX 16 18 2 0
BITMAP
0FF0
3FF8
3EFC
781E
F00E
E00E
E00F
E007
FFFF
FFFF
E007
E00F
E00E
F00E
781E
3EFC
3FF8
0FF0
ENDCHAR
STARTCHAR 04EA
ENCODING 1258
SWIDTH 488 0
DWIDTH 19 0
BBX 17 32 1 -1
BITMAP
0E1800
1E3C00
1E3C00
0E3C00
000000
000000
00C000
07F800
1FFC00
3E3E00
3C0F00
780700
700700
700780
F00380
F00380
E00380
E00380
FFFF80
FFFF80
E00380
E00380
F00380
700380
700780
700700
780700
3C0F00
1E3E00
1FFC00
07F800
008000
ENDCHAR
STARTCHAR 04EB
ENCODING 1259
SWIDTH 488 0
DWIDTH 19 0
BBX 16 25 2 0
BITMAP
1C78
3C78
1C78
0830
0000
0000
0000
0FF0
3FF8
3EFC
781E
F00E
E00E
E00F
E007
FFFF
FFFF
E007
E00F
E00E
F00E
781E
3EFC
3FF8
0FF0
ENDCHAR
STARTCHAR 04EC
ENCODING 1260
SWIDTH 488 0
DWIDTH 19 0
BBX 16 32 2 -1
BITMAP
1860
3CF0
3CF0
3870
0000
0000
0F00
7FE0
FFF0
E0F8
003C
001E
000E
000F
0007
0007
0007
0FFF
0FFF
0FFF
0007
0007
0007
000F
000E
000E
001E
003C
F0F8
FFF0
7FE0
0600
ENDCHAR
STARTCHAR 04ED
ENCODING 1261
SWIDTH 488 0
DWIDTH 19 0
BBX 16 25 2 0
BITMAP
3870
3CF0
3C70
1020
0000
0000
0000
7FE0
7FF8
61FC
003C
001E
000E
000F
0FFF
0FFF
0FFF
0007
000F
000E
001E
003C
71FC
FFF8
FFE0
ENDCHAR
STARTCHAR 04EE
ENCODING 1262
SWIDTH 488 0
DWIDTH 19 0
BBX 18 30 1 0
BITMAP
0FFC00
0FFC00
000000
000000
000000
000000
E001C0
E003C0
F00380
700380
780780
380700
3C0700
1C0F00
1E0E00
0E0E00
0F1C00
071C00
079C00
03B800
01F800
01F000
00F000
00E000
00E000
01C000
03C000
6F8000
7F0000
FE0000
ENDCHAR
STARTCHAR 04EF
ENCODING 1263
SWIDTH 488 0
DWIDTH 19 0
BBX 16 32 2 -7
BITMAP
1FF8
1FF8
1FF8
0000
0000
0000
0000
E00F
F00F
700E
700E
781E
381C
381C
3C1C
1C3C
1C38
1E38
0E78
0F70
0770
07E0
03E0
03E0
01C0
01C0
0380
0380
0F00
FE00
FC00
4000
ENDCHAR
STARTCHAR 04F0
ENCODING 1264
SWIDTH 488 0
DWIDTH 19 0
BBX 18 31 1 0
BITMAP
061800
0F3C00
0F3C00
0E1C00
000000
000000
000000
E001C0
E003C0
F00380
700380
780780
380700
3C0700
1C0F00
1E0E00
0E0E00
0F1C00
071C00
079C00
03B800
01F800
01F000
00F000
00E000
00E000
01C000
03C000
6F8000
7F0000
FE0000
ENDCHAR
STARTCHAR 04F1
ENCODING 1265
SWIDTH 488 0
DWIDTH 19 0
BBX 16 32 2 -7
BITMAP
1E38
1E3C
1E3C
0410
0000
0000
0000
E00F
F00F
700E
700E
781E
381C
381C
3C1C
1C3C
1C38
1E38
0E78
0F70
0770
07E0
03E0
03E0
01C0
01C0
0380
0380
0F00
FE00
FC00
4000
ENDCHAR
STARTCHAR 04F2
ENCODING 1266
SWIDTH 488 0
DWIDTH 19 0
BBX 18 32 1 0
BITMAP
008600
01C700
03CE00
039C00
071800
063800
000000
000000
E001C0
E003C0
F00380
700380
780780
380700
3C0700
1C0F00
1E0E00
0E0E00
0F1C00
071C00
079C00
03B800
01F800
01F000
00F000
00E000
00E000
01C000
03C000
6F8000
7F0000
FE0000
ENDCHAR
STARTCHAR 04F3
ENCODING 1267
SWIDTH 488 0
DWIDTH 19 0
BBX 16 34 2 -7
BITMAP
0104
018E
038E
071C
0E38
0E70
0400
0000
0000
E00F
F00F
700E
700E
781E
381C
381C
3C1C
1C3C
1C38
1E38
0E78
0F70
0770
07E0
03E0
03E0
01C0
01C0
0380
0380
0F00
FE00
FC00
4000
ENDCHAR
STARTCHAR 04F4
ENCODING 1268
SWIDTH 488 0
DWIDTH 19 0
BBX 15 31 2 0
BITMAP
1C30
3C78
3C78
1C78
0000
0000
0000
E00E
E00E
E00E
E00E
E00E
E00E
E00E
E00E
E00E
F00E
F00E
700E
7C1E
3FFE
1FFE
018E
000E
000E
000E
000E
000E
000E
000E
000E
ENDCHAR
STARTCHAR 04F5
ENCODING 1269
SWIDTH 488 0
DWIDTH 19 0
BBX 15 25 2 0
BITMAP
1C78
3C78
1C78
0830
0000
0000
0000
E01E
E01E
E01E
E01E
E01E
E01E
E01E
F01E
781E
7FFE
3FFE
039E
001E
001E
001E
001E
001E
001E
ENDCHAR
STARTCHAR 04F6
ENCODING 1270
SWIDTH 488 0
DWIDTH 19 0
BBX 16 30 2 -6
BITMAP
0FFF
0FFF
0FFF
0E00
0E00
0E00
0E00
0E00
0E00
0E00
0E00
0E00
0E00
0E00
0E00
0E00
0E00
0E00
0E00
0E00
0E00
FFF0
FFF0
FFF0
0070
0070
0070
0070
0070
0070
ENDCHAR
STARTCHAR 04F7
ENCODING 1271
SWIDTH 488 0
DWIDTH 19 0
BBX 13 23 4 -5
BITMAP
FFF8
FFF8
FFF8
E000
E000
E000
E000
E000
E000
E000
E000
E000
E000
E000
E000
F800
F800
F800
3800
3800
3800
3800
3800
ENDCHAR
STARTCHAR 04F8
ENCODING 1272
SWIDTH 488 0
DWIDTH 19 0
BBX 17 31 1 0
BITMAP
0E1800
1E3C00
1E3C00
0E3C00
000000
000000
000000
E00380
E00380
E00380
E00380
E00380
E00380
E00380
E00380
E00380
FF8380
FFC380
E3E380
E0E380
E0E380
E0F380
E07380
E07380
E0F380
E0F380
E0E380
E0E380
F7E380
FFC380
FF0380
ENDCHAR
STARTCHAR 04F9
ENCODING 1273
SWIDTH 488 0
DWIDTH 19 0
BBX 16 25 2 0
BITMAP
1C78
3C78
1C78
0830
0000
0000
0000
E007
E007
E007
E007
E007
E007
E407
FF87
FFC7
E3C7
E1E7
E0E7
E0E7
E0E7
E1E7
E3C7
FFC7
FF87
ENDCHAR
STARTCHAR 1E80
ENCODING 7808
SWIDTH 488 0
DWIDTH 19 0
BBX 17 32 1 0
BITMAP
010000
038000
03C000
01E000
00E000
006000
000000
000000
E00380
E00380
E00380
E00380
E00380
E00380
700380
700380
700380
71C380
71E380
73E380
73E380
737300
737300
773300
763B00
763B00
7E1B00
7C1B00
7C1F00
3C0F00
380F00
380E00
ENDCHAR
STARTCHAR 1E81
ENCODING 7809
SWIDTH 488 0
DWIDTH 19 0
BBX 18 27 1 0
BITMAP
010000
038000
038000
01C000
00E000
007000
002000
000000
000000
E001C0
E001C0
E00180
E00380
E1C380
E1C380
E1E380
71E380
73E380
737300
737300
773700
763F00
3E1F00
3C1E00
3C1E00
3C0E00
380E00
ENDCHAR
STARTCHAR 1E82
ENCODING 7810
SWIDTH 488 0
DWIDTH 19 0
BBX 17 32 1 0
BITMAP
006000
007000
00E000
01C000
038000
030000
000000
000000
E00380
E00380
E00380
E00380
E00380
E00380
700380
700380
700380
71C380
71E380
73E380
73E380
737300
737300
773300
763B00
763B00
7E1B00
7C1B00
7C1F00
3C0F00
380F00
380E00
ENDCHAR
STARTCHAR 1E83
ENCODING 7811
SWIDTH 488 0
DWIDTH 19 0
BBX 18 27 1 0
BITMAP
002000
007000
00F000
01E000
03C000
038000
010000
000000
000000
E001C0
E001C0
E00180
E00380
E1C380
E1C380
E1E380
71E380
73E380
737300
737300
773700
763F00
3E1F00
3C1E00
3C1E00
3C0E00
380E00
ENDCHAR
STARTCHAR 1E84
ENCODING 7812
SWIDTH 488 0
DWIDTH 19 0
BBX 17 31 1 0
BITMAP
0E1800
1E3C00
1E3C00
0E3C00
000000
000000
000000
E00380
E00380
E00380
E00380
E00380
E00380
700380
700380
700380
71C380
71E380
73E380
73E380
737300
737300
773300
763B00
763B00
7E1B00
7C1B00
7C1F00
3C0F00
380F00
380E00
ENDCHAR
STARTCHAR 1E85
ENCODING 7813
SWIDTH 488 0
DWIDTH 19 0
BBX 18 25 1 0
BITMAP
0E3C00
1E3C00
0E3C00
041800
000000
000000
000000
E001C0
E001C0
E00180
E00380
E1C380
E1C380
E1E380
71E380
73E380
737300
737300
773700
763F00
3E1F00
3C1E00
3C1E00
3C0E00
380E00
ENDCHAR
STARTCHAR 1EF2
ENCODING 7922
SWIDTH 488 0
DWIDTH 19 0
BBX 18 32 1 0
BITMAP
010000
038000
03C000
01E000
00E000
006000
000000
000000
E003C0
F00380
F00780
700700
780700
380F00
3C0E00
1C1E00
1E1C00
0E3800
0F3800
077000
03F000
03E000
01E000
01C000
01C000
01C000
01C000
01C000
01C000
01C000
01C000
01C000
ENDCHAR
STARTCHAR 1EF3
ENCODING 7923
SWIDTH 488 0
DWIDTH 19 0
BBX 16 34 2 -7
BITMAP
0200
0700
0700
0380
01C0
00E0
0040
0000
0000
E00F
F00F
700E
700E
781E
381C
381C
3C1C
1C3C
1C38
1E38
0E78
0F70
0770
07E0
03E0
03E0
01C0
01C0
0380
0380
0F00
FE00
FC00
4000
ENDCHAR
STARTCHAR 1F00
ENCODING 7936
SWIDTH 488 0
DWIDTH 19 0
BBX 16 27 2 0
BITMAP
01C0
03C0
03C0
01C0
0180
0300
0200
0000
0000
0FFC
1FFE
3F3E
781E
701E
F01E
E01E
E01E
E01E
E01E
E01E
E01E
F01E
701E
781E
3EFF
1FFF
0FE3
ENDCHAR
STARTCHAR 1F01
ENCODING 7937
SWIDTH 488 0
DWIDTH 19 0
BBX 16 27 2 0
BITMAP
0380
03C0
03C0
0300
0180
01C0
0040
0000
0000
0FFC
1FFE
3F3E
781E
701E
F01E
E01E
E01E
E01E
E01E
E01E
E01E
F01E
701E
781E
3EFF
1FFF
0FE3
ENDCHAR
STARTCHAR 1F02
ENCODING 7938
SWIDTH 488 0
DWIDTH 19 0
BBX 16 27 2 0
BITMAP
1C40
1EE0
1EF0
0C70
1C38
381C
3018
0000
0000
0FFC
1FFE
3F3E
781E
701E
F01E
E01E
E01E
E01E
E01E
E01E
E01E
F01E
701E
781E
3EFF
1FFF
0FE3
ENDCHAR
STARTCHAR 1F03
ENCODING 7939
SWIDTH 488 0
DWIDTH 19 0
BBX 16 27 2 0
BITMAP
1C40
3DE0
3CE0
3870
1C38
0E38
0410
0000
0000
0FFC
1FFE
3F3E
781E
701E
F01E
E01E
E01E
E01E
E01E
E01E
E01E
F01E
701E
781E
3EFF
1FFF
0FE3
ENDCHAR
STARTCHAR 1F04
ENCODING 7940
SWIDTH 488 0
DWIDTH 19 0
BBX 16 27 2 0
BITMAP
0708
0F1E
071C
0338
0670
0C70
0820
0000
0000
0FFC
1FFE
3F3E
781E
701E
F01E
E01E
E01E
E01E
E01E
E01E
E01E
F01E
701E
781E
3EFF
1FFF
0FE3
ENDCHAR
STARTCHAR 1F05
ENCODING 7941
SWIDTH 488 0
DWIDTH 19 0
BBX 16 27 2 0
BITMAP
1C08
3C1C
3C3C
1838
1C70
0EE0
0640
0000
0000
0FFC
1FFE
3F3E
781E
701E
F01E
E01E
E01E
E01E
E01E
E01E
E01E
F01E
701E
781E
3EFF
1FFF
0FE3
ENDCHAR
STARTCHAR 1F06
ENCODING 7942
SWIDTH 488 0
DWIDTH 19 0
BBX 16 31 2 0
BITMAP
00C0
07F0
0FF0
0C18
0C18
01C0
01C0
01C0
01C0
0380
0300
0000
0000
0FFC
1FFE
3F3E
781E
701E
F01E
E01E
E01E
E01E
E01E
E01E
E01E
F01E
701E
781E
3EFF
1FFF
0FE3
ENDCHAR
STARTCHAR 1F07
ENCODING 7943
SWIDTH 488 0
DWIDTH 19 0
BBX 16 31 2 0
BITMAP
0100
0FE0
0FF0
1C30
1830
0380
03C0
0380
0380
01C0
0040
0000
0000
0FFC
1FFE
3F3E
781E
701E
F01E
E01E
E01E
E01E
E01E
E01E
E01E
F01E
701E
781E
3EFF
1FFF
0FE3
ENDCHAR
STARTCHAR 1F08
ENCODING 7944
SWIDTH 488 0
DWIDTH 19 0
BBX 19 25 0 0
BITMAP
300000
78F000
79F000
39F800
3BB800
73B800
E39C00
071C00
071C00
070E00
0E0E00
0E0E00
0E0700
0C0700
1C0700
1C0780
1FFF80
3FFF80
3FFF80
3803C0
3801C0
7001C0
7001C0
7001E0
F000E0
ENDCHAR
STARTCHAR 1F09
ENCODING 7945
SWIDTH 488 0
DWIDTH 19 0
BBX 19 25 0 0
BITMAP
600000
F0F000
F1F000
E1F800
E3B800
73B800
339C00
071C00
071C00
070E00
0E0E00
0E0E00
0E0700
0C0700
1C0700
1C0780
1FFF80
3FFF80
3FFF80
3803C0
3801C0
7001C0
7001C0
7001E0
F000E0
ENDCHAR
STARTCHAR 1F0A
ENCODING 7946
SWIDTH 488 0
DWIDTH 19 0
BBX 26 25 -7 0
BITMAP
20000000
7381E000
7B83E000
71C3F000
30E77000
60E77000
C0673800
000E3800
000E3800
000E1C00
001C1C00
001C1C00
001C0E00
00180E00
00380E00
00380F00
003FFF00
007FFF00
007FFF00
00700780
00700380
00E00380
00E00380
00E003C0
01E001C0
ENDCHAR
STARTCHAR 1F0B
ENCODING 7947
SWIDTH 488 0
DWIDTH 19 0
BBX 26 25 -7 0
BITMAP
20000000
7381E000
F383E000
71C3F000
70E77000
30E77000
18673800
000E3800
000E3800
000E1C00
001C1C00
001C1C00
001C0E00
00180E00
00380E00
00380F00
003FFF00
007FFF00
007FFF00
00700780
00700380
00E00380
00E00380
00E003C0
01E001C0
ENDCHAR
STARTCHAR 1F0C
ENCODING 7948
SWIDTH 488 0
DWIDTH 19 0
BBX 24 25 -5 0
BITMAP
208000
70C780
79EF80
73CFC0
739DC0
671DC0
C61CE0
0038E0
0038E0
003870
007070
007070
007038
006038
00E038
00E03C
00FFFC
01FFFC
01FFFC
01C01E
01C00E
03800E
03800E
03800F
078007
ENDCHAR
STARTCHAR 1F0D
ENCODING 7949
SWIDTH 488 0
DWIDTH 19 0
BBX 25 25 -6 0
BITMAP
60400000
F063C000
F0E7C000
E1E7E000
61CEE000
738EE000
3B0E7000
001C7000
001C7000
001C3800
00383800
00383800
00381C00
00301C00
00701C00
00701E00
007FFE00
00FFFE00
00FFFE00
00E00F00
00E00700
01C00700
01C00700
01C00780
03C00380
ENDCHAR
STARTCHAR 1F0E
ENCODING 7950
SWIDTH 488 0
DWIDTH 19 0
BBX 22 27 -3 0
BITMAP
3E0000
7F0000
E38000
C19E00
003E00
1C3F00
1C7700
1C7700
1C7380
38E380
20E380
00E1C0
01C1C0
01C1C0
01C0E0
0180E0
0380E0
0380F0
03FFF0
07FFF0
07FFF0
070078
070038
0E0038
0E0038
0E003C
1E001C
ENDCHAR
STARTCHAR 1F0F
ENCODING 7951
SWIDTH 488 0
DWIDTH 19 0
BBX 23 27 -4 0
BITMAP
1E0000
7F8000
738000
E1CF00
001F00
1E1F80
1E3B80
1C3B80
0E39C0
0771C0
0271C0
0070E0
00E0E0
00E0E0
00E070
00C070
01C070
01C078
01FFF8
03FFF8
03FFF8
03803C
03801C
07001C
07001C
07001E
0F000E
ENDCHAR
STARTCHAR 1F10
ENCODING 7952
SWIDTH 488 0
DWIDTH 19 0
BBX 15 27 3 0
BITMAP
01C0
03C0
03C0
01C0
0180
0300
0200
0000
0080
1FFC
3FFC
7C18
F000
F000
F000
7000
7FE0
1FE0
7FE0
F000
E000
E000
E000
F000
FE3E
7FFE
1FFC
ENDCHAR
STARTCHAR 1F11
ENCODING 7953
SWIDTH 488 0
DWIDTH 19 0
BBX 15 27 3 0
BITMAP
0700
0780
0780
0600
0300
0380
0080
0000
0080
1FFC
3FFC
7C18
F000
F000
F000
7000
7FE0
1FE0
7FE0
F000
E000
E000
E000
F000
FE3E
7FFE
1FFC
ENDCHAR
STARTCHAR 1F12
ENCODING 7954
SWIDTH 488 0
DWIDTH 19 0
BBX 15 27 3 0
BITMAP
1C60
1EE0
1E70
0E78
0C38
181C
1008
0000
0080
1FFC
3FFC
7C18
F000
F000
F000
7000
7FE0
1FE0
7FE0
F000
E000
E000
E000
F000
FE3E
7FFE
1FFC
ENDCHAR
STARTCHAR 1F13
ENCODING 7955
SWIDTH 488 0
DWIDTH 19 0
BBX 15 27 3 0
BITMAP
3880
7BC0
79C0
70E0
3870
1C70
0820
0000
0080
1FFC
3FFC
7C18
F000
F000
F000
7000
7FE0
1FE0
7FE0
F000
E000
E000
E000
F000
FE3E
7FFE
1FFC
ENDCHAR
STARTCHAR 1F14
ENCODING 7956
SWIDTH 488 0
DWIDTH 19 0
BBX 15 27 3 0
BITMAP
3860
3C70
3CF0
1CE0
19C0
3380
2100
0000
0080
1FFC
3FFC
7C18
F000
F000
F000
7000
7FE0
1FE0
7FE0
F000
E000
E000
E000
F000
FE3E
7FFE
1FFC
ENDCHAR
STARTCHAR 1F15
ENCODING 7957
SWIDTH 488 0
DWIDTH 19 0
BBX 15 27 3 0
BITMAP
3810
7838
7878
3070
38E0
1DC0
0C80
0000
0080
1FFC
3FFC
7C18
F000
F000
F000
7000
7FE0
1FE0
7FE0
F000
E000
E000
E000
F000
FE3E
7FFE
1FFC
ENDCHAR
STARTCHAR 1F18
ENCODING 7960
SWIDTH 488 0
DWIDTH 19 0
BBX 21 25 -3 0
BITMAP
300000
79FFF0
79FFF0
79FFF0
31C000
61C000
C1C000
01C000
01C000
01C000
01C000
01FFE0
01FFE0
01FFE0
01C000
01C000
01C000
01C000
01C000
01C000
01C000
01C000
01FFF8
01FFF8
01FFF8
ENDCHAR
STARTCHAR 1F19
ENCODING 7961
SWIDTH 488 0
DWIDTH 19 0
BBX 21 25 -3 0
BITMAP
600000
F1FFF0
F1FFF0
F1FFF0
61C000
31C000
19C000
01C000
01C000
01C000
01C000
01FFE0
01FFE0
01FFE0
01C000
01C000
01C000
01C000
01C000
01C000
01C000
01C000
01FFF8
01FFF8
01FFF8
ENDCHAR
STARTCHAR 1F1A
ENCODING 7962
SWIDTH 488 0
DWIDTH 19 0
BBX 27 25 -9 0
BITMAP
61000000
F307FFC0
F787FFC0
73C7FFC0
61C70000
E0E70000
C0670000
00070000
00070000
00070000
00070000
0007FF80
0007FF80
0007FF80
00070000
00070000
00070000
00070000
00070000
00070000
00070000
00070000
0007FFE0
0007FFE0
0007FFE0
ENDCHAR
STARTCHAR 1F1B
ENCODING 7963
SWIDTH 488 0
DWIDTH 19 0
BBX 27 25 -9 0
BITMAP
61000000
F307FFC0
F787FFC0
E3C7FFC0
61C70000
70E70000
38670000
00070000
00070000
00070000
00070000
0007FF80
0007FF80
0007FF80
00070000
00070000
00070000
00070000
00070000
00070000
00070000
00070000
0007FFE0
0007FFE0
0007FFE0
ENDCHAR
STARTCHAR 1F1C
ENCODING 7964
SWIDTH 488 0
DWIDTH 19 0
BBX 27 25 -9 0
BITMAP
30000000
78E7FFC0
79E7FFC0
79C7FFC0
33870000
63070000
E7070000
00070000
00070000
00070000
00070000
0007FF80
0007FF80
0007FF80
00070000
00070000
00070000
00070000
00070000
00070000
00070000
00070000
0007FFE0
0007FFE0
0007FFE0
ENDCHAR
STARTCHAR 1F1D
ENCODING 7965
SWIDTH 488 0
DWIDTH 19 0
BBX 28 25 -10 0
BITMAP
20000000
F073FFE0
F0F3FFE0
F0E3FFE0
61C38000
31C38000
19838000
00038000
00038000
00038000
00038000
0003FFC0
0003FFC0
0003FFC0
00038000
00038000
00038000
00038000
00038000
00038000
00038000
00038000
0003FFF0
0003FFF0
0003FFF0
ENDCHAR
STARTCHAR 1F20
ENCODING 7968
SWIDTH 488 0
DWIDTH 19 0
BBX 14 33 3 -6
BITMAP
0380
0780
0780
0380
0300
0600
0400
0000
0000
FFE0
FFF0
F9F8
E078
E038
E03C
E01C
E01C
E01C
E01C
E01C
E01C
E01C
E01C
E01C
E01C
E01C
E01C
001C
001C
001C
001C
001C
001C
ENDCHAR
STARTCHAR 1F21
ENCODING 7969
SWIDTH 488 0
DWIDTH 19 0
BBX 14 33 3 -6
BITMAP
0700
0780
0780
0600
0300
0380
0080
0000
0000
FFE0
FFF0
F9F8
E078
E038
E03C
E01C
E01C
E01C
E01C
E01C
E01C
E01C
E01C
E01C
E01C
E01C
E01C
001C
001C
001C
001C
001C
001C
ENDCHAR
STARTCHAR 1F22
ENCODING 7970
SWIDTH 488 0
DWIDTH 19 0
BBX 14 33 3 -6
BITMAP
3880
3DC0
3DE0
18E0
3870
7038
6030
0000
0000
FFE0
FFF0
F9F8
E078
E038
E03C
E01C
E01C
E01C
E01C
E01C
E01C
E01C
E01C
E01C
E01C
E01C
E01C
001C
001C
001C
001C
001C
001C
ENDCHAR
STARTCHAR 1F23
ENCODING 7971
SWIDTH 488 0
DWIDTH 19 0
BBX 14 33 3 -6
BITMAP
3880
7BC0
79C0
70E0
3870
1C70
0820
0000
0000
FFE0
FFF0
F9F8
E078
E038
E03C
E01C
E01C
E01C
E01C
E01C
E01C
E01C
E01C
E01C
E01C
E01C
E01C
001C
001C
001C
001C
001C
001C
ENDCHAR
STARTCHAR 1F24
ENCODING 7972
SWIDTH 488 0
DWIDTH 19 0
BBX 14 33 3 -6
BITMAP
3860
3C70
3CF0
1CE0
19C0
3380
2100
0000
0000
FFE0
FFF0
F9F8
E078
E038
E03C
E01C
E01C
E01C
E01C
E01C
E01C
E01C
E01C
E01C
E01C
E01C
E01C
001C
001C
001C
001C
001C
001C
ENDCHAR
STARTCHAR 1F25
ENCODING 7973
SWIDTH 488 0
DWIDTH 19 0
BBX 14 33 3 -6
BITMAP
3810
7838
7878
3070
38E0
1DC0
0C80
0000
0000
FFE0
FFF0
F9F8
E078
E038
E03C
E01C
E01C
E01C
E01C
E01C
E01C
E01C
E01C
E01C
E01C
E01C
E01C
001C
001C
001C
001C
001C
001C
ENDCHAR
STARTCHAR 1F26
ENCODING 7974
SWIDTH 488 0
DWIDTH 19 0
BBX 14 37 3 -6
BITMAP
0200
1FC0
1FE0
3860
3060
0700
0780
0780
0300
0E00
0C00
0000
0000
FFE0
FFF0
F9F8
E078
E038
E03C
E01C
E01C
E01C
E01C
E01C
E01C
E01C
E01C
E01C
E01C
E01C
E01C
001C
001C
001C
001C
001C
001C
ENDCHAR
STARTCHAR 1F27
ENCODING 7975
SWIDTH 488 0
DWIDTH 19 0
BBX 14 37 3 -6
BITMAP
0200
1FC0
1FE0
3860
3060
0700
0780
0700
0700
0380
0080
0000
0000
FFE0
FFF0
F9F8
E078
E038
E03C
E01C
E01C
E01C
E01C
E01C
E01C
E01C
E01C
E01C
E01C
E01C
E01C
001C
001C
001C
001C
001C
001C
ENDCHAR
STARTCHAR 1F28
ENCODING 7976
SWIDTH 488 0
DWIDTH 19 0
BBX 23 25 -5 0
BITMAP
300000
79C01E
79C01E
39C01E
31C01E
71C01E
E1C01E
01C01E
01C01E
01C01E
01C01E
01FFFE
01FFFE
01FFFE
01C01E
01C01E
01C01E
01C01E
01C01E
01C01E
01C01E
01C01E
01C01E
01C01E
01C01E
ENDCHAR
STARTCHAR 1F29
ENCODING 7977
SWIDTH 488 0
DWIDTH 19 0
BBX 23 25 -5 0
BITMAP
200000
71C01E
F1C01E
71C01E
71C01E
31C01E
19C01E
01C01E
01C01E
01C01E
01C01E
01FFFE
01FFFE
01FFFE
01C01E
01C01E
01C01E
01C01E
01C01E
01C01E
01C01E
01C01E
01C01E
01C01E
01C01E
ENDCHAR
STARTCHAR 1F2A
ENCODING 7978
SWIDTH 488 0
DWIDTH 19 0
BBX 29 25 -11 0
BITMAP
21000000
73870078
F3870078
71C70078
71C70078
E0E70078
C0670078
00070078
00070078
00070078
00070078
0007FFF8
0007FFF8
0007FFF8
00070078
00070078
00070078
00070078
00070078
00070078
00070078
00070078
00070078
00070078
00070078
ENDCHAR
STARTCHAR 1F2B
ENCODING 7979
SWIDTH 488 0
DWIDTH 19 0
BBX 29 25 -11 0
BITMAP
61000000
F3070078
F3870078
F3C70078
61C70078
30E70078
18670078
00070078
00070078
00070078
00070078
0007FFF8
0007FFF8
0007FFF8
00070078
00070078
00070078
00070078
00070078
00070078
00070078
00070078
00070078
00070078
00070078
ENDCHAR
ENDFONT
